<?xml version="1.0" encoding="UTF-8"?>
<!--Generator: Apple Native CoreSVG 175-->
<!DOCTYPE svg
PUBLIC "-//W3C//DTD SVG 1.1//EN"
       "http://www.w3.org/Graphics/SVG/1.1/DTD/svg11.dtd">
<svg version="1.1" xmlns="http://www.w3.org/2000/svg" xmlns:xlink="http://www.w3.org/1999/xlink" width="3300" height="2200">
 <!--glyph: "uni100944.medium", point size: 100.0, font version: "17.3d3e1", template writer version: "65.1"-->
 <g id="Notes">
  <rect height="2200" id="artboard" style="fill:white;opacity:1" width="3300" x="0" y="0"/>
  <line style="fill:none;stroke:black;opacity:1;stroke-width:0.5;" x1="263" x2="3036" y1="292" y2="292"/>
  <text style="stroke:none;fill:black;font-family:sans-serif;font-size:13;font-weight:bold;" transform="matrix(1 0 0 1 263 322)">Weight/Scale Variations</text>
  <text style="stroke:none;fill:black;font-family:sans-serif;font-size:13;text-anchor:middle;" transform="matrix(1 0 0 1 559.711 322)">Ultralight</text>
  <text style="stroke:none;fill:black;font-family:sans-serif;font-size:13;text-anchor:middle;" transform="matrix(1 0 0 1 856.422 322)">Thin</text>
  <text style="stroke:none;fill:black;font-family:sans-serif;font-size:13;text-anchor:middle;" transform="matrix(1 0 0 1 1153.13 322)">Light</text>
  <text style="stroke:none;fill:black;font-family:sans-serif;font-size:13;text-anchor:middle;" transform="matrix(1 0 0 1 1449.84 322)">Regular</text>
  <text style="stroke:none;fill:black;font-family:sans-serif;font-size:13;text-anchor:middle;" transform="matrix(1 0 0 1 1746.56 322)">Medium</text>
  <text style="stroke:none;fill:black;font-family:sans-serif;font-size:13;text-anchor:middle;" transform="matrix(1 0 0 1 2043.27 322)">Semibold</text>
  <text style="stroke:none;fill:black;font-family:sans-serif;font-size:13;text-anchor:middle;" transform="matrix(1 0 0 1 2339.98 322)">Bold</text>
  <text style="stroke:none;fill:black;font-family:sans-serif;font-size:13;text-anchor:middle;" transform="matrix(1 0 0 1 2636.69 322)">Heavy</text>
  <text style="stroke:none;fill:black;font-family:sans-serif;font-size:13;text-anchor:middle;" transform="matrix(1 0 0 1 2933.4 322)">Black</text>
  <line style="fill:none;stroke:black;opacity:1;stroke-width:0.5;" x1="263" x2="3036" y1="1903" y2="1903"/>
  <g transform="matrix(1 0 0 1 263 1933)">
   <path d="M9.24805 0.830078Q10.8691 0.830078 12.2949 0.214844Q13.7207-0.400391 14.8096-1.49414Q15.8984-2.58789 16.5186-4.01367Q17.1387-5.43945 17.1387-7.05078Q17.1387-8.66211 16.5186-10.0879Q15.8984-11.5137 14.8047-12.6074Q13.7109-13.7012 12.2852-14.3164Q10.8594-14.9316 9.23828-14.9316Q7.62695-14.9316 6.20117-14.3164Q4.77539-13.7012 3.69141-12.6074Q2.60742-11.5137 1.9873-10.0879Q1.36719-8.66211 1.36719-7.05078Q1.36719-5.43945 1.9873-4.01367Q2.60742-2.58789 3.69629-1.49414Q4.78516-0.400391 6.21094 0.214844Q7.63672 0.830078 9.24805 0.830078ZM9.24805-0.654297Q7.91992-0.654297 6.7627-1.14746Q5.60547-1.64062 4.73145-2.51953Q3.85742-3.39844 3.36426-4.56055Q2.87109-5.72266 2.87109-7.05078Q2.87109-8.37891 3.35938-9.54102Q3.84766-10.7031 4.72168-11.582Q5.5957-12.4609 6.75293-12.9541Q7.91016-13.4473 9.23828-13.4473Q10.5762-13.4473 11.7334-12.9541Q12.8906-12.4609 13.7695-11.582Q14.6484-10.7031 15.1465-9.54102Q15.6445-8.37891 15.6445-7.05078Q15.6445-5.72266 15.1514-4.56055Q14.6582-3.39844 13.7842-2.51953Q12.9102-1.64062 11.748-1.14746Q10.5859-0.654297 9.24805-0.654297ZM5.6543-7.05078Q5.6543-6.72852 5.85938-6.52832Q6.06445-6.32812 6.40625-6.32812L8.51562-6.32812L8.51562-4.20898Q8.51562-3.88672 8.71094-3.67676Q8.90625-3.4668 9.23828-3.4668Q9.56055-3.4668 9.77051-3.67676Q9.98047-3.88672 9.98047-4.20898L9.98047-6.32812L12.0898-6.32812Q12.4219-6.32812 12.627-6.52832Q12.832-6.72852 12.832-7.05078Q12.832-7.38281 12.627-7.58789Q12.4219-7.79297 12.0898-7.79297L9.98047-7.79297L9.98047-9.90234Q9.98047-10.2344 9.77051-10.4443Q9.56055-10.6543 9.23828-10.6543Q8.90625-10.6543 8.71094-10.4443Q8.51562-10.2344 8.51562-9.90234L8.51562-7.79297L6.40625-7.79297Q6.06445-7.79297 5.85938-7.58789Q5.6543-7.38281 5.6543-7.05078Z"/>
  </g>
  <g transform="matrix(1 0 0 1 281.867 1933)">
   <path d="M11.709 2.91016Q13.75 2.91016 15.5518 2.12891Q17.3535 1.34766 18.7305-0.0292969Q20.1074-1.40625 20.8887-3.20801Q21.6699-5.00977 21.6699-7.05078Q21.6699-9.0918 20.8887-10.8936Q20.1074-12.6953 18.7305-14.0723Q17.3535-15.4492 15.5469-16.2305Q13.7402-17.0117 11.6992-17.0117Q9.6582-17.0117 7.85645-16.2305Q6.05469-15.4492 4.68262-14.0723Q3.31055-12.6953 2.5293-10.8936Q1.74805-9.0918 1.74805-7.05078Q1.74805-5.00977 2.5293-3.20801Q3.31055-1.40625 4.6875-0.0292969Q6.06445 1.34766 7.86621 2.12891Q9.66797 2.91016 11.709 2.91016ZM11.709 1.25Q9.98047 1.25 8.47656 0.605469Q6.97266-0.0390625 5.83496-1.17676Q4.69727-2.31445 4.05762-3.81836Q3.41797-5.32227 3.41797-7.05078Q3.41797-8.7793 4.05762-10.2832Q4.69727-11.7871 5.83008-12.9297Q6.96289-14.0723 8.4668-14.7119Q9.9707-15.3516 11.6992-15.3516Q13.4277-15.3516 14.9316-14.7119Q16.4355-14.0723 17.5781-12.9297Q18.7207-11.7871 19.3652-10.2832Q20.0098-8.7793 20.0098-7.05078Q20.0098-5.32227 19.3701-3.81836Q18.7305-2.31445 17.5928-1.17676Q16.4551-0.0390625 14.9463 0.605469Q13.4375 1.25 11.709 1.25ZM7.17773-7.05078Q7.17773-6.69922 7.41211-6.47461Q7.64648-6.25 8.01758-6.25L10.8887-6.25L10.8887-3.36914Q10.8887-2.99805 11.1133-2.76855Q11.3379-2.53906 11.6895-2.53906Q12.0605-2.53906 12.29-2.76855Q12.5195-2.99805 12.5195-3.36914L12.5195-6.25L15.4004-6.25Q15.7715-6.25 16.001-6.47461Q16.2305-6.69922 16.2305-7.05078Q16.2305-7.42188 16.001-7.65137Q15.7715-7.88086 15.4004-7.88086L12.5195-7.88086L12.5195-10.752Q12.5195-11.1328 12.29-11.3623Q12.0605-11.5918 11.6895-11.5918Q11.3379-11.5918 11.1133-11.3574Q10.8887-11.123 10.8887-10.752L10.8887-7.88086L8.01758-7.88086Q7.63672-7.88086 7.40723-7.65137Q7.17773-7.42188 7.17773-7.05078Z"/>
  </g>
  <g transform="matrix(1 0 0 1 305.646 1933)">
   <path d="M14.9707 5.66406Q17.0605 5.66406 18.96 5.01465Q20.8594 4.36523 22.4512 3.19336Q24.043 2.02148 25.2197 0.429688Q26.3965-1.16211 27.0459-3.06641Q27.6953-4.9707 27.6953-7.05078Q27.6953-9.14062 27.0459-11.04Q26.3965-12.9395 25.2197-14.5312Q24.043-16.123 22.4512-17.2998Q20.8594-18.4766 18.9551-19.126Q17.0508-19.7754 14.9609-19.7754Q12.8711-19.7754 10.9717-19.126Q9.07227-18.4766 7.48535-17.2998Q5.89844-16.123 4.72168-14.5312Q3.54492-12.9395 2.90039-11.04Q2.25586-9.14062 2.25586-7.05078Q2.25586-4.9707 2.90527-3.06641Q3.55469-1.16211 4.72656 0.429688Q5.89844 2.02148 7.49023 3.19336Q9.08203 4.36523 10.9814 5.01465Q12.8809 5.66406 14.9707 5.66406ZM14.9707 3.84766Q13.1641 3.84766 11.5283 3.2959Q9.89258 2.74414 8.53516 1.74805Q7.17773 0.751953 6.17676-0.610352Q5.17578-1.97266 4.62891-3.6084Q4.08203-5.24414 4.08203-7.05078Q4.08203-8.86719 4.62891-10.5029Q5.17578-12.1387 6.17188-13.501Q7.16797-14.8633 8.52539-15.8594Q9.88281-16.8555 11.5186-17.4023Q13.1543-17.9492 14.9609-17.9492Q16.7773-17.9492 18.4131-17.4023Q20.0488-16.8555 21.4111-15.8594Q22.7734-14.8633 23.7695-13.501Q24.7656-12.1387 25.3174-10.5029Q25.8691-8.86719 25.8691-7.05078Q25.8789-5.24414 25.332-3.6084Q24.7852-1.97266 23.7842-0.610352Q22.7832 0.751953 21.4209 1.74805Q20.0586 2.74414 18.4229 3.2959Q16.7871 3.84766 14.9707 3.84766ZM9.19922-7.05078Q9.19922-6.66992 9.45801-6.4209Q9.7168-6.17188 10.1172-6.17188L14.0625-6.17188L14.0625-2.2168Q14.0625-1.81641 14.3115-1.55762Q14.5605-1.29883 14.9512-1.29883Q15.3516-1.29883 15.6104-1.55273Q15.8691-1.80664 15.8691-2.2168L15.8691-6.17188L19.8242-6.17188Q20.2246-6.17188 20.4785-6.4209Q20.7324-6.66992 20.7324-7.05078Q20.7324-7.46094 20.4785-7.71484Q20.2246-7.96875 19.8242-7.96875L15.8691-7.96875L15.8691-11.9141Q15.8691-12.3242 15.6104-12.583Q15.3516-12.8418 14.9512-12.8418Q14.5605-12.8418 14.3115-12.583Q14.0625-12.3242 14.0625-11.9141L14.0625-7.96875L10.1172-7.96875Q9.70703-7.96875 9.45312-7.71484Q9.19922-7.46094 9.19922-7.05078Z"/>
  </g>
  <text style="stroke:none;fill:black;font-family:sans-serif;font-size:13;font-weight:bold;" transform="matrix(1 0 0 1 263 1953)">Design Variations</text>
  <text style="stroke:none;fill:black;font-family:sans-serif;font-size:13;" transform="matrix(1 0 0 1 263 1971)">Symbols are supported in up to nine weights and three scales.</text>
  <text style="stroke:none;fill:black;font-family:sans-serif;font-size:13;" transform="matrix(1 0 0 1 263 1989)">For optimal layout with text and other symbols, vertically align</text>
  <text style="stroke:none;fill:black;font-family:sans-serif;font-size:13;" transform="matrix(1 0 0 1 263 2007)">symbols with the adjacent text.</text>
  <line style="fill:none;stroke:#00AEEF;stroke-width:0.5;opacity:1.0;" x1="776" x2="776" y1="1919" y2="1933"/>
  <g transform="matrix(1 0 0 1 776 1933)">
   <path d="M3.31055 0.15625Q3.70117 0.15625 3.91602-0.00976562Q4.13086-0.175781 4.26758-0.585938L5.52734-4.0332L11.2891-4.0332L12.5488-0.585938Q12.6855-0.175781 12.9004-0.00976562Q13.1152 0.15625 13.4961 0.15625Q13.8867 0.15625 14.1162-0.0585938Q14.3457-0.273438 14.3457-0.644531Q14.3457-0.869141 14.2383-1.17188L9.6582-13.3691Q9.48242-13.8184 9.17969-14.043Q8.87695-14.2676 8.4082-14.2676Q7.5-14.2676 7.17773-13.3789L2.59766-1.16211Q2.49023-0.859375 2.49023-0.634766Q2.49023-0.263672 2.70996-0.0537109Q2.92969 0.15625 3.31055 0.15625ZM6.00586-5.51758L8.37891-12.0898L8.42773-12.0898L10.8008-5.51758Z"/>
  </g>
  <line style="fill:none;stroke:#00AEEF;stroke-width:0.5;opacity:1.0;" x1="793.197" x2="793.197" y1="1919" y2="1933"/>
  <text style="stroke:none;fill:black;font-family:sans-serif;font-size:13;font-weight:bold;" transform="matrix(1 0 0 1 776 1953)">Margins</text>
  <text style="stroke:none;fill:black;font-family:sans-serif;font-size:13;" transform="matrix(1 0 0 1 776 1971)">Leading and trailing margins on the left and right side of each symbol</text>
  <text style="stroke:none;fill:black;font-family:sans-serif;font-size:13;" transform="matrix(1 0 0 1 776 1989)">can be adjusted by modifying the x-location of the margin guidelines.</text>
  <text style="stroke:none;fill:black;font-family:sans-serif;font-size:13;" transform="matrix(1 0 0 1 776 2007)">Modifications are automatically applied proportionally to all</text>
  <text style="stroke:none;fill:black;font-family:sans-serif;font-size:13;" transform="matrix(1 0 0 1 776 2025)">scales and weights.</text>
  <g transform="matrix(1 0 0 1 1289 1933)">
   <path d="M2.8418 1.86523L4.54102 3.57422Q5.18555 4.22852 5.90332 4.17969Q6.62109 4.13086 7.31445 3.35938L18.0078-8.42773L17.041-9.4043L6.42578 2.27539Q6.16211 2.57812 5.89355 2.61719Q5.625 2.65625 5.27344 2.30469L4.10156 1.14258Q3.75 0.791016 3.79395 0.522461Q3.83789 0.253906 4.14062-0.0195312L15.6152-10.8203L14.6387-11.7871L3.04688-0.898438Q2.30469-0.214844 2.25098 0.498047Q2.19727 1.21094 2.8418 1.86523ZM9.25781-16.3281Q8.94531-16.0254 8.90625-15.6348Q8.86719-15.2441 9.04297-14.9512Q9.21875-14.6777 9.55566-14.541Q9.89258-14.4043 10.3809-14.5215Q11.4746-14.7754 12.5977-14.7314Q13.7207-14.6875 14.7949-13.9844L14.209-12.5293Q13.9551-11.9043 14.0674-11.4404Q14.1797-10.9766 14.5801-10.5664L16.875-8.25195Q17.2363-7.88086 17.5781-7.82227Q17.9199-7.76367 18.3398-7.8418L19.4043-8.03711L20.0684-7.36328L20.0293-6.80664Q20-6.43555 20.1221-6.12305Q20.2441-5.81055 20.6055-5.44922L21.3672-4.70703Q21.7285-4.3457 22.1533-4.33105Q22.5781-4.31641 22.9297-4.66797L25.8398-7.58789Q26.1914-7.93945 26.1816-8.35449Q26.1719-8.76953 25.8105-9.13086L25.0391-9.89258Q24.6875-10.2539 24.3799-10.3857Q24.0723-10.5176 23.7109-10.4883L23.1348-10.4395L22.4902-11.0742L22.7344-12.1973Q22.832-12.6172 22.6953-12.9834Q22.5586-13.3496 22.1191-13.7891L19.9219-15.9766Q18.6719-17.2168 17.2607-17.8369Q15.8496-18.457 14.4189-18.4814Q12.9883-18.5059 11.665-17.959Q10.3418-17.4121 9.25781-16.3281ZM10.752-15.957Q11.6602-16.6211 12.7002-16.9043Q13.7402-17.1875 14.8047-17.085Q15.8691-16.9824 16.8701-16.5137Q17.8711-16.0449 18.7012-15.2051L21.1328-12.793Q21.3086-12.6172 21.3525-12.4512Q21.3965-12.2852 21.3379-12.0312L21.0156-10.5469L22.5195-9.0625L23.5059-9.12109Q23.6914-9.13086 23.7891-9.09668Q23.8867-9.0625 24.0332-8.91602L24.6094-8.33984L22.168-5.89844L21.5918-6.47461Q21.4453-6.62109 21.4062-6.71875Q21.3672-6.81641 21.377-7.01172L21.4453-7.98828L19.9512-9.47266L18.4277-9.21875Q18.1836-9.16992 18.042-9.2041Q17.9004-9.23828 17.7148-9.41406L15.7129-11.416Q15.5176-11.5918 15.4932-11.7529Q15.4688-11.9141 15.5859-12.1875L16.4648-14.2773Q15.293-15.3711 13.8281-15.791Q12.3633-16.2109 10.8398-15.7617Q10.7227-15.7324 10.6885-15.8057Q10.6543-15.8789 10.752-15.957Z"/>
  </g>
  <text style="stroke:none;fill:black;font-family:sans-serif;font-size:13;font-weight:bold;" transform="matrix(1 0 0 1 1289 1953)">Exporting</text>
  <text style="stroke:none;fill:black;font-family:sans-serif;font-size:13;" transform="matrix(1 0 0 1 1289 1971)">Symbols should be outlined when exporting to ensure the</text>
  <text style="stroke:none;fill:black;font-family:sans-serif;font-size:13;" transform="matrix(1 0 0 1 1289 1989)">design is preserved when submitting to Xcode.</text>
  <text id="template-version" style="stroke:none;fill:black;font-family:sans-serif;font-size:13;text-anchor:end;" transform="matrix(1 0 0 1 3036 1933)">Template v.3.0</text>
  <text style="stroke:none;fill:black;font-family:sans-serif;font-size:13;text-anchor:end;" transform="matrix(1 0 0 1 3036 1951)">Requires Xcode 13 or greater</text>
  <text id="descriptive-name" style="stroke:none;fill:black;font-family:sans-serif;font-size:13;text-anchor:end;" transform="matrix(1 0 0 1 3036 1969)">Generated from plus.viewfinder</text>
  <text style="stroke:none;fill:black;font-family:sans-serif;font-size:13;text-anchor:end;" transform="matrix(1 0 0 1 3036 1987)">Typeset at 100 points</text>
  <text style="stroke:none;fill:black;font-family:sans-serif;font-size:13;" transform="matrix(1 0 0 1 263 726)">Small</text>
  <text style="stroke:none;fill:black;font-family:sans-serif;font-size:13;" transform="matrix(1 0 0 1 263 1156)">Medium</text>
  <text style="stroke:none;fill:black;font-family:sans-serif;font-size:13;" transform="matrix(1 0 0 1 263 1586)">Large</text>
 </g>
 <g id="Guides">
  <g id="H-reference" style="fill:#27AAE1;stroke:none;" transform="matrix(1 0 0 1 339 696)">
   <path d="M0.993347 0L3.6377 0L29.3282-67.1326L30.0301-67.1326L30.0301-70.459L28.1227-70.459ZM11.6882-24.4797L46.9818-24.4797L46.2311-26.7288L12.4382-26.7288ZM55.1193 0L57.7637 0L30.6381-70.459L29.4327-70.459L29.4327-67.1326Z"/>
  </g>
  <line id="Baseline-S" style="fill:none;stroke:#27AAE1;opacity:1;stroke-width:0.5;" x1="263" x2="3036" y1="696" y2="696"/>
  <line id="Capline-S" style="fill:none;stroke:#27AAE1;opacity:1;stroke-width:0.5;" x1="263" x2="3036" y1="625.541" y2="625.541"/>
  <g id="H-reference" style="fill:#27AAE1;stroke:none;" transform="matrix(1 0 0 1 339 1126)">
   <path d="M0.993347 0L3.6377 0L29.3282-67.1326L30.0301-67.1326L30.0301-70.459L28.1227-70.459ZM11.6882-24.4797L46.9818-24.4797L46.2311-26.7288L12.4382-26.7288ZM55.1193 0L57.7637 0L30.6381-70.459L29.4327-70.459L29.4327-67.1326Z"/>
  </g>
  <line id="Baseline-M" style="fill:none;stroke:#27AAE1;opacity:1;stroke-width:0.5;" x1="263" x2="3036" y1="1126" y2="1126"/>
  <line id="Capline-M" style="fill:none;stroke:#27AAE1;opacity:1;stroke-width:0.5;" x1="263" x2="3036" y1="1055.54" y2="1055.54"/>
  <g id="H-reference" style="fill:#27AAE1;stroke:none;" transform="matrix(1 0 0 1 339 1556)">
   <path d="M0.993347 0L3.6377 0L29.3282-67.1326L30.0301-67.1326L30.0301-70.459L28.1227-70.459ZM11.6882-24.4797L46.9818-24.4797L46.2311-26.7288L12.4382-26.7288ZM55.1193 0L57.7637 0L30.6381-70.459L29.4327-70.459L29.4327-67.1326Z"/>
  </g>
  <line id="Baseline-L" style="fill:none;stroke:#27AAE1;opacity:1;stroke-width:0.5;" x1="263" x2="3036" y1="1556" y2="1556"/>
  <line id="Capline-L" style="fill:none;stroke:#27AAE1;opacity:1;stroke-width:0.5;" x1="263" x2="3036" y1="1485.54" y2="1485.54"/>
  <line id="left-margin-Regular-M" style="fill:none;stroke:#00AEEF;stroke-width:0.5;opacity:1.0;" x1="1389.61" x2="1389.61" y1="1030.79" y2="1150.12"/>
  <line id="right-margin-Regular-M" style="fill:none;stroke:#00AEEF;stroke-width:0.5;opacity:1.0;" x1="1510.08" x2="1510.08" y1="1030.79" y2="1150.12"/>
 </g>
 <g id="Symbols">
  <g id="Black-L" transform="matrix(1 0 0 1 2852.32 1556)">
   <path d="M26.0749-51.5293Q36.0645-51.5293 36.0645-61.5994L36.0645-73.6474Q36.0645-77.1292 37.7216-78.6592Q39.3787-80.1891 42.5866-80.1891L54.7371-80.1891Q64.8071-80.1891 64.8071-90.18Q64.8071-100.19 54.7371-100.19L39.8559-100.19Q28.5079-100.19 22.2959-93.999Q16.084-87.8078 16.084-76.4818L16.084-61.5994Q16.084-51.5293 26.0749-51.5293ZM136.077-51.5293Q146.068-51.5293 146.068-61.5994L146.068-76.4818Q146.068-87.8065 139.866-93.9984Q133.665-100.19 122.296-100.19L107.415-100.19Q97.3447-100.19 97.3447-90.18Q97.3447-80.1891 107.415-80.1891L119.565-80.1891Q122.828-80.1891 124.458-78.6592Q126.087-77.1292 126.087-73.6474L126.087-61.5994Q126.087-51.5293 136.077-51.5293ZM39.8559 29.8143L54.7371 29.8143Q64.8071 29.8143 64.8071 19.8247Q64.8071 9.81309 54.7371 9.81309L42.5866 9.81309Q39.3787 9.81309 37.7216 8.26432Q36.0645 6.71556 36.0645 3.27017L36.0645-8.75591Q36.0645-18.8479 26.0749-18.8479Q16.084-18.8479 16.084-8.75591L16.084 6.10582Q16.084 17.4318 22.2959 23.6231Q28.5079 29.8143 39.8559 29.8143ZM107.415 29.8143L122.296 29.8143Q133.665 29.8143 139.866 23.6224Q146.068 17.4305 146.068 6.10582L146.068-8.75591Q146.068-18.8479 136.077-18.8479Q126.087-18.8479 126.087-8.75591L126.087 3.27017Q126.087 6.71556 124.458 8.26432Q122.828 9.81309 119.565 9.81309L107.415 9.81309Q97.3447 9.81309 97.3447 19.8247Q97.3447 29.8143 107.415 29.8143ZM52.2248-35.188Q52.2248-31.7473 54.4504-29.4444Q56.6761-27.1415 60.1011-27.1415L73.019-27.1415L73.019-14.2029Q73.019-10.8206 75.3116-8.58455Q77.6041-6.34852 81.0643-6.34852Q84.5075-6.34852 86.8311-8.58391Q89.1548-10.8193 89.1548-14.2029L89.1548-27.1415L102.073-27.1415Q105.477-27.1415 107.703-29.4444Q109.928-31.7473 109.928-35.188Q109.928-38.6507 107.703-40.9646Q105.477-43.2785 102.073-43.2785L89.1548-43.2785L89.1548-56.1964Q89.1548-59.6007 86.8311-61.8361Q84.5075-64.0715 81.0643-64.0715Q77.6041-64.0715 75.3116-61.8355Q73.019-59.5994 73.019-56.1964L73.019-43.2785L60.1011-43.2785Q56.6748-43.2785 54.4498-40.9646Q52.2248-38.6507 52.2248-35.188Z"/>
  </g>
  <g id="Heavy-L" transform="matrix(1 0 0 1 2556.49 1556)">
   <path d="M24.8359-52.7708Q33.5818-52.7708 33.5818-61.5972L33.5818-74.3861Q33.5818-78.2252 35.4659-80.0051Q37.3499-81.785 40.957-81.785L53.8887-81.785Q62.7151-81.785 62.7151-90.537Q62.7151-99.3126 53.8887-99.3126L38.8328-99.3126Q27.8839-99.3126 21.984-93.4424Q16.084-87.5722 16.084-76.6592L16.084-61.5972Q16.084-52.7708 24.8359-52.7708ZM135.561-52.7708Q144.313-52.7708 144.313-61.5972L144.313-76.6592Q144.313-87.5662 138.428-93.4394Q132.543-99.3126 121.564-99.3126L106.508-99.3126Q97.6819-99.3126 97.6819-90.537Q97.6819-81.785 106.508-81.785L119.44-81.785Q123.074-81.785 124.944-80.0051Q126.815-78.2252 126.815-74.3861L126.815-61.5972Q126.815-52.7708 135.561-52.7708ZM38.8328 28.9461L53.8887 28.9461Q62.7151 28.9461 62.7151 20.2002Q62.7151 11.4185 53.8887 11.4185L40.957 11.4185Q37.3499 11.4185 35.4659 9.63119Q33.5818 7.84388 33.5818 4.01358L33.5818-8.73958Q33.5818-17.6017 24.8359-17.6017Q16.084-17.6017 16.084-8.73958L16.084 6.29266Q16.084 17.2057 21.984 23.0759Q27.8839 28.9461 38.8328 28.9461ZM106.508 28.9461L121.564 28.9461Q132.543 28.9461 138.428 23.0729Q144.313 17.1997 144.313 6.29266L144.313-8.73958Q144.313-17.6017 135.561-17.6017Q126.815-17.6017 126.815-8.73958L126.815 4.01358Q126.815 7.84388 124.944 9.63119Q123.074 11.4185 119.44 11.4185L106.508 11.4185Q97.6819 11.4185 97.6819 20.2002Q97.6819 28.9461 106.508 28.9461ZM51.3052-35.1832Q51.3052-32.0495 53.3334-29.9692Q55.3617-27.8889 58.5163-27.8889L72.8893-27.8889L72.8893-13.4862Q72.8893-10.3971 74.9547-8.35399Q77.0201-6.31087 80.1776-6.31087Q83.3234-6.31087 85.4334-8.35097Q87.5435-10.3911 87.5435-13.4862L87.5435-27.8889L101.916-27.8889Q105.041-27.8889 107.07-29.9692Q109.098-32.0495 109.098-35.1832Q109.098-38.3528 107.07-40.451Q105.041-42.5491 101.916-42.5491L87.5435-42.5491L87.5435-56.9221Q87.5435-60.047 85.4334-62.0871Q83.3234-64.1272 80.1776-64.1272Q77.0201-64.1272 74.9547-62.0841Q72.8893-60.041 72.8893-56.9221L72.8893-42.5491L58.5163-42.5491Q55.3556-42.5491 53.3304-40.451Q51.3052-38.3528 51.3052-35.1832Z"/>
  </g>
  <g id="Bold-L" transform="matrix(1 0 0 1 2260.93 1556)">
   <path d="M23.309-54.1769Q30.5198-54.1769 30.5198-61.4681L30.5198-75.1923Q30.5198-79.4973 32.6907-81.5914Q34.8616-83.6854 38.9901-83.6854L52.8851-83.6854Q60.1762-83.6854 60.1762-90.9104Q60.1762-98.1582 52.8851-98.1582L37.5443-98.1582Q27.1168-98.1582 21.6004-92.6787Q16.084-87.1993 16.084-76.823L16.084-61.4681Q16.084-54.1769 23.309-54.1769ZM134.788-54.1769Q142.013-54.1769 142.013-61.4681L142.013-76.823Q142.013-87.1851 136.515-92.6716Q131.017-98.1582 120.553-98.1582L105.212-98.1582Q97.9209-98.1582 97.9209-90.9104Q97.9209-83.6854 105.212-83.6854L119.107-83.6854Q123.222-83.6854 125.4-81.5914Q127.577-79.4973 127.577-75.1923L127.577-61.4681Q127.577-54.1769 134.788-54.1769ZM37.5443 27.808L52.8851 27.808Q60.1762 27.808 60.1762 20.5973Q60.1762 13.3353 52.8851 13.3353L38.9901 13.3353Q34.8616 13.3353 32.6907 11.2451Q30.5198 9.15499 30.5198 4.82792L30.5198-8.84506Q30.5198-16.1875 23.309-16.1875Q16.084-16.1875 16.084-8.84506L16.084 6.47288Q16.084 16.8492 21.6004 22.3286Q27.1168 27.808 37.5443 27.808ZM105.212 27.808L120.553 27.808Q131.017 27.808 136.515 22.3215Q142.013 16.835 142.013 6.47288L142.013-8.84506Q142.013-16.1875 134.788-16.1875Q127.577-16.1875 127.577-8.84506L127.577 4.82792Q127.577 9.15499 125.4 11.2451Q123.222 13.3353 119.107 13.3353L105.212 13.3353Q97.9209 13.3353 97.9209 20.5973Q97.9209 27.808 105.212 27.808ZM50.1786-35.1751Q50.1786-32.4538 51.9457-30.6614Q53.7128-28.869 56.4931-28.869L72.724-28.869L72.724-12.6011Q72.724-9.90899 74.4979-8.12341Q76.2718-6.33783 79.0159-6.33783Q81.7656-6.33783 83.595-8.1163Q85.4244-9.89477 85.4244-12.6011L85.4244-28.869L101.655-28.869Q104.399-28.869 106.166-30.6614Q107.933-32.4538 107.933-35.1751Q107.933-37.9476 106.166-39.7656Q104.399-41.5836 101.655-41.5836L85.4244-41.5836L85.4244-57.8145Q85.4244-60.5578 83.595-62.3362Q81.7656-64.1147 79.0159-64.1147Q76.2718-64.1147 74.4979-62.3291Q72.724-60.5436 72.724-57.8145L72.724-41.5836L56.4931-41.5836Q53.6986-41.5836 51.9386-39.7656Q50.1786-37.9476 50.1786-35.1751Z"/>
  </g>
  <g id="Semibold-L" transform="matrix(1 0 0 1 1965.01 1556)">
   <path d="M22.2563-55.1462Q28.4088-55.1462 28.4088-61.3791L28.4088-75.748Q28.4088-80.3743 30.7775-82.6849Q33.1463-84.9955 37.6342-84.9955L52.1931-84.9955Q58.426-84.9955 58.426-91.1678Q58.426-97.3623 52.1931-97.3623L36.6561-97.3623Q26.588-97.3623 21.336-92.1522Q16.084-86.9422 16.084-76.9359L16.084-61.3791Q16.084-55.1462 22.2563-55.1462ZM134.255-55.1462Q140.428-55.1462 140.428-61.3791L140.428-76.9359Q140.428-86.9223 135.197-92.1423Q129.966-97.3623 119.856-97.3623L104.319-97.3623Q98.0857-97.3623 98.0857-91.1678Q98.0857-84.9955 104.319-84.9955L118.878-84.9955Q123.324-84.9955 125.714-82.6849Q128.103-80.3743 128.103-75.748L128.103-61.3791Q128.103-55.1462 134.255-55.1462ZM36.6561 27.0235L52.1931 27.0235Q58.426 27.0235 58.426 20.871Q58.426 14.6567 52.1931 14.6567L37.6342 14.6567Q33.1463 14.6567 30.7775 12.3578Q28.4088 10.0589 28.4088 5.38932L28.4088-8.91778Q28.4088-15.2125 22.2563-15.2125Q16.084-15.2125 16.084-8.91778L16.084 6.59712Q16.084 16.6034 21.336 21.8134Q26.588 27.0235 36.6561 27.0235ZM104.319 27.0235L119.856 27.0235Q129.966 27.0235 135.197 21.8035Q140.428 16.5835 140.428 6.59712L140.428-8.91778Q140.428-15.2125 134.255-15.2125Q128.103-15.2125 128.103-8.91778L128.103 5.38932Q128.103 10.0589 125.714 12.3578Q123.324 14.6567 118.878 14.6567L104.319 14.6567Q98.0857 14.6567 98.0857 20.871Q98.0857 27.0235 104.319 27.0235ZM49.402-35.1694Q49.402-32.7325 50.9891-31.1385Q52.5761-29.5446 55.0983-29.5446L72.6101-29.5446L72.6101-11.9909Q72.6101-9.57249 74.183-7.96446Q75.756-6.35642 78.215-6.35642Q80.6917-6.35642 82.3276-7.95452Q83.9635-9.55262 83.9635-11.9909L83.9635-29.5446L101.475-29.5446Q103.955-29.5446 105.543-31.1385Q107.13-32.7325 107.13-35.1694Q107.13-37.6682 105.543-39.293Q103.955-40.9179 101.475-40.9179L83.9635-40.9179L83.9635-58.4297Q83.9635-60.9099 82.3276-62.508Q80.6917-64.1061 78.215-64.1061Q75.756-64.1061 74.183-62.4981Q72.6101-60.89 72.6101-58.4297L72.6101-40.9179L55.0983-40.9179Q52.5562-40.9179 50.9791-39.293Q49.402-37.6682 49.402-35.1694Z"/>
  </g>
  <g id="Medium-L" transform="matrix(1 0 0 1 1668.9 1556)">
   <path d="M21.4581-55.8812Q26.8081-55.8812 26.8081-61.3116L26.8081-76.1694Q26.8081-81.0392 29.3269-83.5141Q31.8456-85.9889 36.606-85.9889L51.6685-85.9889Q57.0989-85.9889 57.0989-91.3631Q57.0989-96.7588 51.6685-96.7588L35.9826-96.7588Q26.187-96.7588 21.1355-91.753Q16.084-86.7473 16.084-77.0216L16.084-61.3116Q16.084-55.8812 21.4581-55.8812ZM133.851-55.8812Q139.226-55.8812 139.226-61.3116L139.226-77.0216Q139.226-86.7231 134.197-91.741Q129.168-96.7588 119.327-96.7588L103.641-96.7588Q98.2107-96.7588 98.2107-91.3631Q98.2107-85.9889 103.641-85.9889L118.704-85.9889Q123.402-85.9889 125.952-83.5141Q128.501-81.0392 128.501-76.1694L128.501-61.3116Q128.501-55.8812 133.851-55.8812ZM35.9826 26.4285L51.6685 26.4285Q57.0989 26.4285 57.0989 21.0786Q57.0989 15.6587 51.6685 15.6587L36.606 15.6587Q31.8456 15.6587 29.3269 13.2014Q26.8081 10.7442 26.8081 5.81499L26.8081-8.97293Q26.8081-14.4732 21.4581-14.4732Q16.084-14.4732 16.084-8.97293L16.084 6.69133Q16.084 16.417 21.1355 21.4228Q26.187 26.4285 35.9826 26.4285ZM103.641 26.4285L119.327 26.4285Q129.168 26.4285 134.197 21.4107Q139.226 16.3929 139.226 6.69133L139.226-8.97293Q139.226-14.4732 133.851-14.4732Q128.501-14.4732 128.501-8.97293L128.501 5.81499Q128.501 10.7442 125.952 13.2014Q123.402 15.6587 118.704 15.6587L103.641 15.6587Q98.2107 15.6587 98.2107 21.0786Q98.2107 26.4285 103.641 26.4285ZM48.8131-35.1651Q48.8131-32.9438 50.2637-31.5004Q51.7142-30.0569 54.0407-30.0569L72.5237-30.0569L72.5237-11.5282Q72.5237-9.31734 73.9443-7.84393Q75.3648-6.37051 77.6078-6.37051Q79.8774-6.37051 81.3666-7.83185Q82.8558-9.29319 82.8558-11.5282L82.8558-30.0569L101.339-30.0569Q103.62-30.0569 105.07-31.5004Q106.521-32.9438 106.521-35.1651Q106.521-37.4564 105.07-38.9348Q103.62-40.4131 101.339-40.4131L82.8558-40.4131L82.8558-58.8961Q82.8558-61.1769 81.3666-62.6382Q79.8774-64.0996 77.6078-64.0996Q75.3648-64.0996 73.9443-62.6261Q72.5237-61.1527 72.5237-58.8961L72.5237-40.4131L54.0407-40.4131Q51.6901-40.4131 50.2516-38.9348Q48.8131-37.4564 48.8131-35.1651Z"/>
  </g>
  <g id="Regular-L" transform="matrix(1 0 0 1 1372.98 1556)">
   <path d="M20.417-56.8398Q24.7203-56.8398 24.7203-61.2236L24.7203-76.7191Q24.7203-81.9066 27.4347-84.5956Q30.1491-87.2846 35.265-87.2846L50.9841-87.2846Q55.3679-87.2846 55.3679-91.6177Q55.3679-95.9717 50.9841-95.9717L35.1041-95.9717Q25.664-95.9717 20.874-91.2323Q16.084-86.493 16.084-77.1333L16.084-61.2236Q16.084-56.8398 20.417-56.8398ZM133.325-56.8398Q137.658-56.8398 137.658-61.2236L137.658-77.1333Q137.658-86.4633 132.893-91.2175Q128.128-95.9717 118.637-95.9717L102.757-95.9717Q98.3737-95.9717 98.3737-91.6177Q98.3737-87.2846 102.757-87.2846L118.477-87.2846Q123.503-87.2846 126.262-84.5956Q129.021-81.9066 129.021-76.7191L129.021-61.2236Q129.021-56.8398 133.325-56.8398ZM35.1041 25.6526L50.9841 25.6526Q55.3679 25.6526 55.3679 21.3493Q55.3679 16.9655 50.9841 16.9655L35.265 16.9655Q30.1491 16.9655 27.4347 14.3018Q24.7203 11.6381 24.7203 6.37023L24.7203-9.04485Q24.7203-13.509 20.417-13.509Q16.084-13.509 16.084-9.04485L16.084 6.81421Q16.084 16.1739 20.874 20.9132Q25.664 25.6526 35.1041 25.6526ZM102.757 25.6526L118.637 25.6526Q128.128 25.6526 132.893 20.8984Q137.658 16.1442 137.658 6.81421L137.658-9.04485Q137.658-13.509 133.325-13.509Q129.021-13.509 129.021-9.04485L129.021 6.37023Q129.021 11.6381 126.262 14.3018Q123.503 16.9655 118.477 16.9655L102.757 16.9655Q98.3737 16.9655 98.3737 21.3493Q98.3737 25.6526 102.757 25.6526ZM48.045-35.1595Q48.045-33.2194 49.3175-31.9723Q50.59-30.7251 52.6612-30.7251L72.411-30.7251L72.411-10.9247Q72.411-8.98453 73.6328-7.68672Q74.8546-6.3889 76.8157-6.3889Q78.8153-6.3889 80.1131-7.67185Q81.4109-8.9548 81.4109-10.9247L81.4109-30.7251L101.161-30.7251Q103.181-30.7251 104.454-31.9723Q105.726-33.2194 105.726-35.1595Q105.726-37.1801 104.454-38.4674Q103.181-39.7548 101.161-39.7548L81.4109-39.7548L81.4109-59.5046Q81.4109-61.5251 80.1131-62.8081Q78.8153-64.091 76.8157-64.091Q74.8546-64.091 73.6328-62.7932Q72.411-61.4954 72.411-59.5046L72.411-39.7548L52.6612-39.7548Q50.5603-39.7548 49.3026-38.4674Q48.045-37.1801 48.045-35.1595Z"/>
  </g>
  <g id="Light-L" transform="matrix(1 0 0 1 1077.47 1556)">
   <path d="M19.4115-56.963Q22.6887-56.963 22.6887-60.3206L22.6887-76.5754Q22.6887-82.2349 25.639-85.1702Q28.5894-88.1055 34.2389-88.1055L50.5942-88.1055Q53.9518-88.1055 53.9518-91.433Q53.9518-94.7403 50.5942-94.7403L34.078-94.7403Q25.1715-94.7403 20.6277-90.2268Q16.084-85.7132 16.084-76.887L16.084-60.3206Q16.084-56.963 19.4115-56.963ZM131.929-56.963Q135.256-56.963 135.256-60.3206L135.256-76.887Q135.256-85.6629 130.728-90.2016Q126.199-94.7403 117.262-94.7403L100.746-94.7403Q97.3886-94.7403 97.3886-91.433Q97.3886-88.1055 100.746-88.1055L117.102-88.1055Q122.6-88.1055 125.626-85.1702Q128.652-82.2349 128.652-76.5754L128.652-60.3206Q128.652-56.963 131.929-56.963ZM34.078 24.4623L50.5942 24.4623Q53.9518 24.4623 53.9518 21.1851Q53.9518 17.8275 50.5942 17.8275L34.2389 17.8275Q28.5894 17.8275 25.639 14.9072Q22.6887 11.987 22.6887 6.24709L22.6887-9.92729Q22.6887-13.3653 19.4115-13.3653Q16.084-13.3653 16.084-9.92729L16.084 6.60899Q16.084 15.4351 20.6277 19.9487Q25.1715 24.4623 34.078 24.4623ZM100.746 24.4623L117.262 24.4623Q126.199 24.4623 130.728 19.9236Q135.256 15.3849 135.256 6.60899L135.256-9.92729Q135.256-13.3653 131.929-13.3653Q128.652-13.3653 128.652-9.92729L128.652 6.24709Q128.652 11.987 125.626 14.9072Q122.6 17.8275 117.102 17.8275L100.746 17.8275Q97.3886 17.8275 97.3886 21.1851Q97.3886 24.4623 100.746 24.4623ZM47.3473-35.139Q47.3473-33.6914 48.3325-32.7213Q49.3176-31.7512 50.8758-31.7512L72.2674-31.7512L72.2674-10.3295Q72.2674-8.88192 73.2224-7.88167Q74.1774-6.88142 75.6049-6.88142Q77.153-6.88142 78.1533-7.85654Q79.1535-8.83166 79.1535-10.3295L79.1535-31.7512L100.545-31.7512Q102.073-31.7512 103.058-32.7213Q104.043-33.6914 104.043-35.139Q104.043-36.667 103.058-37.6773Q102.073-38.6876 100.545-38.6876L79.1535-38.6876L79.1535-60.0792Q79.1535-61.6072 78.1533-62.5823Q77.153-63.5575 75.6049-63.5575Q74.1774-63.5575 73.2224-62.5572Q72.2674-61.557 72.2674-60.0792L72.2674-38.6876L50.8758-38.6876Q49.2674-38.6876 48.3073-37.6773Q47.3473-36.667 47.3473-35.139Z"/>
  </g>
  <g id="Thin-L" transform="matrix(1 0 0 1 782.347 1556)">
   <path d="M18.0815-57.1258Q20.0016-57.1258 20.0016-59.1263L20.0016-76.3854Q20.0016-82.6692 23.2641-85.9302Q26.5266-89.1912 32.8818-89.1912L50.0785-89.1912Q52.0791-89.1912 52.0791-91.1887Q52.0791-93.1118 50.0785-93.1118L32.7209-93.1118Q24.5201-93.1118 20.302-88.8968Q16.084-84.6818 16.084-76.5613L16.084-59.1263Q16.084-57.1258 18.0815-57.1258ZM130.083-57.1258Q132.081-57.1258 132.081-59.1263L132.081-76.5613Q132.081-84.6044 127.864-88.8581Q123.648-93.1118 115.444-93.1118L98.0863-93.1118Q96.0858-93.1118 96.0858-91.1887Q96.0858-89.1912 98.0863-89.1912L115.283-89.1912Q121.406-89.1912 124.785-85.9302Q128.163-82.6692 128.163-76.3854L128.163-59.1263Q128.163-57.1258 130.083-57.1258ZM32.7209 22.8881L50.0785 22.8881Q52.0791 22.8881 52.0791 20.968Q52.0791 18.9674 50.0785 18.9674L32.8818 18.9674Q26.5266 18.9674 23.2641 15.7079Q20.0016 12.4484 20.0016 6.08424L20.0016-11.0944Q20.0016-13.1753 18.0815-13.1753Q16.084-13.1753 16.084-11.0944L16.084 6.33757Q16.084 14.458 20.302 18.673Q24.5201 22.8881 32.7209 22.8881ZM98.0863 22.8881L115.444 22.8881Q123.648 22.8881 127.864 18.6343Q132.081 14.3806 132.081 6.33757L132.081-11.0944Q132.081-13.1753 130.083-13.1753Q128.163-13.1753 128.163-11.0944L128.163 6.08424Q128.163 12.4484 124.785 15.7079Q121.406 18.9674 115.283 18.9674L98.0863 18.9674Q96.0858 18.9674 96.0858 20.968Q96.0858 22.8881 98.0863 22.8881ZM46.4245-35.1119Q46.4245-34.3157 47.0297-33.712Q47.6348-33.1083 48.5145-33.1083L72.0774-33.1083L72.0774-9.54241Q72.0774-8.74621 72.6795-8.13952Q73.2817-7.53283 74.0035-7.53283Q74.9545-7.53283 75.5612-8.10082Q76.1679-8.66881 76.1679-9.54241L76.1679-33.1083L99.7308-33.1083Q100.607-33.1083 101.213-33.712Q101.818-34.3157 101.818-35.1119Q101.818-35.9885 101.213-36.6324Q100.607-37.2763 99.7308-37.2763L76.1679-37.2763L76.1679-60.8392Q76.1679-61.7158 75.5612-62.2838Q74.9545-62.8518 74.0035-62.8518Q73.2817-62.8518 72.6795-62.2451Q72.0774-61.6384 72.0774-60.8392L72.0774-37.2763L48.5145-37.2763Q47.5574-37.2763 46.9909-36.6324Q46.4245-35.9885 46.4245-35.1119Z"/>
  </g>
  <g id="Ultralight-L" transform="matrix(1 0 0 1 486.45 1556)">
   <path d="M17.4003-57.2092Q18.6253-57.2092 18.6253-58.5147L18.6253-76.2881Q18.6253-82.8916 22.0477-86.3194Q25.4701-89.7473 32.1867-89.7473L49.8144-89.7473Q51.1198-89.7473 51.1198-91.0636Q51.1198-92.2777 49.8144-92.2777L32.0258-92.2777Q24.1864-92.2777 20.1352-88.2156Q16.084-84.1535 16.084-76.3945L16.084-58.5147Q16.084-57.2092 17.4003-57.2092ZM129.138-57.2092Q130.454-57.2092 130.454-58.5147L130.454-76.3945Q130.454-84.0622 126.398-88.17Q122.341-92.2777 114.512-92.2777L96.7239-92.2777Q95.4185-92.2777 95.4185-91.0636Q95.4185-89.7473 96.7239-89.7473L114.352-89.7473Q120.794-89.7473 124.354-86.3194Q127.913-82.8916 127.913-76.2881L127.913-58.5147Q127.913-57.2092 129.138-57.2092ZM32.0258 22.0818L49.8144 22.0818Q51.1198 22.0818 51.1198 20.8567Q51.1198 19.5513 49.8144 19.5513L32.1867 19.5513Q25.4701 19.5513 22.0477 16.118Q18.6253 12.6848 18.6253 6.00083L18.6253-11.6922Q18.6253-13.078 17.4003-13.078Q16.084-13.078 16.084-11.6922L16.084 6.19855Q16.084 13.9575 20.1352 18.0197Q24.1864 22.0818 32.0258 22.0818ZM96.7239 22.0818L114.512 22.0818Q122.341 22.0818 126.398 17.974Q130.454 13.8662 130.454 6.19855L130.454-11.6922Q130.454-13.078 129.138-13.078Q127.913-13.078 127.913-11.6922L127.913 6.00083Q127.913 12.6848 124.354 16.118Q120.794 19.5513 114.352 19.5513L96.7239 19.5513Q95.4185 19.5513 95.4185 20.8567Q95.4185 22.0818 96.7239 22.0818ZM45.9518-35.098Q45.9518-34.6354 46.3624-34.2194Q46.7729-33.8034 47.305-33.8034L71.9801-33.8034L71.9801-9.13925Q71.9801-8.67671 72.4015-8.27159Q72.8229-7.86648 73.1833-7.86648Q73.8285-7.86648 74.2336-8.22594Q74.6387-8.5854 74.6387-9.13925L74.6387-33.8034L99.3137-33.8034Q99.8567-33.8034 100.267-34.2194Q100.678-34.6354 100.678-35.098Q100.678-35.6409 100.267-36.0972Q99.8567-36.5534 99.3137-36.5534L74.6387-36.5534L74.6387-61.2284Q74.6387-61.7714 74.2336-62.1309Q73.8285-62.4903 73.1833-62.4903Q72.8229-62.4903 72.4015-62.0852Q71.9801-61.6801 71.9801-61.2284L71.9801-36.5534L47.305-36.5534Q46.6816-36.5534 46.3167-36.0972Q45.9518-35.6409 45.9518-35.098Z"/>
  </g>
  <g id="Black-M" transform="matrix(1 0 0 1 2870 1126)">
   <path d="M21.1298-46.8074Q29.799-46.8074 29.799-55.5389L29.799-64.3392Q29.799-66.7935 30.9198-67.7974Q32.0406-68.8012 34.2552-68.8012L43.0834-68.8012Q51.8149-68.8012 51.8149-77.4701Q51.8149-86.1448 43.0834-86.1448L31.6183-86.1448Q22.5558-86.1448 17.5084-81.1029Q12.4609-76.0609 12.4609-67.0036L12.4609-55.5389Q12.4609-46.8074 21.1298-46.8074ZM105.679-46.8074Q114.348-46.8074 114.348-55.5389L114.348-67.0036Q114.348-76.0613 109.303-81.103Q104.258-86.1448 95.1903-86.1448L83.7253-86.1448Q74.9938-86.1448 74.9938-77.4701Q74.9938-68.8012 83.7253-68.8012L92.5535-68.8012Q94.8261-68.8012 95.9179-67.7974Q97.0096-66.7935 97.0096-64.3392L97.0096-55.5389Q97.0096-46.8074 105.679-46.8074ZM31.6183 15.7475L43.0834 15.7475Q51.8149 15.7475 51.8149 7.07831Q51.8149-1.59608 43.0834-1.59608L34.2552-1.59608Q32.0406-1.59608 30.9198-2.62571Q29.799-3.65534 29.799-6.05778L29.799-14.8529Q29.799-23.5896 21.1298-23.5896Q12.4609-23.5896 12.4609-14.8529L12.4609-3.39367Q12.4609 5.66366 17.5084 10.7056Q22.5558 15.7475 31.6183 15.7475ZM83.7253 15.7475L95.1903 15.7475Q104.258 15.7475 109.303 10.7057Q114.348 5.66396 114.348-3.39367L114.348-14.8529Q114.348-23.5896 105.679-23.5896Q97.0096-23.5896 97.0096-14.8529L97.0096-6.05778Q97.0096-3.65534 95.9179-2.62571Q94.8261-1.59608 92.5535-1.59608L83.7253-1.59608Q74.9938-1.59608 74.9938 7.07831Q74.9938 15.7475 83.7253 15.7475ZM41.1565-35.1986Q41.1565-32.3359 43.0116-30.398Q44.8667-28.46 47.683-28.46L56.6629-28.46L56.6629-19.4745Q56.6629-16.6689 58.5981-14.8111Q60.5334-12.9533 63.4019-12.9533Q66.264-12.9533 68.2075-14.8113Q70.1509-16.6692 70.1509-19.4745L70.1509-28.46L79.1309-28.46Q81.9417-28.46 83.7968-30.398Q85.6518-32.3359 85.6518-35.1986Q85.6518-38.0666 83.7968-40.0071Q81.9417-41.9477 79.1309-41.9477L70.1509-41.9477L70.1509-50.9276Q70.1509-53.7385 68.2075-55.5964Q66.264-57.4544 63.4019-57.4544Q60.5334-57.4544 58.5981-55.5966Q56.6629-53.7388 56.6629-50.9276L56.6629-41.9477L47.683-41.9477Q44.867-41.9477 43.0117-40.0071Q41.1565-38.0666 41.1565-35.1986Z"/>
  </g>
  <g id="Heavy-M" transform="matrix(1 0 0 1 2574.03 1126)">
   <path d="M20.0115-48.0097Q27.5595-48.0097 27.5595-55.62L27.5595-65.0745Q27.5595-67.8347 28.8804-69.0601Q30.2012-70.2856 32.7568-70.2856L42.29-70.2856Q49.9004-70.2856 49.9004-77.8361Q49.9004-85.4004 42.29-85.4004L30.7128-85.4004Q21.9913-85.4004 17.2261-80.6515Q12.4609-75.9026 12.4609-67.1997L12.4609-55.62Q12.4609-48.0097 20.0115-48.0097ZM105.303-48.0097Q112.854-48.0097 112.854-55.62L112.854-67.1997Q112.854-75.9001 108.097-80.6503Q103.34-85.4004 94.6019-85.4004L83.0246-85.4004Q75.4143-85.4004 75.4143-77.8361Q75.4143-70.2856 83.0246-70.2856L92.5579-70.2856Q95.1498-70.2856 96.4525-69.0601Q97.7552-67.8347 97.7552-65.0745L97.7552-55.62Q97.7552-48.0097 105.303-48.0097ZM30.7128 15.0086L42.29 15.0086Q49.9004 15.0086 49.9004 7.46056Q49.9004-0.106189 42.29-0.106189L32.7568-0.106189Q30.2012-0.106189 28.8804-1.34535Q27.5595-2.58452 27.5595-5.31969L27.5595-14.7555Q27.5595-22.3846 20.0115-22.3846Q12.4609-22.3846 12.4609-14.7555L12.4609-3.19209Q12.4609 5.51078 17.2261 10.2597Q21.9913 15.0086 30.7128 15.0086ZM83.0246 15.0086L94.6019 15.0086Q103.34 15.0086 108.097 10.2585Q112.854 5.50834 112.854-3.19209L112.854-14.7555Q112.854-22.3846 105.303-22.3846Q97.7552-22.3846 97.7552-14.7555L97.7552-5.31969Q97.7552-2.58452 96.4525-1.34535Q95.1498-0.106189 92.5579-0.106189L83.0246-0.106189Q75.4143-0.106189 75.4143 7.46056Q75.4143 15.0086 83.0246 15.0086ZM40.3219-35.1959Q40.3219-32.5878 42.0105-30.8419Q43.6991-29.096 46.2984-29.096L56.5494-29.096L56.5494-18.8289Q56.5494-16.2644 58.2871-14.5677Q60.0249-12.871 62.6468-12.871Q65.2597-12.871 67.0219-14.5665Q68.784-16.262 68.784-18.8289L68.784-29.096L79.0349-29.096Q81.6181-29.096 83.3066-30.8419Q84.9952-32.5878 84.9952-35.1959Q84.9952-37.8227 83.3066-39.5779Q81.6181-41.3331 79.0349-41.3331L68.784-41.3331L68.784-51.584Q68.784-54.1672 67.0219-55.8626Q65.2597-57.5581 62.6468-57.5581Q60.0249-57.5581 58.2871-55.8614Q56.5494-54.1647 56.5494-51.584L56.5494-41.3331L46.2984-41.3331Q43.6966-41.3331 42.0093-39.5779Q40.3219-37.8227 40.3219-35.1959Z"/>
  </g>
  <g id="Bold-M" transform="matrix(1 0 0 1 2278.16 1126)">
   <path d="M18.7604-49.3546Q25.0543-49.3546 25.0543-55.7108L25.0543-65.8971Q25.0543-68.9993 26.5989-70.4727Q28.1436-71.9461 31.0806-71.9461L41.4026-71.9461Q47.7588-71.9461 47.7588-78.2456Q47.7588-84.5677 41.4026-84.5677L29.6999-84.5677Q21.3597-84.5677 16.9103-80.1466Q12.4609-75.7254 12.4609-67.419L12.4609-55.7108Q12.4609-49.3546 18.7604-49.3546ZM104.883-49.3546Q111.183-49.3546 111.183-55.7108L111.183-67.419Q111.183-75.7199 106.747-80.1438Q102.312-84.5677 93.9436-84.5677L82.2409-84.5677Q75.8847-84.5677 75.8847-78.2456Q75.8847-71.9461 82.2409-71.9461L92.5629-71.9461Q95.5119-71.9461 97.0505-70.4727Q98.5891-68.9993 98.5891-65.8971L98.5891-55.7108Q98.5891-49.3546 104.883-49.3546ZM29.6999 14.1821L41.4026 14.1821Q47.7588 14.1821 47.7588 7.88816Q47.7588 1.56047 41.4026 1.56047L31.0806 1.56047Q28.1436 1.56047 26.5989 0.0869096Q25.0543-1.38665 25.0543-4.49403L25.0543-14.6466Q25.0543-21.0366 18.7604-21.0366Q12.4609-21.0366 12.4609-14.6466L12.4609-2.9666Q12.4609 5.33977 16.9103 9.76093Q21.3597 14.1821 29.6999 14.1821ZM82.2409 14.1821L93.9436 14.1821Q102.312 14.1821 106.747 9.75817Q111.183 5.33425 111.183-2.9666L111.183-14.6466Q111.183-21.0366 104.883-21.0366Q98.5891-21.0366 98.5891-14.6466L98.5891-4.49403Q98.5891-1.38665 97.0505 0.0869096Q95.5119 1.56047 92.5629 1.56047L82.2409 1.56047Q75.8847 1.56047 75.8847 7.88816Q75.8847 14.1821 82.2409 14.1821ZM39.3883-35.1928Q39.3883-32.8696 40.8906-31.3386Q42.393-29.8075 44.7496-29.8075L56.4223-29.8075L56.4223-18.1066Q56.4223-15.8119 57.9392-14.2955Q59.4561-12.779 61.8021-12.779Q64.1364-12.779 65.6956-14.2927Q67.2549-15.8064 67.2549-18.1066L67.2549-29.8075L78.9276-29.8075Q81.256-29.8075 82.7583-31.3386Q84.2607-32.8696 84.2607-35.1928Q84.2607-37.5498 82.7583-39.0977Q81.256-40.6456 78.9276-40.6456L67.2549-40.6456L67.2549-52.3183Q67.2549-54.6468 65.6956-56.1604Q64.1364-57.6741 61.8021-57.6741Q59.4561-57.6741 57.9392-56.1577Q56.4223-54.6412 56.4223-52.3183L56.4223-40.6456L44.7496-40.6456Q42.3874-40.6456 40.8879-39.0977Q39.3883-37.5498 39.3883-35.1928Z"/>
  </g>
  <g id="Semibold-M" transform="matrix(1 0 0 1 1982.02 1126)">
   <path d="M17.8979-50.2818Q23.3273-50.2818 23.3273-55.7734L23.3273-66.4642Q23.3273-69.8022 25.0262-71.4465Q26.725-73.0909 29.925-73.0909L40.7907-73.0909Q46.2824-73.0909 46.2824-78.5278Q46.2824-83.9937 40.7907-83.9937L29.0015-83.9937Q20.9244-83.9937 16.6926-79.7985Q12.4609-75.6033 12.4609-67.5703L12.4609-55.7734Q12.4609-50.2818 17.8979-50.2818ZM104.593-50.2818Q110.03-50.2818 110.03-55.7734L110.03-67.5703Q110.03-75.5956 105.817-79.7947Q101.603-83.9937 93.4898-83.9937L81.7006-83.9937Q76.2089-83.9937 76.2089-78.5278Q76.2089-73.0909 81.7006-73.0909L92.5663-73.0909Q95.7615-73.0909 97.4628-71.4465Q99.1641-69.8022 99.1641-66.4642L99.1641-55.7734Q99.1641-50.2818 104.593-50.2818ZM29.0015 13.6123L40.7907 13.6123Q46.2824 13.6123 46.2824 8.18294Q46.2824 2.70946 40.7907 2.70946L29.925 2.70946Q26.725 2.70946 25.0262 1.0743Q23.3273-0.560853 23.3273-3.92482L23.3273-14.5715Q23.3273-20.1073 17.8979-20.1073Q12.4609-20.1073 12.4609-14.5715L12.4609-2.81114Q12.4609 5.22188 16.6926 9.41708Q20.9244 13.6123 29.0015 13.6123ZM81.7006 13.6123L93.4898 13.6123Q101.603 13.6123 105.817 9.41326Q110.03 5.21424 110.03-2.81114L110.03-14.5715Q110.03-20.1073 104.593-20.1073Q99.1641-20.1073 99.1641-14.5715L99.1641-3.92482Q99.1641-0.560853 97.4628 1.0743Q95.7615 2.70946 92.5663 2.70946L81.7006 2.70946Q76.2089 2.70946 76.2089 8.18294Q76.2089 13.6123 81.7006 13.6123ZM38.7447-35.1907Q38.7447-33.0638 40.1186-31.6809Q41.4925-30.298 43.6819-30.298L56.3347-30.298L56.3347-17.6087Q56.3347-15.5 57.6994-14.1078Q59.064-12.7156 61.2198-12.7156Q63.3619-12.7156 64.7813-14.104Q66.2007-15.4923 66.2007-17.6087L66.2007-30.298L78.8536-30.298Q81.0064-30.298 82.3804-31.6809Q83.7543-33.0638 83.7543-35.1907Q83.7543-37.3617 82.3804-38.7667Q81.0064-40.1717 78.8536-40.1717L66.2007-40.1717L66.2007-52.8245Q66.2007-54.9774 64.7813-56.3657Q63.3619-57.7541 61.2198-57.7541Q59.064-57.7541 57.6994-56.3619Q56.3347-54.9697 56.3347-52.8245L56.3347-40.1717L43.6819-40.1717Q41.4849-40.1717 40.1148-38.7667Q38.7447-37.3617 38.7447-35.1907Z"/>
  </g>
  <g id="Medium-M" transform="matrix(1 0 0 1 1685.75 1126)">
   <path d="M17.244-50.9848Q22.0177-50.9848 22.0177-55.8208L22.0177-66.8942Q22.0177-70.411 23.8336-72.1849Q25.6495-73.9589 29.0488-73.9589L40.3268-73.9589Q45.1629-73.9589 45.1629-78.7419Q45.1629-83.5584 40.3268-83.5584L28.472-83.5584Q20.5942-83.5584 16.5276-79.5345Q12.4609-75.5107 12.4609-67.6849L12.4609-55.8208Q12.4609-50.9848 17.244-50.9848ZM104.374-50.9848Q109.157-50.9848 109.157-55.8208L109.157-67.6849Q109.157-75.5014 105.112-79.5299Q101.066-83.5584 93.1457-83.5584L81.2909-83.5584Q76.4548-83.5584 76.4548-78.7419Q76.4548-73.9589 81.2909-73.9589L92.5689-73.9589Q95.9508-73.9589 97.7754-72.1849Q99.6-70.411 99.6-66.8942L99.6-55.8208Q99.6-50.9848 104.374-50.9848ZM28.472 13.1802L40.3268 13.1802Q45.1629 13.1802 45.1629 8.40646Q45.1629 3.58067 40.3268 3.58067L29.0488 3.58067Q25.6495 3.58067 23.8336 1.82299Q22.0177 0.065304 22.0177-3.49323L22.0177-14.5146Q22.0177-19.4027 17.244-19.4027Q12.4609-19.4027 12.4609-14.5146L12.4609-2.69327Q12.4609 5.13249 16.5276 9.15636Q20.5942 13.1802 28.472 13.1802ZM81.2909 13.1802L93.1457 13.1802Q101.066 13.1802 105.112 9.15173Q109.157 5.12324 109.157-2.69327L109.157-14.5146Q109.157-19.4027 104.374-19.4027Q99.6-19.4027 99.6-14.5146L99.6-3.49323Q99.6 0.065304 97.7754 1.82299Q95.9508 3.58067 92.5689 3.58067L81.2909 3.58067Q76.4548 3.58067 76.4548 8.40646Q76.4548 13.1802 81.2909 13.1802ZM38.2567-35.1891Q38.2567-33.2111 39.5332-31.9405Q40.8098-30.6699 42.8723-30.6699L56.2683-30.6699L56.2683-17.2311Q56.2683-15.2634 57.5175-13.9655Q58.7667-12.6675 60.7782-12.6675Q62.7747-12.6675 64.0881-13.9609Q65.4014-15.2542 65.4014-17.2311L65.4014-30.6699L78.7975-30.6699Q80.8172-30.6699 82.0938-31.9405Q83.3703-33.2111 83.3703-35.1891Q83.3703-37.2191 82.0938-38.5157Q80.8172-39.8123 78.7975-39.8123L65.4014-39.8123L65.4014-53.2083Q65.4014-55.2281 64.0881-56.5214Q62.7747-57.8147 60.7782-57.8147Q58.7667-57.8147 57.5175-56.5168Q56.2683-55.2188 56.2683-53.2083L56.2683-39.8123L42.8723-39.8123Q40.8005-39.8123 39.5286-38.5157Q38.2567-37.2191 38.2567-35.1891Z"/>
  </g>
  <g id="Regular-M" transform="matrix(1 0 0 1 1389.61 1126)">
   <path d="M16.391-51.9018Q20.3096-51.9018 20.3096-55.8827L20.3096-67.4551Q20.3096-71.2051 22.2781-73.148Q24.2465-75.091 27.906-75.091L39.7217-75.091Q43.7027-75.091 43.7027-79.021Q43.7027-82.9907 39.7217-82.9907L27.7814-82.9907Q20.1637-82.9907 16.3123-79.1903Q12.4609-75.3899 12.4609-67.8345L12.4609-55.8827Q12.4609-51.9018 16.391-51.9018ZM104.087-51.9018Q108.017-51.9018 108.017-55.8827L108.017-67.8345Q108.017-75.3785 104.191-79.1846Q100.366-82.9907 92.6969-82.9907L80.7565-82.9907Q76.7755-82.9907 76.7755-79.021Q76.7755-75.091 80.7565-75.091L92.5723-75.091Q96.1977-75.091 98.1832-73.148Q100.169-71.2051 100.169-67.4551L100.169-55.8827Q100.169-51.9018 104.087-51.9018ZM27.7814 12.6167L39.7217 12.6167Q43.7027 12.6167 43.7027 8.69801Q43.7027 4.71703 39.7217 4.71703L27.906 4.71703Q24.2465 4.71703 22.2781 2.79953Q20.3096 0.88203 20.3096-2.93028L20.3096-14.4403Q20.3096-18.4836 16.391-18.4836Q12.4609-18.4836 12.4609-14.4403L12.4609-2.53953Q12.4609 5.01589 16.3123 8.81628Q20.1637 12.6167 27.7814 12.6167ZM80.7565 12.6167L92.6969 12.6167Q100.366 12.6167 104.191 8.81061Q108.017 5.00454 108.017-2.53953L108.017-14.4403Q108.017-18.4836 104.087-18.4836Q100.169-18.4836 100.169-14.4403L100.169-2.93028Q100.169 0.88203 98.1832 2.79953Q96.1977 4.71703 92.5723 4.71703L80.7565 4.71703Q76.7755 4.71703 76.7755 8.69801Q76.7755 12.6167 80.7565 12.6167ZM37.6201-35.187Q37.6201-33.4032 38.7697-32.2791Q39.9192-31.1551 41.8163-31.1551L56.1817-31.1551L56.1817-16.7387Q56.1817-14.9549 57.2803-13.7799Q58.3789-12.6048 60.2023-12.6048Q62.0088-12.6048 63.1838-13.7742Q64.3589-14.9435 64.3589-16.7387L64.3589-31.1551L78.7243-31.1551Q80.5704-31.1551 81.7199-32.2791Q82.8695-33.4032 82.8695-35.187Q82.8695-37.0331 81.7199-38.1883Q80.5704-39.3435 78.7243-39.3435L64.3589-39.3435L64.3589-53.709Q64.3589-55.555 63.1838-56.7244Q62.0088-57.8938 60.2023-57.8938Q58.3789-57.8938 57.2803-56.7187Q56.1817-55.5437 56.1817-53.709L56.1817-39.3435L41.8163-39.3435Q39.9079-39.3435 38.764-38.1883Q37.6201-37.0331 37.6201-35.187Z"/>
  </g>
  <g id="Light-M" transform="matrix(1 0 0 1 1093.97 1126)">
   <path d="M15.4894-52.0122Q18.4881-52.0122 18.4881-55.0732L18.4881-67.3263Q18.4881-71.4994 20.6682-73.6632Q22.8482-75.827 26.986-75.827L39.3722-75.827Q42.4332-75.827 42.4332-78.8554Q42.4332-81.8867 39.3722-81.8867L26.8614-81.8867Q19.7221-81.8867 16.0915-78.2887Q12.4609-74.6907 12.4609-67.6137L12.4609-55.0732Q12.4609-52.0122 15.4894-52.0122ZM102.836-52.0122Q105.865-52.0122 105.865-55.0732L105.865-67.6137Q105.865-74.661 102.25-78.2738Q98.6361-81.8867 91.4642-81.8867L78.9534-81.8867Q75.8924-81.8867 75.8924-78.8554Q75.8924-75.827 78.9534-75.827L91.3396-75.827Q95.3881-75.827 97.6128-73.6632Q99.8375-71.4994 99.8375-67.3263L99.8375-55.0732Q99.8375-52.0122 102.836-52.0122ZM26.8614 11.5495L39.3722 11.5495Q42.4332 11.5495 42.4332 8.55082Q42.4332 5.48979 39.3722 5.48979L26.986 5.48979Q22.8482 5.48979 20.6682 3.3423Q18.4881 1.19481 18.4881-3.04067L18.4881-15.2314Q18.4881-18.3548 15.4894-18.3548Q12.4609-18.3548 12.4609-15.2314L12.4609-2.72352Q12.4609 4.35352 16.0915 7.95153Q19.7221 11.5495 26.8614 11.5495ZM78.9534 11.5495L91.4642 11.5495Q98.6361 11.5495 102.25 7.93666Q105.865 4.32378 105.865-2.72352L105.865-15.2314Q105.865-18.3548 102.836-18.3548Q99.8375-18.3548 99.8375-15.2314L99.8375-3.04067Q99.8375 1.19481 97.6128 3.3423Q95.3881 5.48979 91.3396 5.48979L78.9534 5.48979Q75.8924 5.48979 75.8924 8.55082Q75.8924 11.5495 78.9534 11.5495ZM36.9946-35.1686Q36.9946-33.8264 37.8865-32.9507Q38.7785-32.075 40.2156-32.075L56.0529-32.075L56.0529-16.2051Q56.0529-14.8629 56.9123-13.9546Q57.7718-13.0464 59.1168-13.0464Q60.5184-13.0464 61.4267-13.9398Q62.335-14.8332 62.335-16.2051L62.335-32.075L78.1723-32.075Q79.5768-32.075 80.4688-32.9507Q81.3608-33.8264 81.3608-35.1686Q81.3608-36.5731 80.4688-37.4799Q79.5768-38.3868 78.1723-38.3868L62.335-38.3868L62.335-54.2241Q62.335-55.6286 61.4267-56.522Q60.5184-57.4154 59.1168-57.4154Q57.7718-57.4154 56.9123-56.5072Q56.0529-55.5989 56.0529-54.2241L56.0529-38.3868L40.2156-38.3868Q38.7488-38.3868 37.8717-37.4799Q36.9946-36.5731 36.9946-35.1686Z"/>
  </g>
  <g id="Thin-M" transform="matrix(1 0 0 1 798.688 1126)">
   <path d="M14.297-52.1582Q16.079-52.1582 16.079-54.0025L16.079-67.1559Q16.079-71.8888 18.5389-74.3446Q20.9988-76.8003 25.7693-76.8003L38.9098-76.8003Q40.7541-76.8003 40.7541-78.6364Q40.7541-80.4267 38.9098-80.4267L25.6447-80.4267Q19.1381-80.4267 15.7995-77.0963Q12.4609-73.766 12.4609-67.3217L12.4609-54.0025Q12.4609-52.1582 14.297-52.1582ZM101.181-52.1582Q103.018-52.1582 103.018-54.0025L103.018-67.3217Q103.018-73.7119 99.6831-77.0693Q96.3487-80.4267 89.8338-80.4267L76.5687-80.4267Q74.7244-80.4267 74.7244-78.6364Q74.7244-76.8003 76.5687-76.8003L89.7092-76.8003Q94.3174-76.8003 96.8584-74.3446Q99.3994-71.8888 99.3994-67.1559L99.3994-54.0025Q99.3994-52.1582 101.181-52.1582ZM25.6447 10.1382L38.9098 10.1382Q40.7541 10.1382 40.7541 8.35614Q40.7541 6.51182 38.9098 6.51182L25.7693 6.51182Q20.9988 6.51182 18.5389 4.06016Q16.079 1.60849 16.079-3.18668L16.079-16.2778Q16.079-18.1844 14.297-18.1844Q12.4609-18.1844 12.4609-16.2778L12.4609-2.96686Q12.4609 3.47749 15.7995 6.80782Q19.1381 10.1382 25.6447 10.1382ZM76.5687 10.1382L89.8338 10.1382Q96.3487 10.1382 99.6831 6.78078Q103.018 3.42341 103.018-2.96686L103.018-16.2778Q103.018-18.1844 101.181-18.1844Q99.3994-18.1844 99.3994-16.2778L99.3994-3.18668Q99.3994 1.60849 96.8584 4.06016Q94.3174 6.51182 89.7092 6.51182L76.5687 6.51182Q74.7244 6.51182 74.7244 8.35614Q74.7244 10.1382 76.5687 10.1382ZM36.1672-35.1443Q36.1672-34.3861 36.7185-33.8389Q37.2698-33.2917 38.0985-33.2917L55.8826-33.2917L55.8826-15.4994Q55.8826-14.7412 56.4257-14.1858Q56.9687-13.6304 57.6811-13.6304Q58.5474-13.6304 59.1028-14.1588Q59.6582-14.6872 59.6582-15.4994L59.6582-33.2917L77.4423-33.2917Q78.2628-33.2917 78.8141-33.8389Q79.3654-34.3861 79.3654-35.1443Q79.3654-35.9647 78.8141-36.5431Q78.2628-37.1214 77.4423-37.1214L59.6582-37.1214L59.6582-54.9055Q59.6582-55.726 59.1028-56.2544Q58.5474-56.7827 57.6811-56.7827Q56.9687-56.7827 56.4257-56.2273Q55.8826-55.6719 55.8826-54.9055L55.8826-37.1214L38.0985-37.1214Q37.2157-37.1214 36.6915-36.5431Q36.1672-35.9647 36.1672-35.1443Z"/>
  </g>
  <g id="Ultralight-M" transform="matrix(1 0 0 1 502.707 1126)">
   <path d="M13.6863-52.2329Q14.8451-52.2329 14.8451-53.4541L14.8451-67.0687Q14.8451-72.0882 17.4483-74.6936Q20.0516-77.2989 25.1461-77.2989L38.673-77.2989Q39.8941-77.2989 39.8941-78.5243Q39.8941-79.6788 38.673-79.6788L25.0215-79.6788Q18.8389-79.6788 15.6499-76.4856Q12.4609-73.2924 12.4609-67.1721L12.4609-53.4541Q12.4609-52.2329 13.6863-52.2329ZM100.334-52.2329Q101.559-52.2329 101.559-53.4541L101.559-67.1721Q101.559-73.2258 98.3682-76.4523Q95.1771-79.6788 88.9987-79.6788L75.3472-79.6788Q74.1261-79.6788 74.1261-78.5243Q74.1261-77.2989 75.3472-77.2989L88.8741-77.2989Q93.769-77.2989 96.4721-74.6936Q99.1751-72.0882 99.1751-67.0687L99.1751-53.4541Q99.1751-52.2329 100.334-52.2329ZM25.0215 9.41525L38.673 9.41525Q39.8941 9.41525 39.8941 8.25643Q39.8941 7.0353 38.673 7.0353L25.1461 7.0353Q20.0516 7.0353 17.4483 4.42784Q14.8451 1.82038 14.8451-3.26146L14.8451-16.8138Q14.8451-18.0972 13.6863-18.0972Q12.4609-18.0972 12.4609-16.8138L12.4609-3.0915Q12.4609 3.02879 15.6499 6.22202Q18.8389 9.41525 25.0215 9.41525ZM75.3472 9.41525L88.9987 9.41525Q95.1771 9.41525 98.3682 6.18875Q101.559 2.96225 101.559-3.0915L101.559-16.8138Q101.559-18.0972 100.334-18.0972Q99.1751-18.0972 99.1751-16.8138L99.1751-3.26146Q99.1751 1.82038 96.4721 4.42784Q93.769 7.0353 88.8741 7.0353L75.3472 7.0353Q74.1261 7.0353 74.1261 8.25643Q74.1261 9.41525 75.3472 9.41525ZM35.7434-35.1318Q35.7434-34.6728 36.1202-34.2938Q36.497-33.9149 37.0141-33.9149L55.7953-33.9149L55.7953-15.1379Q55.7953-14.6789 56.1764-14.3042Q56.5574-13.9295 56.9457-13.9295Q57.5378-13.9295 57.9125-14.271Q58.2872-14.6124 58.2872-15.1379L58.2872-33.9149L77.0684-33.9149Q77.5897-33.9149 77.9665-34.2938Q78.3433-34.6728 78.3433-35.1318Q78.3433-35.6531 77.9665-36.0632Q77.5897-36.4733 77.0684-36.4733L58.2872-36.4733L58.2872-55.2545Q58.2872-55.7758 57.9125-56.1173Q57.5378-56.4587 56.9457-56.4587Q56.5574-56.4587 56.1764-56.084Q55.7953-55.7093 55.7953-55.2545L55.7953-36.4733L37.0141-36.4733Q36.4305-36.4733 36.087-36.0632Q35.7434-35.6531 35.7434-35.1318Z"/>
  </g>
  <g id="Black-S" transform="matrix(1 0 0 1 2883.55 696)">
   <path d="M16.8457-43.9453Q23.9258-43.9453 23.9258-51.0742L23.9258-57.8125Q23.9258-59.668 24.7559-60.4004Q25.5859-61.1328 27.2461-61.1328L33.9844-61.1328Q41.1133-61.1328 41.1133-68.2129Q41.1133-75.293 33.9844-75.293L25-75.293Q17.8223-75.293 13.7939-71.2646Q9.76562-67.2363 9.76562-60.0586L9.76562-51.0742Q9.76562-43.9453 16.8457-43.9453ZM82.8613-43.9453Q89.9414-43.9453 89.9414-51.0742L89.9414-60.0586Q89.9414-67.2363 85.9131-71.2646Q81.8848-75.293 74.707-75.293L65.7227-75.293Q58.5938-75.293 58.5938-68.2129Q58.5938-61.1328 65.7227-61.1328L72.4609-61.1328Q74.1699-61.1328 74.9756-60.4004Q75.7812-59.668 75.7812-57.8125L75.7812-51.0742Q75.7812-43.9453 82.8613-43.9453ZM25 4.88281L33.9844 4.88281Q41.1133 4.88281 41.1133-2.19727Q41.1133-9.27734 33.9844-9.27734L27.2461-9.27734Q25.5859-9.27734 24.7559-10.0342Q23.9258-10.791 23.9258-12.5977L23.9258-19.3359Q23.9258-26.4648 16.8457-26.4648Q9.76562-26.4648 9.76562-19.3359L9.76562-10.3516Q9.76562-3.17383 13.7939 0.854492Q17.8223 4.88281 25 4.88281ZM65.7227 4.88281L74.707 4.88281Q81.8848 4.88281 85.9131 0.854492Q89.9414-3.17383 89.9414-10.3516L89.9414-19.3359Q89.9414-26.4648 82.8613-26.4648Q75.7812-26.4648 75.7812-19.3359L75.7812-12.5977Q75.7812-10.791 74.9756-10.0342Q74.1699-9.27734 72.4609-9.27734L65.7227-9.27734Q58.5938-9.27734 58.5938-2.19727Q58.5938 4.88281 65.7227 4.88281ZM32.4707-35.2051Q32.4707-32.9102 33.96-31.3477Q35.4492-29.7852 37.6953-29.7852L44.4336-29.7852L44.4336-23.0469Q44.4336-20.8008 45.9961-19.3115Q47.5586-17.8223 49.8535-17.8223Q52.1484-17.8223 53.7109-19.3115Q55.2734-20.8008 55.2734-23.0469L55.2734-29.7852L62.0117-29.7852Q64.2578-29.7852 65.7471-31.3477Q67.2363-32.9102 67.2363-35.2051Q67.2363-37.5 65.7471-39.0625Q64.2578-40.625 62.0117-40.625L55.2734-40.625L55.2734-47.3633Q55.2734-49.6094 53.7109-51.0986Q52.1484-52.5879 49.8535-52.5879Q47.5586-52.5879 45.9961-51.0986Q44.4336-49.6094 44.4336-47.3633L44.4336-40.625L37.6953-40.625Q35.4492-40.625 33.96-39.0625Q32.4707-37.5 32.4707-35.2051Z"/>
  </g>
  <g id="Heavy-S" transform="matrix(1 0 0 1 2587.34 696)">
   <path d="M16.0044-44.9595Q22.2432-44.9595 22.2432-51.2471L22.2432-58.4579Q22.2432-60.5208 23.2173-61.4145Q24.1915-62.3083 26.0821-62.3083L33.3505-62.3083Q39.6381-62.3083 39.6381-68.5471Q39.6381-74.7974 33.3505-74.7974L24.3431-74.7974Q17.3959-74.7974 13.5807-70.9938Q9.76562-67.1902 9.76562-60.2545L9.76562-51.2471Q9.76562-44.9595 16.0044-44.9595ZM82.7-44.9595Q88.9388-44.9595 88.9388-51.2471L88.9388-60.2545Q88.9388-67.1902 85.1294-70.9938Q81.3201-74.7974 74.3613-74.7974L65.3539-74.7974Q59.0663-74.7974 59.0663-68.5471Q59.0663-62.3083 65.3539-62.3083L72.6223-62.3083Q74.5502-62.3083 75.5057-61.4145Q76.4612-60.5208 76.4612-58.4579L76.4612-51.2471Q76.4612-44.9595 82.7-44.9595ZM24.3431 4.38726L33.3505 4.38726Q39.6381 4.38726 39.6381-1.85153Q39.6381-8.10185 33.3505-8.10185L26.0821-8.10185Q24.1915-8.10185 23.2173-9.0085Q22.2432-9.91516 22.2432-11.9523L22.2432-19.1515Q22.2432-25.4507 16.0044-25.4507Q9.76562-25.4507 9.76562-19.1515L9.76562-10.1556Q9.76562-3.21993 13.5807 0.583667Q17.3959 4.38726 24.3431 4.38726ZM65.3539 4.38726L74.3613 4.38726Q81.3201 4.38726 85.1294 0.583667Q88.9388-3.21993 88.9388-10.1556L88.9388-19.1515Q88.9388-25.4507 82.7-25.4507Q76.4612-25.4507 76.4612-19.1515L76.4612-11.9523Q76.4612-9.91516 75.5057-9.0085Q74.5502-8.10185 72.6223-8.10185L65.3539-8.10185Q59.0663-8.10185 59.0663-1.85153Q59.0663 4.38726 65.3539 4.38726ZM31.8369-35.2051Q31.8369-33.0715 33.2166-31.6415Q34.5964-30.2116 36.7157-30.2116L44.3529-30.2116L44.3529-22.5628Q44.3529-20.4666 45.7771-19.081Q47.2013-17.6955 49.3464-17.6955Q51.48-17.6955 52.9215-19.081Q54.363-20.4666 54.363-22.5628L54.363-30.2116L62.0002-30.2116Q64.108-30.2116 65.4878-31.6415Q66.8675-33.0715 66.8675-35.2051Q66.8675-37.3502 65.4878-38.7859Q64.108-40.2216 62.0002-40.2216L54.363-40.2216L54.363-47.8588Q54.363-49.9666 52.9215-51.3522Q51.48-52.7377 49.3464-52.7377Q47.2013-52.7377 45.7771-51.3522Q44.3529-49.9666 44.3529-47.8588L44.3529-40.2216L36.7157-40.2216Q34.5964-40.2216 33.2166-38.7859Q31.8369-37.3502 31.8369-35.2051Z"/>
  </g>
  <g id="Bold-S" transform="matrix(1 0 0 1 2291.19 696)">
   <path d="M15.0635-46.0938Q20.3613-46.0938 20.3613-51.4404L20.3613-59.1797Q20.3613-61.4746 21.4966-62.5488Q22.6318-63.623 24.7803-63.623L32.6416-63.623Q37.9883-63.623 37.9883-68.9209Q37.9883-74.2432 32.6416-74.2432L23.6084-74.2432Q16.9189-74.2432 13.3423-70.6909Q9.76562-67.1387 9.76562-60.4736L9.76562-51.4404Q9.76562-46.0938 15.0635-46.0938ZM82.5195-46.0938Q87.8174-46.0938 87.8174-51.4404L87.8174-60.4736Q87.8174-67.1387 84.2529-70.6909Q80.6885-74.2432 73.9746-74.2432L64.9414-74.2432Q59.5947-74.2432 59.5947-68.9209Q59.5947-63.623 64.9414-63.623L72.8027-63.623Q74.9756-63.623 76.0986-62.5488Q77.2217-61.4746 77.2217-59.1797L77.2217-51.4404Q77.2217-46.0938 82.5195-46.0938ZM23.6084 3.83301L32.6416 3.83301Q37.9883 3.83301 37.9883-1.46484Q37.9883-6.78711 32.6416-6.78711L24.7803-6.78711Q22.6318-6.78711 21.4966-7.86133Q20.3613-8.93555 20.3613-11.2305L20.3613-18.9453Q20.3613-24.3164 15.0635-24.3164Q9.76562-24.3164 9.76562-18.9453L9.76562-9.93652Q9.76562-3.27148 13.3423 0.280762Q16.9189 3.83301 23.6084 3.83301ZM64.9414 3.83301L73.9746 3.83301Q80.6885 3.83301 84.2529 0.280762Q87.8174-3.27148 87.8174-9.93652L87.8174-18.9453Q87.8174-24.3164 82.5195-24.3164Q77.2217-24.3164 77.2217-18.9453L77.2217-11.2305Q77.2217-8.93555 76.0986-7.86133Q74.9756-6.78711 72.8027-6.78711L64.9414-6.78711Q59.5947-6.78711 59.5947-1.46484Q59.5947 3.83301 64.9414 3.83301ZM31.1279-35.2051Q31.1279-33.252 32.3853-31.9702Q33.6426-30.6885 35.6201-30.6885L44.2627-30.6885L44.2627-22.0215Q44.2627-20.0928 45.5322-18.8232Q46.8018-17.5537 48.7793-17.5537Q50.7324-17.5537 52.0386-18.8232Q53.3447-20.0928 53.3447-22.0215L53.3447-30.6885L61.9873-30.6885Q63.9404-30.6885 65.1978-31.9702Q66.4551-33.252 66.4551-35.2051Q66.4551-37.1826 65.1978-38.4766Q63.9404-39.7705 61.9873-39.7705L53.3447-39.7705L53.3447-48.4131Q53.3447-50.3662 52.0386-51.6357Q50.7324-52.9053 48.7793-52.9053Q46.8018-52.9053 45.5322-51.6357Q44.2627-50.3662 44.2627-48.4131L44.2627-39.7705L35.6201-39.7705Q33.6426-39.7705 32.3853-38.4766Q31.1279-37.1826 31.1279-35.2051Z"/>
  </g>
  <g id="Semibold-S" transform="matrix(1 0 0 1 1994.86 696)">
   <path d="M14.4147-46.8758Q19.0639-46.8758 19.0639-51.5737L19.0639-59.6773Q19.0639-62.1322 20.3102-63.3309Q21.5565-64.5295 23.8827-64.5295L32.1528-64.5295Q36.8508-64.5295 36.8508-69.1786Q36.8508-73.861 32.1528-73.861L23.1019-73.861Q16.5901-73.861 13.1779-70.4821Q9.76562-67.1031 9.76562-60.6247L9.76562-51.5737Q9.76562-46.8758 14.4147-46.8758ZM82.3951-46.8758Q87.0442-46.8758 87.0442-51.5737L87.0442-60.6247Q87.0442-67.1031 83.6486-70.4821Q80.253-73.861 73.708-73.861L64.657-73.861Q59.9591-73.861 59.9591-69.1786Q59.9591-64.5295 64.657-64.5295L72.9271-64.5295Q75.2688-64.5295 76.5074-63.3309Q77.746-62.1322 77.746-59.6773L77.746-51.5737Q77.746-46.8758 82.3951-46.8758ZM23.1019 3.45088L32.1528 3.45088Q36.8508 3.45088 36.8508-1.19824Q36.8508-5.88066 32.1528-5.88066L23.8827-5.88066Q21.5565-5.88066 20.3102-7.07041Q19.0639-8.26016 19.0639-10.7328L19.0639-18.8031Q19.0639-23.5344 14.4147-23.5344Q9.76562-23.5344 9.76562-18.8031L9.76562-9.78545Q9.76562-3.30703 13.1779 0.0719238Q16.5901 3.45088 23.1019 3.45088ZM64.657 3.45088L73.708 3.45088Q80.253 3.45088 83.6486 0.0719238Q87.0442-3.30703 87.0442-9.78545L87.0442-18.8031Q87.0442-23.5344 82.3951-23.5344Q77.746-23.5344 77.746-18.8031L77.746-10.7328Q77.746-8.26016 76.5074-7.07041Q75.2688-5.88066 72.9271-5.88066L64.657-5.88066Q59.9591-5.88066 59.9591-1.19824Q59.9591 3.45088 64.657 3.45088ZM30.6392-35.2051Q30.6392-33.3764 31.8121-32.1968Q32.985-31.0173 34.8647-31.0173L44.2005-31.0173L44.2005-21.6482Q44.2005-19.8351 45.3634-18.6455Q46.5263-17.456 48.3883-17.456Q50.217-17.456 51.4298-18.6455Q52.6427-19.8351 52.6427-21.6482L52.6427-31.0173L61.9784-31.0173Q63.8249-31.0173 64.9978-32.1968Q66.1707-33.3764 66.1707-35.2051Q66.1707-37.0671 64.9978-38.2633Q63.8249-39.4595 61.9784-39.4595L52.6427-39.4595L52.6427-48.7952Q52.6427-50.6417 51.4298-51.8312Q50.217-53.0208 48.3883-53.0208Q46.5263-53.0208 45.3634-51.8312Q44.2005-50.6417 44.2005-48.7952L44.2005-39.4595L34.8647-39.4595Q32.985-39.4595 31.8121-38.2633Q30.6392-37.0671 30.6392-35.2051Z"/>
  </g>
  <g id="Medium-S" transform="matrix(1 0 0 1 1698.44 696)">
   <path d="M13.9229-47.4688Q18.0801-47.4688 18.0801-51.6748L18.0801-60.0547Q18.0801-62.6309 19.4106-63.9238Q20.7412-65.2168 23.2021-65.2168L31.7822-65.2168Q35.9883-65.2168 35.9883-69.374Q35.9883-73.5713 31.7822-73.5713L22.7178-73.5713Q16.3408-73.5713 13.0532-70.3237Q9.76562-67.0762 9.76562-60.7393L9.76562-51.6748Q9.76562-47.4688 13.9229-47.4688ZM82.3008-47.4688Q86.458-47.4688 86.458-51.6748L86.458-60.7393Q86.458-67.0762 83.1904-70.3237Q79.9229-73.5713 73.5059-73.5713L64.4414-73.5713Q60.2354-73.5713 60.2354-69.374Q60.2354-65.2168 64.4414-65.2168L73.0215-65.2168Q75.4912-65.2168 76.8174-63.9238Q78.1436-62.6309 78.1436-60.0547L78.1436-51.6748Q78.1436-47.4688 82.3008-47.4688ZM22.7178 3.16113L31.7822 3.16113Q35.9883 3.16113 35.9883-0.996094Q35.9883-5.19336 31.7822-5.19336L23.2021-5.19336Q20.7412-5.19336 19.4106-6.4707Q18.0801-7.74805 18.0801-10.3555L18.0801-18.6953Q18.0801-22.9414 13.9229-22.9414Q9.76562-22.9414 9.76562-18.6953L9.76562-9.6709Q9.76562-3.33398 13.0532-0.0864258Q16.3408 3.16113 22.7178 3.16113ZM64.4414 3.16113L73.5059 3.16113Q79.9229 3.16113 83.1904-0.0864258Q86.458-3.33398 86.458-9.6709L86.458-18.6953Q86.458-22.9414 82.3008-22.9414Q78.1436-22.9414 78.1436-18.6953L78.1436-10.3555Q78.1436-7.74805 76.8174-6.4707Q75.4912-5.19336 73.0215-5.19336L64.4414-5.19336Q60.2354-5.19336 60.2354-0.996094Q60.2354 3.16113 64.4414 3.16113ZM30.2686-35.2051Q30.2686-33.4707 31.3774-32.3687Q32.4863-31.2666 34.292-31.2666L44.1533-31.2666L44.1533-21.3652Q44.1533-19.6396 45.2354-18.5107Q46.3174-17.3818 48.0918-17.3818Q49.8262-17.3818 50.9683-18.5107Q52.1104-19.6396 52.1104-21.3652L52.1104-31.2666L61.9717-31.2666Q63.7373-31.2666 64.8462-32.3687Q65.9551-33.4707 65.9551-35.2051Q65.9551-36.9795 64.8462-38.1016Q63.7373-39.2236 61.9717-39.2236L52.1104-39.2236L52.1104-49.085Q52.1104-50.8506 50.9683-51.9795Q49.8262-53.1084 48.0918-53.1084Q46.3174-53.1084 45.2354-51.9795Q44.1533-50.8506 44.1533-49.085L44.1533-39.2236L34.292-39.2236Q32.4863-39.2236 31.3774-38.1016Q30.2686-36.9795 30.2686-35.2051Z"/>
  </g>
  <g id="Regular-S" transform="matrix(1 0 0 1 1402.11 696)">
   <path d="M13.2812-48.2422Q16.7969-48.2422 16.7969-51.8066L16.7969-60.5469Q16.7969-63.2812 18.2373-64.6973Q19.6777-66.1133 22.3145-66.1133L31.2988-66.1133Q34.8633-66.1133 34.8633-69.6289Q34.8633-73.1934 31.2988-73.1934L22.2168-73.1934Q16.0156-73.1934 12.8906-70.1172Q9.76562-67.041 9.76562-60.8887L9.76562-51.8066Q9.76562-48.2422 13.2812-48.2422ZM82.1777-48.2422Q85.6934-48.2422 85.6934-51.8066L85.6934-60.8887Q85.6934-67.041 82.5928-70.1172Q79.4922-73.1934 73.2422-73.1934L64.1602-73.1934Q60.5957-73.1934 60.5957-69.6289Q60.5957-66.1133 64.1602-66.1133L73.1445-66.1133Q75.7812-66.1133 77.2217-64.6973Q78.6621-63.2812 78.6621-60.5469L78.6621-51.8066Q78.6621-48.2422 82.1777-48.2422ZM22.2168 2.7832L31.2988 2.7832Q34.8633 2.7832 34.8633-0.732422Q34.8633-4.29688 31.2988-4.29688L22.3145-4.29688Q19.6777-4.29688 18.2373-5.68848Q16.7969-7.08008 16.7969-9.86328L16.7969-18.5547Q16.7969-22.168 13.2812-22.168Q9.76562-22.168 9.76562-18.5547L9.76562-9.52148Q9.76562-3.36914 12.8906-0.292969Q16.0156 2.7832 22.2168 2.7832ZM64.1602 2.7832L73.2422 2.7832Q79.4922 2.7832 82.5928-0.292969Q85.6934-3.36914 85.6934-9.52148L85.6934-18.5547Q85.6934-22.168 82.1777-22.168Q78.6621-22.168 78.6621-18.5547L78.6621-9.86328Q78.6621-7.08008 77.2217-5.68848Q75.7812-4.29688 73.1445-4.29688L64.1602-4.29688Q60.5957-4.29688 60.5957-0.732422Q60.5957 2.7832 64.1602 2.7832ZM29.7852-35.2051Q29.7852-33.5938 30.8105-32.5928Q31.8359-31.5918 33.5449-31.5918L44.0918-31.5918L44.0918-20.9961Q44.0918-19.3848 45.0684-18.335Q46.0449-17.2852 47.7051-17.2852Q49.3164-17.2852 50.3662-18.335Q51.416-19.3848 51.416-20.9961L51.416-31.5918L61.9629-31.5918Q63.623-31.5918 64.6484-32.5928Q65.6738-33.5938 65.6738-35.2051Q65.6738-36.8652 64.6484-37.8906Q63.623-38.916 61.9629-38.916L51.416-38.916L51.416-49.4629Q51.416-51.123 50.3662-52.1729Q49.3164-53.2227 47.7051-53.2227Q46.0449-53.2227 45.0684-52.1729Q44.0918-51.123 44.0918-49.4629L44.0918-38.916L33.5449-38.916Q31.8359-38.916 30.8105-37.8906Q29.7852-36.8652 29.7852-35.2051Z"/>
  </g>
  <g id="Light-S" transform="matrix(1 0 0 1 1106.36 696)">
   <path d="M12.4837-48.3398Q15.1855-48.3398 15.1855-51.0905L15.1855-60.4329Q15.1855-63.5417 16.8132-65.153Q18.4408-66.7643 21.5007-66.7643L30.9896-66.7643Q33.7402-66.7643 33.7402-69.4824Q33.7402-72.2168 30.9896-72.2168L21.403-72.2168Q15.625-72.2168 12.6953-69.3197Q9.76562-66.4225 9.76562-60.6934L9.76562-51.0905Q9.76562-48.3398 12.4837-48.3398ZM81.071-48.3398Q83.7891-48.3398 83.7891-51.0905L83.7891-60.6934Q83.7891-66.4062 80.8757-69.3115Q77.9622-72.2168 72.1517-72.2168L62.5651-72.2168Q59.8145-72.2168 59.8145-69.4824Q59.8145-66.7643 62.5651-66.7643L72.054-66.7643Q75.0651-66.7643 76.7171-65.153Q78.3691-63.5417 78.3691-60.4329L78.3691-51.0905Q78.3691-48.3398 81.071-48.3398ZM21.403 1.83919L30.9896 1.83919Q33.7402 1.83919 33.7402-0.86263Q33.7402-3.61328 30.9896-3.61328L21.5007-3.61328Q18.4408-3.61328 16.8132-5.20833Q15.1855-6.80339 15.1855-9.96094L15.1855-19.2546Q15.1855-22.054 12.4837-22.054Q9.76562-22.054 9.76562-19.2546L9.76562-9.68424Q9.76562-3.95508 12.6953-1.05794Q15.625 1.83919 21.403 1.83919ZM62.5651 1.83919L72.1517 1.83919Q77.9622 1.83919 80.8757-1.06608Q83.7891-3.97135 83.7891-9.68424L83.7891-19.2546Q83.7891-22.054 81.071-22.054Q78.3691-22.054 78.3691-19.2546L78.3691-9.96094Q78.3691-6.80339 76.7171-5.20833Q75.0651-3.61328 72.054-3.61328L62.5651-3.61328Q59.8145-3.61328 59.8145-0.86263Q59.8145 1.83919 62.5651 1.83919ZM29.2318-35.1888Q29.2318-33.9681 30.0293-33.1868Q30.8268-32.4056 32.1289-32.4056L43.9779-32.4056L43.9779-20.5241Q43.9779-19.3034 44.7428-18.4896Q45.5078-17.6758 46.7448-17.6758Q47.998-17.6758 48.8118-18.4814Q49.6257-19.2871 49.6257-20.5241L49.6257-32.4056L61.4746-32.4056Q62.7441-32.4056 63.5417-33.1868Q64.3392-33.9681 64.3392-35.1888Q64.3392-36.4583 63.5417-37.264Q62.7441-38.0697 61.4746-38.0697L49.6257-38.0697L49.6257-49.9186Q49.6257-51.1882 48.8118-51.9938Q47.998-52.7995 46.7448-52.7995Q45.5078-52.7995 44.7428-51.9857Q43.9779-51.1719 43.9779-49.9186L43.9779-38.0697L32.1289-38.0697Q30.8105-38.0697 30.0212-37.264Q29.2318-36.4583 29.2318-35.1888Z"/>
  </g>
  <g id="Thin-S" transform="matrix(1 0 0 1 810.908 696)">
   <path d="M11.4289-48.469Q13.0544-48.469 13.0544-50.1433L13.0544-60.2823Q13.0544-63.8861 14.9296-65.7557Q16.8048-67.6254 20.4243-67.6254L30.5806-67.6254Q32.2549-67.6254 32.2549-69.2887Q32.2549-70.9252 30.5806-70.9252L20.3267-70.9252Q15.1084-70.9252 12.437-68.2649Q9.76562-65.6045 9.76562-60.435L9.76562-50.1433Q9.76562-48.469 11.4289-48.469ZM79.6072-48.469Q81.2705-48.469 81.2705-50.1433L81.2705-60.435Q81.2705-65.5667 78.6046-68.246Q75.9388-70.9252 70.7094-70.9252L60.4555-70.9252Q58.7812-70.9252 58.7812-69.2887Q58.7812-67.6254 60.4555-67.6254L70.6118-67.6254Q74.1179-67.6254 76.0498-65.7557Q77.9817-63.8861 77.9817-60.2823L77.9817-50.1433Q77.9817-48.469 79.6072-48.469ZM20.3267 0.590663L30.5806 0.590663Q32.2549 0.590663 32.2549-1.03484Q32.2549-2.70917 30.5806-2.70917L20.4243-2.70917Q16.8048-2.70917 14.9296-4.57331Q13.0544-6.43744 13.0544-10.0901L13.0544-20.1802Q13.0544-21.9034 11.4289-21.9034Q9.76562-21.9034 9.76562-20.1802L9.76562-9.89951Q9.76562-4.73003 12.437-2.06968Q15.1084 0.590663 20.3267 0.590663ZM60.4555 0.590663L70.7094 0.590663Q75.9388 0.590663 78.6046-2.08858Q81.2705-4.76783 81.2705-9.89951L81.2705-20.1802Q81.2705-21.9034 79.6072-21.9034Q77.9817-21.9034 77.9817-20.1802L77.9817-10.0901Q77.9817-6.43744 76.0498-4.57331Q74.1179-2.70917 70.6118-2.70917L60.4555-2.70917Q58.7812-2.70917 58.7812-1.03484Q58.7812 0.590663 60.4555 0.590663ZM28.4999-35.1673Q28.4999-34.4632 28.996-33.9726Q29.4922-33.4819 30.2561-33.4819L43.8272-33.4819L43.8272-19.8998Q43.8272-19.1958 44.3123-18.6941Q44.7974-18.1924 45.4747-18.1924Q46.2544-18.1924 46.7561-18.6752Q47.2577-19.158 47.2577-19.8998L47.2577-33.4819L60.8288-33.4819Q61.5817-33.4819 62.0779-33.9726Q62.574-34.4632 62.574-35.1673Q62.574-35.9202 62.0779-36.4352Q61.5817-36.9503 60.8288-36.9503L47.2577-36.9503L47.2577-50.5214Q47.2577-51.2743 46.7561-51.757Q46.2544-52.2398 45.4747-52.2398Q44.7974-52.2398 44.3123-51.7381Q43.8272-51.2365 43.8272-50.5214L43.8272-36.9503L30.2561-36.9503Q29.4544-36.9503 28.9771-36.4352Q28.4999-35.9202 28.4999-35.1673Z"/>
  </g>
  <g id="Ultralight-S" transform="matrix(1 0 0 1 514.842 696)">
   <path d="M10.8887-48.5352Q11.9629-48.5352 11.9629-49.6582L11.9629-60.2051Q11.9629-64.0625 13.9648-66.0645Q15.9668-68.0664 19.873-68.0664L30.3711-68.0664Q31.4941-68.0664 31.4941-69.1895Q31.4941-70.2637 30.3711-70.2637L19.7754-70.2637Q14.8438-70.2637 12.3047-67.7246Q9.76562-65.1855 9.76562-60.3027L9.76562-49.6582Q9.76562-48.5352 10.8887-48.5352ZM78.8574-48.5352Q79.9805-48.5352 79.9805-49.6582L79.9805-60.3027Q79.9805-65.1367 77.4414-67.7002Q74.9023-70.2637 69.9707-70.2637L59.375-70.2637Q58.252-70.2637 58.252-69.1895Q58.252-68.0664 59.375-68.0664L69.873-68.0664Q73.6328-68.0664 75.708-66.0645Q77.7832-64.0625 77.7832-60.2051L77.7832-49.6582Q77.7832-48.5352 78.8574-48.5352ZM19.7754-0.0488281L30.3711-0.0488281Q31.4941-0.0488281 31.4941-1.12305Q31.4941-2.24609 30.3711-2.24609L19.873-2.24609Q15.9668-2.24609 13.9648-4.24805Q11.9629-6.25 11.9629-10.1562L11.9629-20.6543Q11.9629-21.8262 10.8887-21.8262Q9.76562-21.8262 9.76562-20.6543L9.76562-10.0098Q9.76562-5.12695 12.3047-2.58789Q14.8438-0.0488281 19.7754-0.0488281ZM59.375-0.0488281L69.9707-0.0488281Q74.9023-0.0488281 77.4414-2.6123Q79.9805-5.17578 79.9805-10.0098L79.9805-20.6543Q79.9805-21.8262 78.8574-21.8262Q77.7832-21.8262 77.7832-20.6543L77.7832-10.1562Q77.7832-6.25 75.708-4.24805Q73.6328-2.24609 69.873-2.24609L59.375-2.24609Q58.252-2.24609 58.252-1.12305Q58.252-0.0488281 59.375-0.0488281ZM28.125-35.1562Q28.125-34.7168 28.4668-34.375Q28.8086-34.0332 29.2969-34.0332L43.75-34.0332L43.75-19.5801Q43.75-19.1406 44.0918-18.7988Q44.4336-18.457 44.8242-18.457Q45.3613-18.457 45.7031-18.7744Q46.0449-19.0918 46.0449-19.5801L46.0449-34.0332L60.498-34.0332Q60.9863-34.0332 61.3281-34.375Q61.6699-34.7168 61.6699-35.1562Q61.6699-35.6445 61.3281-36.0107Q60.9863-36.377 60.498-36.377L46.0449-36.377L46.0449-50.8301Q46.0449-51.3184 45.7031-51.6357Q45.3613-51.9531 44.8242-51.9531Q44.4336-51.9531 44.0918-51.6113Q43.75-51.2695 43.75-50.8301L43.75-36.377L29.2969-36.377Q28.7598-36.377 28.4424-36.0107Q28.125-35.6445 28.125-35.1562Z"/>
  </g>
 </g>
</svg>
