<?xml version="1.0" encoding="UTF-8"?>
<!--Generator: Apple Native CoreSVG 175-->
<!DOCTYPE svg
PUBLIC "-//W3C//DTD SVG 1.1//EN"
       "http://www.w3.org/Graphics/SVG/1.1/DTD/svg11.dtd">
<svg version="1.1" xmlns="http://www.w3.org/2000/svg" xmlns:xlink="http://www.w3.org/1999/xlink" width="3300" height="2200">
 <!--glyph: "uni100A73.medium", point size: 100.0, font version: "17.3d3e1", template writer version: "65.1"-->
 <g id="Notes">
  <rect height="2200" id="artboard" style="fill:white;opacity:1" width="3300" x="0" y="0"/>
  <line style="fill:none;stroke:black;opacity:1;stroke-width:0.5;" x1="263" x2="3036" y1="292" y2="292"/>
  <text style="stroke:none;fill:black;font-family:sans-serif;font-size:13;font-weight:bold;" transform="matrix(1 0 0 1 263 322)">Weight/Scale Variations</text>
  <text style="stroke:none;fill:black;font-family:sans-serif;font-size:13;text-anchor:middle;" transform="matrix(1 0 0 1 559.711 322)">Ultralight</text>
  <text style="stroke:none;fill:black;font-family:sans-serif;font-size:13;text-anchor:middle;" transform="matrix(1 0 0 1 856.422 322)">Thin</text>
  <text style="stroke:none;fill:black;font-family:sans-serif;font-size:13;text-anchor:middle;" transform="matrix(1 0 0 1 1153.13 322)">Light</text>
  <text style="stroke:none;fill:black;font-family:sans-serif;font-size:13;text-anchor:middle;" transform="matrix(1 0 0 1 1449.84 322)">Regular</text>
  <text style="stroke:none;fill:black;font-family:sans-serif;font-size:13;text-anchor:middle;" transform="matrix(1 0 0 1 1746.56 322)">Medium</text>
  <text style="stroke:none;fill:black;font-family:sans-serif;font-size:13;text-anchor:middle;" transform="matrix(1 0 0 1 2043.27 322)">Semibold</text>
  <text style="stroke:none;fill:black;font-family:sans-serif;font-size:13;text-anchor:middle;" transform="matrix(1 0 0 1 2339.98 322)">Bold</text>
  <text style="stroke:none;fill:black;font-family:sans-serif;font-size:13;text-anchor:middle;" transform="matrix(1 0 0 1 2636.69 322)">Heavy</text>
  <text style="stroke:none;fill:black;font-family:sans-serif;font-size:13;text-anchor:middle;" transform="matrix(1 0 0 1 2933.4 322)">Black</text>
  <line style="fill:none;stroke:black;opacity:1;stroke-width:0.5;" x1="263" x2="3036" y1="1903" y2="1903"/>
  <g transform="matrix(1 0 0 1 263 1933)">
   <path d="M9.24805 0.830078Q10.8691 0.830078 12.2949 0.214844Q13.7207-0.400391 14.8096-1.49414Q15.8984-2.58789 16.5186-4.01367Q17.1387-5.43945 17.1387-7.05078Q17.1387-8.66211 16.5186-10.0879Q15.8984-11.5137 14.8047-12.6074Q13.7109-13.7012 12.2852-14.3164Q10.8594-14.9316 9.23828-14.9316Q7.62695-14.9316 6.20117-14.3164Q4.77539-13.7012 3.69141-12.6074Q2.60742-11.5137 1.9873-10.0879Q1.36719-8.66211 1.36719-7.05078Q1.36719-5.43945 1.9873-4.01367Q2.60742-2.58789 3.69629-1.49414Q4.78516-0.400391 6.21094 0.214844Q7.63672 0.830078 9.24805 0.830078ZM9.24805-0.654297Q7.91992-0.654297 6.7627-1.14746Q5.60547-1.64062 4.73145-2.51953Q3.85742-3.39844 3.36426-4.56055Q2.87109-5.72266 2.87109-7.05078Q2.87109-8.37891 3.35938-9.54102Q3.84766-10.7031 4.72168-11.582Q5.5957-12.4609 6.75293-12.9541Q7.91016-13.4473 9.23828-13.4473Q10.5762-13.4473 11.7334-12.9541Q12.8906-12.4609 13.7695-11.582Q14.6484-10.7031 15.1465-9.54102Q15.6445-8.37891 15.6445-7.05078Q15.6445-5.72266 15.1514-4.56055Q14.6582-3.39844 13.7842-2.51953Q12.9102-1.64062 11.748-1.14746Q10.5859-0.654297 9.24805-0.654297ZM5.6543-7.05078Q5.6543-6.72852 5.85938-6.52832Q6.06445-6.32812 6.40625-6.32812L8.51562-6.32812L8.51562-4.20898Q8.51562-3.88672 8.71094-3.67676Q8.90625-3.4668 9.23828-3.4668Q9.56055-3.4668 9.77051-3.67676Q9.98047-3.88672 9.98047-4.20898L9.98047-6.32812L12.0898-6.32812Q12.4219-6.32812 12.627-6.52832Q12.832-6.72852 12.832-7.05078Q12.832-7.38281 12.627-7.58789Q12.4219-7.79297 12.0898-7.79297L9.98047-7.79297L9.98047-9.90234Q9.98047-10.2344 9.77051-10.4443Q9.56055-10.6543 9.23828-10.6543Q8.90625-10.6543 8.71094-10.4443Q8.51562-10.2344 8.51562-9.90234L8.51562-7.79297L6.40625-7.79297Q6.06445-7.79297 5.85938-7.58789Q5.6543-7.38281 5.6543-7.05078Z"/>
  </g>
  <g transform="matrix(1 0 0 1 281.867 1933)">
   <path d="M11.709 2.91016Q13.75 2.91016 15.5518 2.12891Q17.3535 1.34766 18.7305-0.0292969Q20.1074-1.40625 20.8887-3.20801Q21.6699-5.00977 21.6699-7.05078Q21.6699-9.0918 20.8887-10.8936Q20.1074-12.6953 18.7305-14.0723Q17.3535-15.4492 15.5469-16.2305Q13.7402-17.0117 11.6992-17.0117Q9.6582-17.0117 7.85645-16.2305Q6.05469-15.4492 4.68262-14.0723Q3.31055-12.6953 2.5293-10.8936Q1.74805-9.0918 1.74805-7.05078Q1.74805-5.00977 2.5293-3.20801Q3.31055-1.40625 4.6875-0.0292969Q6.06445 1.34766 7.86621 2.12891Q9.66797 2.91016 11.709 2.91016ZM11.709 1.25Q9.98047 1.25 8.47656 0.605469Q6.97266-0.0390625 5.83496-1.17676Q4.69727-2.31445 4.05762-3.81836Q3.41797-5.32227 3.41797-7.05078Q3.41797-8.7793 4.05762-10.2832Q4.69727-11.7871 5.83008-12.9297Q6.96289-14.0723 8.4668-14.7119Q9.9707-15.3516 11.6992-15.3516Q13.4277-15.3516 14.9316-14.7119Q16.4355-14.0723 17.5781-12.9297Q18.7207-11.7871 19.3652-10.2832Q20.0098-8.7793 20.0098-7.05078Q20.0098-5.32227 19.3701-3.81836Q18.7305-2.31445 17.5928-1.17676Q16.4551-0.0390625 14.9463 0.605469Q13.4375 1.25 11.709 1.25ZM7.17773-7.05078Q7.17773-6.69922 7.41211-6.47461Q7.64648-6.25 8.01758-6.25L10.8887-6.25L10.8887-3.36914Q10.8887-2.99805 11.1133-2.76855Q11.3379-2.53906 11.6895-2.53906Q12.0605-2.53906 12.29-2.76855Q12.5195-2.99805 12.5195-3.36914L12.5195-6.25L15.4004-6.25Q15.7715-6.25 16.001-6.47461Q16.2305-6.69922 16.2305-7.05078Q16.2305-7.42188 16.001-7.65137Q15.7715-7.88086 15.4004-7.88086L12.5195-7.88086L12.5195-10.752Q12.5195-11.1328 12.29-11.3623Q12.0605-11.5918 11.6895-11.5918Q11.3379-11.5918 11.1133-11.3574Q10.8887-11.123 10.8887-10.752L10.8887-7.88086L8.01758-7.88086Q7.63672-7.88086 7.40723-7.65137Q7.17773-7.42188 7.17773-7.05078Z"/>
  </g>
  <g transform="matrix(1 0 0 1 305.646 1933)">
   <path d="M14.9707 5.66406Q17.0605 5.66406 18.96 5.01465Q20.8594 4.36523 22.4512 3.19336Q24.043 2.02148 25.2197 0.429688Q26.3965-1.16211 27.0459-3.06641Q27.6953-4.9707 27.6953-7.05078Q27.6953-9.14062 27.0459-11.04Q26.3965-12.9395 25.2197-14.5312Q24.043-16.123 22.4512-17.2998Q20.8594-18.4766 18.9551-19.126Q17.0508-19.7754 14.9609-19.7754Q12.8711-19.7754 10.9717-19.126Q9.07227-18.4766 7.48535-17.2998Q5.89844-16.123 4.72168-14.5312Q3.54492-12.9395 2.90039-11.04Q2.25586-9.14062 2.25586-7.05078Q2.25586-4.9707 2.90527-3.06641Q3.55469-1.16211 4.72656 0.429688Q5.89844 2.02148 7.49023 3.19336Q9.08203 4.36523 10.9814 5.01465Q12.8809 5.66406 14.9707 5.66406ZM14.9707 3.84766Q13.1641 3.84766 11.5283 3.2959Q9.89258 2.74414 8.53516 1.74805Q7.17773 0.751953 6.17676-0.610352Q5.17578-1.97266 4.62891-3.6084Q4.08203-5.24414 4.08203-7.05078Q4.08203-8.86719 4.62891-10.5029Q5.17578-12.1387 6.17188-13.501Q7.16797-14.8633 8.52539-15.8594Q9.88281-16.8555 11.5186-17.4023Q13.1543-17.9492 14.9609-17.9492Q16.7773-17.9492 18.4131-17.4023Q20.0488-16.8555 21.4111-15.8594Q22.7734-14.8633 23.7695-13.501Q24.7656-12.1387 25.3174-10.5029Q25.8691-8.86719 25.8691-7.05078Q25.8789-5.24414 25.332-3.6084Q24.7852-1.97266 23.7842-0.610352Q22.7832 0.751953 21.4209 1.74805Q20.0586 2.74414 18.4229 3.2959Q16.7871 3.84766 14.9707 3.84766ZM9.19922-7.05078Q9.19922-6.66992 9.45801-6.4209Q9.7168-6.17188 10.1172-6.17188L14.0625-6.17188L14.0625-2.2168Q14.0625-1.81641 14.3115-1.55762Q14.5605-1.29883 14.9512-1.29883Q15.3516-1.29883 15.6104-1.55273Q15.8691-1.80664 15.8691-2.2168L15.8691-6.17188L19.8242-6.17188Q20.2246-6.17188 20.4785-6.4209Q20.7324-6.66992 20.7324-7.05078Q20.7324-7.46094 20.4785-7.71484Q20.2246-7.96875 19.8242-7.96875L15.8691-7.96875L15.8691-11.9141Q15.8691-12.3242 15.6104-12.583Q15.3516-12.8418 14.9512-12.8418Q14.5605-12.8418 14.3115-12.583Q14.0625-12.3242 14.0625-11.9141L14.0625-7.96875L10.1172-7.96875Q9.70703-7.96875 9.45312-7.71484Q9.19922-7.46094 9.19922-7.05078Z"/>
  </g>
  <text style="stroke:none;fill:black;font-family:sans-serif;font-size:13;font-weight:bold;" transform="matrix(1 0 0 1 263 1953)">Design Variations</text>
  <text style="stroke:none;fill:black;font-family:sans-serif;font-size:13;" transform="matrix(1 0 0 1 263 1971)">Symbols are supported in up to nine weights and three scales.</text>
  <text style="stroke:none;fill:black;font-family:sans-serif;font-size:13;" transform="matrix(1 0 0 1 263 1989)">For optimal layout with text and other symbols, vertically align</text>
  <text style="stroke:none;fill:black;font-family:sans-serif;font-size:13;" transform="matrix(1 0 0 1 263 2007)">symbols with the adjacent text.</text>
  <line style="fill:none;stroke:#00AEEF;stroke-width:0.5;opacity:1.0;" x1="776" x2="776" y1="1919" y2="1933"/>
  <g transform="matrix(1 0 0 1 776 1933)">
   <path d="M3.31055 0.15625Q3.70117 0.15625 3.91602-0.00976562Q4.13086-0.175781 4.26758-0.585938L5.52734-4.0332L11.2891-4.0332L12.5488-0.585938Q12.6855-0.175781 12.9004-0.00976562Q13.1152 0.15625 13.4961 0.15625Q13.8867 0.15625 14.1162-0.0585938Q14.3457-0.273438 14.3457-0.644531Q14.3457-0.869141 14.2383-1.17188L9.6582-13.3691Q9.48242-13.8184 9.17969-14.043Q8.87695-14.2676 8.4082-14.2676Q7.5-14.2676 7.17773-13.3789L2.59766-1.16211Q2.49023-0.859375 2.49023-0.634766Q2.49023-0.263672 2.70996-0.0537109Q2.92969 0.15625 3.31055 0.15625ZM6.00586-5.51758L8.37891-12.0898L8.42773-12.0898L10.8008-5.51758Z"/>
  </g>
  <line style="fill:none;stroke:#00AEEF;stroke-width:0.5;opacity:1.0;" x1="793.197" x2="793.197" y1="1919" y2="1933"/>
  <text style="stroke:none;fill:black;font-family:sans-serif;font-size:13;font-weight:bold;" transform="matrix(1 0 0 1 776 1953)">Margins</text>
  <text style="stroke:none;fill:black;font-family:sans-serif;font-size:13;" transform="matrix(1 0 0 1 776 1971)">Leading and trailing margins on the left and right side of each symbol</text>
  <text style="stroke:none;fill:black;font-family:sans-serif;font-size:13;" transform="matrix(1 0 0 1 776 1989)">can be adjusted by modifying the x-location of the margin guidelines.</text>
  <text style="stroke:none;fill:black;font-family:sans-serif;font-size:13;" transform="matrix(1 0 0 1 776 2007)">Modifications are automatically applied proportionally to all</text>
  <text style="stroke:none;fill:black;font-family:sans-serif;font-size:13;" transform="matrix(1 0 0 1 776 2025)">scales and weights.</text>
  <g transform="matrix(1 0 0 1 1289 1933)">
   <path d="M2.8418 1.86523L4.54102 3.57422Q5.18555 4.22852 5.90332 4.17969Q6.62109 4.13086 7.31445 3.35938L18.0078-8.42773L17.041-9.4043L6.42578 2.27539Q6.16211 2.57812 5.89355 2.61719Q5.625 2.65625 5.27344 2.30469L4.10156 1.14258Q3.75 0.791016 3.79395 0.522461Q3.83789 0.253906 4.14062-0.0195312L15.6152-10.8203L14.6387-11.7871L3.04688-0.898438Q2.30469-0.214844 2.25098 0.498047Q2.19727 1.21094 2.8418 1.86523ZM9.25781-16.3281Q8.94531-16.0254 8.90625-15.6348Q8.86719-15.2441 9.04297-14.9512Q9.21875-14.6777 9.55566-14.541Q9.89258-14.4043 10.3809-14.5215Q11.4746-14.7754 12.5977-14.7314Q13.7207-14.6875 14.7949-13.9844L14.209-12.5293Q13.9551-11.9043 14.0674-11.4404Q14.1797-10.9766 14.5801-10.5664L16.875-8.25195Q17.2363-7.88086 17.5781-7.82227Q17.9199-7.76367 18.3398-7.8418L19.4043-8.03711L20.0684-7.36328L20.0293-6.80664Q20-6.43555 20.1221-6.12305Q20.2441-5.81055 20.6055-5.44922L21.3672-4.70703Q21.7285-4.3457 22.1533-4.33105Q22.5781-4.31641 22.9297-4.66797L25.8398-7.58789Q26.1914-7.93945 26.1816-8.35449Q26.1719-8.76953 25.8105-9.13086L25.0391-9.89258Q24.6875-10.2539 24.3799-10.3857Q24.0723-10.5176 23.7109-10.4883L23.1348-10.4395L22.4902-11.0742L22.7344-12.1973Q22.832-12.6172 22.6953-12.9834Q22.5586-13.3496 22.1191-13.7891L19.9219-15.9766Q18.6719-17.2168 17.2607-17.8369Q15.8496-18.457 14.4189-18.4814Q12.9883-18.5059 11.665-17.959Q10.3418-17.4121 9.25781-16.3281ZM10.752-15.957Q11.6602-16.6211 12.7002-16.9043Q13.7402-17.1875 14.8047-17.085Q15.8691-16.9824 16.8701-16.5137Q17.8711-16.0449 18.7012-15.2051L21.1328-12.793Q21.3086-12.6172 21.3525-12.4512Q21.3965-12.2852 21.3379-12.0312L21.0156-10.5469L22.5195-9.0625L23.5059-9.12109Q23.6914-9.13086 23.7891-9.09668Q23.8867-9.0625 24.0332-8.91602L24.6094-8.33984L22.168-5.89844L21.5918-6.47461Q21.4453-6.62109 21.4062-6.71875Q21.3672-6.81641 21.377-7.01172L21.4453-7.98828L19.9512-9.47266L18.4277-9.21875Q18.1836-9.16992 18.042-9.2041Q17.9004-9.23828 17.7148-9.41406L15.7129-11.416Q15.5176-11.5918 15.4932-11.7529Q15.4688-11.9141 15.5859-12.1875L16.4648-14.2773Q15.293-15.3711 13.8281-15.791Q12.3633-16.2109 10.8398-15.7617Q10.7227-15.7324 10.6885-15.8057Q10.6543-15.8789 10.752-15.957Z"/>
  </g>
  <text style="stroke:none;fill:black;font-family:sans-serif;font-size:13;font-weight:bold;" transform="matrix(1 0 0 1 1289 1953)">Exporting</text>
  <text style="stroke:none;fill:black;font-family:sans-serif;font-size:13;" transform="matrix(1 0 0 1 1289 1971)">Symbols should be outlined when exporting to ensure the</text>
  <text style="stroke:none;fill:black;font-family:sans-serif;font-size:13;" transform="matrix(1 0 0 1 1289 1989)">design is preserved when submitting to Xcode.</text>
  <text id="template-version" style="stroke:none;fill:black;font-family:sans-serif;font-size:13;text-anchor:end;" transform="matrix(1 0 0 1 3036 1933)">Template v.3.0</text>
  <text style="stroke:none;fill:black;font-family:sans-serif;font-size:13;text-anchor:end;" transform="matrix(1 0 0 1 3036 1951)">Requires Xcode 13 or greater</text>
  <text id="descriptive-name" style="stroke:none;fill:black;font-family:sans-serif;font-size:13;text-anchor:end;" transform="matrix(1 0 0 1 3036 1969)">Generated from list.bullet.rectangle</text>
  <text style="stroke:none;fill:black;font-family:sans-serif;font-size:13;text-anchor:end;" transform="matrix(1 0 0 1 3036 1987)">Typeset at 100 points</text>
  <text style="stroke:none;fill:black;font-family:sans-serif;font-size:13;" transform="matrix(1 0 0 1 263 726)">Small</text>
  <text style="stroke:none;fill:black;font-family:sans-serif;font-size:13;" transform="matrix(1 0 0 1 263 1156)">Medium</text>
  <text style="stroke:none;fill:black;font-family:sans-serif;font-size:13;" transform="matrix(1 0 0 1 263 1586)">Large</text>
 </g>
 <g id="Guides">
  <g id="H-reference" style="fill:#27AAE1;stroke:none;" transform="matrix(1 0 0 1 339 696)">
   <path d="M0.993347 0L3.6377 0L29.3282-67.1326L30.0301-67.1326L30.0301-70.459L28.1227-70.459ZM11.6882-24.4797L46.9818-24.4797L46.2311-26.7288L12.4382-26.7288ZM55.1193 0L57.7637 0L30.6381-70.459L29.4327-70.459L29.4327-67.1326Z"/>
  </g>
  <line id="Baseline-S" style="fill:none;stroke:#27AAE1;opacity:1;stroke-width:0.5;" x1="263" x2="3036" y1="696" y2="696"/>
  <line id="Capline-S" style="fill:none;stroke:#27AAE1;opacity:1;stroke-width:0.5;" x1="263" x2="3036" y1="625.541" y2="625.541"/>
  <g id="H-reference" style="fill:#27AAE1;stroke:none;" transform="matrix(1 0 0 1 339 1126)">
   <path d="M0.993347 0L3.6377 0L29.3282-67.1326L30.0301-67.1326L30.0301-70.459L28.1227-70.459ZM11.6882-24.4797L46.9818-24.4797L46.2311-26.7288L12.4382-26.7288ZM55.1193 0L57.7637 0L30.6381-70.459L29.4327-70.459L29.4327-67.1326Z"/>
  </g>
  <line id="Baseline-M" style="fill:none;stroke:#27AAE1;opacity:1;stroke-width:0.5;" x1="263" x2="3036" y1="1126" y2="1126"/>
  <line id="Capline-M" style="fill:none;stroke:#27AAE1;opacity:1;stroke-width:0.5;" x1="263" x2="3036" y1="1055.54" y2="1055.54"/>
  <g id="H-reference" style="fill:#27AAE1;stroke:none;" transform="matrix(1 0 0 1 339 1556)">
   <path d="M0.993347 0L3.6377 0L29.3282-67.1326L30.0301-67.1326L30.0301-70.459L28.1227-70.459ZM11.6882-24.4797L46.9818-24.4797L46.2311-26.7288L12.4382-26.7288ZM55.1193 0L57.7637 0L30.6381-70.459L29.4327-70.459L29.4327-67.1326Z"/>
  </g>
  <line id="Baseline-L" style="fill:none;stroke:#27AAE1;opacity:1;stroke-width:0.5;" x1="263" x2="3036" y1="1556" y2="1556"/>
  <line id="Capline-L" style="fill:none;stroke:#27AAE1;opacity:1;stroke-width:0.5;" x1="263" x2="3036" y1="1485.54" y2="1485.54"/>
  <line id="left-margin-Regular-M" style="fill:none;stroke:#00AEEF;stroke-width:0.5;opacity:1.0;" x1="1379.84" x2="1379.84" y1="1030.79" y2="1150.12"/>
  <line id="right-margin-Regular-M" style="fill:none;stroke:#00AEEF;stroke-width:0.5;opacity:1.0;" x1="1519.85" x2="1519.85" y1="1030.79" y2="1150.12"/>
 </g>
 <g id="Symbols">
  <g id="Black-L" transform="matrix(1 0 0 1 2841.56 1556)">
   <path d="M53.6231-54.7101Q56.1137-54.7101 57.841-56.4081Q59.5682-58.1062 59.5682-60.5968Q59.5682-63.0654 57.841-64.7932Q56.1137-66.521 53.6231-66.521Q51.2129-66.521 49.4559-64.7536Q47.6988-62.9862 47.6988-60.5968Q47.6988-58.1854 49.4559-56.4477Q51.2129-54.7101 53.6231-54.7101ZM53.6231-38.0397Q56.1137-38.0397 57.841-39.7968Q59.5682-41.5538 59.5682-43.964Q59.5682-46.4546 57.841-48.1819Q56.1137-49.9091 53.6231-49.9091Q51.2129-49.9091 49.4559-48.1715Q47.6988-46.4338 47.6988-43.964Q47.6988-41.5538 49.4559-39.7968Q51.2129-38.0397 53.6231-38.0397ZM53.6231-21.5458Q56.1137-21.5458 57.841-23.2438Q59.5682-24.9418 59.5682-27.4325Q59.5682-29.8635 57.8702-31.5809Q56.1722-33.2983 53.6231-33.2983Q51.1545-33.2983 49.4267-31.5705Q47.6988-29.8427 47.6988-27.4325Q47.6988-24.9418 49.4267-23.2438Q51.1545-21.5458 53.6231-21.5458ZM53.6231-4.02194Q56.1137-4.02194 57.841-5.74918Q59.5682-7.47642 59.5682-9.96584Q59.5682-12.4356 57.841-14.1337Q56.1137-15.8317 53.6231-15.8317Q51.2129-15.8317 49.4559-14.0941Q47.6988-12.3564 47.6988-9.96584Q47.6988-7.55564 49.4559-5.78879Q51.2129-4.02194 53.6231-4.02194ZM68.4262-55.8651L131.208-55.8651Q133.217-55.8651 134.578-57.2561Q135.939-58.6471 135.939-60.5968Q135.939-62.5245 134.548-63.9259Q133.158-65.3272 131.208-65.3272L68.4262-65.3272Q66.4777-65.3272 65.0867-63.9259Q63.6957-62.5245 63.6957-60.5968Q63.6957-58.6471 65.0867-57.2561Q66.4777-55.8651 68.4262-55.8651ZM68.4262-39.2335L104.823-39.2335Q106.772-39.2335 108.163-40.6343Q109.553-42.0351 109.553-43.964Q109.553-45.9137 108.192-47.3333Q106.831-48.7529 104.823-48.7529L68.4262-48.7529Q66.4777-48.7529 65.0867-47.3333Q63.6957-45.9137 63.6957-43.964Q63.6957-42.0351 65.0867-40.6343Q66.4777-39.2335 68.4262-39.2335ZM68.4262-22.7008L131.208-22.7008Q133.217-22.7008 134.578-24.0918Q135.939-25.4827 135.939-27.4325Q135.939-29.4394 134.578-30.7616Q133.217-32.0837 131.208-32.0837L68.4262-32.0837Q66.4777-32.0837 65.0867-30.7616Q63.6957-29.4394 63.6957-27.4325Q63.6957-25.4827 65.0867-24.0918Q66.4777-22.7008 68.4262-22.7008ZM68.4262-5.23538L104.823-5.23538Q106.772-5.23538 108.163-6.62635Q109.553-8.01732 109.553-9.96584Q109.553-11.8947 108.192-13.2857Q106.831-14.6767 104.823-14.6767L68.4262-14.6767Q66.4777-14.6767 65.0867-13.2857Q63.6957-11.8947 63.6957-9.96584Q63.6957-8.01732 65.0867-6.62635Q66.4777-5.23538 68.4262-5.23538ZM39.8556 26.4202L143.831 26.4202Q155.221 26.4202 161.412 20.2279Q167.603 14.0357 167.603 2.71094L167.603-73.0919Q167.603-84.4167 161.412-90.6089Q155.221-96.8011 143.831-96.8011L39.8556-96.8011Q28.5077-96.8011 22.2958-90.6101Q16.084-84.419 16.084-73.0919L16.084 2.71094Q16.084 14.0381 22.2958 20.2291Q28.5077 26.4202 39.8556 26.4202ZM42.5864 6.41831Q39.3783 6.41831 37.7217 4.85967Q36.065 3.30102 36.065-0.123862L36.065-70.2571Q36.065-73.7612 37.7217-75.2802Q39.3783-76.7993 42.5864-76.7993L141.1-76.7993Q144.363-76.7993 145.992-75.2802Q147.622-73.7612 147.622-70.2571L147.622-0.123862Q147.622 3.30102 145.992 4.85967Q144.363 6.41831 141.1 6.41831Z"/>
  </g>
  <g id="Heavy-L" transform="matrix(1 0 0 1 2545.23 1556)">
   <path d="M51.6857-55.7242Q54.1675-55.7242 55.8881-57.4225Q57.6088-59.1209 57.6088-61.6027Q57.6088-64.0486 55.8881-65.772Q54.1675-67.4954 51.6857-67.4954Q49.2843-67.4954 47.5386-65.7346Q45.7929-63.9738 45.7929-61.6027Q45.7929-59.1956 47.5386-57.4599Q49.2843-55.7242 51.6857-55.7242ZM51.6857-38.4009Q54.1675-38.4009 55.8881-40.1466Q57.6088-41.8924 57.6088-44.2937Q57.6088-46.7755 55.8881-48.4962Q54.1675-50.2168 51.6857-50.2168Q49.2843-50.2168 47.5386-48.4811Q45.7929-46.7454 45.7929-44.2937Q45.7929-41.8924 47.5386-40.1466Q49.2843-38.4009 51.6857-38.4009ZM51.6857-21.2171Q54.1675-21.2171 55.8881-22.9154Q57.6088-24.6137 57.6088-27.0955Q57.6088-29.5271 55.9104-31.2354Q54.2121-32.9437 51.6857-32.9437Q49.2397-32.9437 47.5163-31.2203Q45.7929-29.4969 45.7929-27.0955Q45.7929-24.6137 47.5163-22.9154Q49.2397-21.2171 51.6857-21.2171ZM51.6857-3.0608Q54.1675-3.0608 55.8881-4.78144Q57.6088-6.50207 57.6088-8.97821Q57.6088-11.4298 55.8881-13.1281Q54.1675-14.8264 51.6857-14.8264Q49.2843-14.8264 47.5386-13.0907Q45.7929-11.355 45.7929-8.97821Q45.7929-6.57683 47.5386-4.81882Q49.2843-3.0608 51.6857-3.0608ZM67.5759-57.1083L132.731-57.1083Q134.636-57.1083 135.928-58.4253Q137.22-59.7423 137.22-61.6027Q137.22-63.4271 135.906-64.7592Q134.592-66.0914 132.731-66.0914L67.5759-66.0914Q65.7211-66.0914 64.4041-64.7592Q63.0871-63.4271 63.0871-61.6027Q63.0871-59.7423 64.4041-58.4253Q65.7211-57.1083 67.5759-57.1083ZM67.5759-39.805L104.981-39.805Q106.841-39.805 108.155-41.1343Q109.47-42.4636 109.47-44.2937Q109.47-46.1541 108.178-47.4906Q106.886-48.8271 104.981-48.8271L67.5759-48.8271Q65.7211-48.8271 64.4041-47.4906Q63.0871-46.1541 63.0871-44.2937Q63.0871-42.4636 64.4041-41.1343Q65.7211-39.805 67.5759-39.805ZM67.5759-22.6011L132.731-22.6011Q134.636-22.6011 135.928-23.9181Q137.22-25.2351 137.22-27.0955Q137.22-28.9948 135.928-30.2521Q134.636-31.5095 132.731-31.5095L67.5759-31.5095Q65.7211-31.5095 64.4041-30.2521Q63.0871-28.9948 63.0871-27.0955Q63.0871-25.2351 64.4041-23.9181Q65.7211-22.6011 67.5759-22.6011ZM67.5759-4.48947L104.981-4.48947Q106.841-4.48947 108.155-5.8065Q109.47-7.12352 109.47-8.97821Q109.47-10.8083 108.178-12.1253Q106.886-13.4424 104.981-13.4424L67.5759-13.4424Q65.7211-13.4424 64.4041-12.1253Q63.0871-10.8083 63.0871-8.97821Q63.0871-7.12352 64.4041-5.8065Q65.7211-4.48947 67.5759-4.48947ZM38.8315 25.5047L144.087 25.5047Q155.096 25.5047 160.965 19.6298Q166.834 13.7549 166.834 2.84771L166.834-73.2375Q166.834-84.1447 160.965-90.0196Q155.096-95.8945 144.087-95.8945L38.8315-95.8945Q27.8828-95.8945 21.9834-90.0252Q16.084-84.1559 16.084-73.2375L16.084 2.84771Q16.084 13.7661 21.9834 19.6354Q27.8828 25.5047 38.8315 25.5047ZM40.9557 7.97403Q37.3483 7.97403 35.4663 6.1741Q33.5844 4.37416 33.5844 0.572587L33.5844-70.9624Q33.5844-74.8388 35.4663-76.6013Q37.3483-78.3638 40.9557-78.3638L141.963-78.3638Q145.598-78.3638 147.466-76.6013Q149.334-74.8388 149.334-70.9624L149.334 0.572587Q149.334 4.37416 147.466 6.1741Q145.598 7.97403 141.963 7.97403Z"/>
  </g>
  <g id="Bold-L" transform="matrix(1 0 0 1 2249.01 1556)">
   <path d="M49.2882-56.947Q51.7547-56.947 53.464-58.6416Q55.1732-60.3363 55.1732-62.8028Q55.1732-65.2182 53.464-66.9339Q51.7547-68.6496 49.2882-68.6496Q46.902-68.6496 45.1716-66.9002Q43.4412-65.1509 43.4412-62.8028Q43.4412-60.4033 45.1716-58.6752Q46.902-56.947 49.2882-56.947ZM49.2882-38.8317Q51.7547-38.8317 53.464-40.5621Q55.1732-42.2925 55.1732-44.6787Q55.1732-47.1452 53.464-48.8545Q51.7547-50.5637 49.2882-50.5637Q46.902-50.5637 45.1716-48.8355Q43.4412-47.1073 43.4412-44.6787Q43.4412-42.2925 45.1716-40.5621Q46.902-38.8317 49.2882-38.8317ZM49.2882-20.8174Q51.7547-20.8174 53.464-22.5119Q55.1732-24.2064 55.1732-26.673Q55.1732-29.0973 53.4786-30.794Q51.784-32.4908 49.2882-32.4908Q46.8728-32.4908 45.157-30.775Q43.4412-29.0591 43.4412-26.673Q43.4412-24.2064 45.157-22.5119Q46.8728-20.8174 49.2882-20.8174ZM49.2882-1.92941Q51.7547-1.92941 53.464-3.63866Q55.1732-5.3479 55.1732-7.80113Q55.1732-10.2296 53.464-11.9242Q51.7547-13.6189 49.2882-13.6189Q46.902-13.6189 45.1716-11.8907Q43.4412-10.1625 43.4412-7.80113Q43.4412-5.41498 45.1716-3.6722Q46.902-1.92941 49.2882-1.92941ZM66.5605-58.6675L134.681-58.6675Q136.433-58.6675 137.618-59.8737Q138.803-61.0799 138.803-62.8028Q138.803-64.4743 137.603-65.6995Q136.404-66.9248 134.681-66.9248L66.5605-66.9248Q64.8507-66.9248 63.6445-65.6995Q62.4383-64.4743 62.4383-62.8028Q62.4383-61.0799 63.6445-59.8737Q64.8507-58.6675 66.5605-58.6675ZM66.5605-40.5567L105.404-40.5567Q107.127-40.5567 108.327-41.7753Q109.526-42.9939 109.526-44.6787Q109.526-46.4016 108.341-47.6157Q107.156-48.8298 105.404-48.8298L66.5605-48.8298Q64.8507-48.8298 63.6445-47.6157Q62.4383-46.4016 62.4383-44.6787Q62.4383-42.9939 63.6445-41.7753Q64.8507-40.5567 66.5605-40.5567ZM66.5605-22.5377L134.681-22.5377Q136.433-22.5377 137.618-23.7439Q138.803-24.9501 138.803-26.673Q138.803-28.4118 137.618-29.5698Q136.433-30.7279 134.681-30.7279L66.5605-30.7279Q64.8507-30.7279 63.6445-29.5698Q62.4383-28.4118 62.4383-26.673Q62.4383-24.9501 63.6445-23.7439Q64.8507-22.5377 66.5605-22.5377ZM66.5605-3.67917L105.404-3.67917Q107.127-3.67917 108.327-4.88536Q109.526-6.09156 109.526-7.80113Q109.526-9.48593 108.341-10.6921Q107.156-11.8983 105.404-11.8983L66.5605-11.8983Q64.8507-11.8983 63.6445-10.6921Q62.4383-9.48593 62.4383-7.80113Q62.4383-6.09156 63.6445-4.88536Q64.8507-3.67917 66.5605-3.67917ZM37.5412 24.3601L144.394 24.3601Q154.897 24.3601 160.375 18.8697Q165.852 13.3793 165.852 3.01675L165.852-73.4218Q165.852-83.7843 160.375-89.2747Q154.897-94.7652 144.394-94.7652L37.5412-94.7652Q27.1142-94.7652 21.5991-89.2879Q16.084-83.8107 16.084-73.4218L16.084 3.01675Q16.084 13.4057 21.5991 18.8829Q27.1142 24.3601 37.5412 24.3601ZM38.987 9.88027Q34.8579 9.88027 32.6918 7.77696Q30.5258 5.67365 30.5258 1.38112L30.5258-71.7861Q30.5258-76.146 32.6918-78.2156Q34.8579-80.2853 38.987-80.2853L142.949-80.2853Q147.067-80.2853 149.239-78.2156Q151.41-76.146 151.41-71.7861L151.41 1.38112Q151.41 5.67365 149.239 7.77696Q147.067 9.88027 142.949 9.88027Z"/>
  </g>
  <g id="Semibold-L" transform="matrix(1 0 0 1 1952.64 1556)">
   <path d="M47.6354-57.7899Q50.0914-57.7899 51.7928-59.4821Q53.4942-61.1742 53.4942-63.6302Q53.4942-66.0244 51.7928-67.7348Q50.0914-69.4452 47.6354-69.4452Q45.2597-69.4452 43.5399-67.7038Q41.82-65.9623 41.82-63.6302Q41.82-61.2359 43.5399-59.5129Q45.2597-57.7899 47.6354-57.7899ZM47.6354-39.1287Q50.0914-39.1287 51.7928-40.8485Q53.4942-42.5684 53.4942-44.944Q53.4942-47.4001 51.7928-49.1015Q50.0914-50.8029 47.6354-50.8029Q45.2597-50.8029 43.5399-49.0799Q41.82-47.3569 41.82-44.944Q41.82-42.5684 43.5399-40.8485Q45.2597-39.1287 47.6354-39.1287ZM47.6354-20.5418Q50.0914-20.5418 51.7928-22.2337Q53.4942-23.9257 53.4942-26.3817Q53.4942-28.8009 51.8021-30.4897Q50.11-32.1785 47.6354-32.1785Q45.2411-32.1785 43.5306-30.4679Q41.82-28.7574 41.82-26.3817Q41.82-23.9257 43.5306-22.2337Q45.2411-20.5418 47.6354-20.5418ZM47.6354-1.14944Q50.0914-1.14944 51.7928-2.85083Q53.4942-4.55222 53.4942-6.98966Q53.4942-9.4022 51.7928-11.0943Q50.0914-12.7864 47.6354-12.7864Q45.2597-12.7864 43.5399-11.0634Q41.82-9.34041 41.82-6.98966Q41.82-4.61401 43.5399-2.88172Q45.2597-1.14944 47.6354-1.14944ZM65.8605-59.7425L136.025-59.7425Q137.672-59.7425 138.783-60.8723Q139.894-62.0021 139.894-63.6302Q139.894-65.1962 138.774-66.3478Q137.653-67.4993 136.025-67.4993L65.8605-67.4993Q64.2507-67.4993 63.1209-66.3478Q61.9911-65.1962 61.9911-63.6302Q61.9911-62.0021 63.1209-60.8723Q64.2507-59.7425 65.8605-59.7425ZM65.8605-41.0749L105.696-41.0749Q107.324-41.0749 108.445-42.2171Q109.565-43.3594 109.565-44.944Q109.565-46.5722 108.454-47.7019Q107.343-48.8317 105.696-48.8317L65.8605-48.8317Q64.2507-48.8317 63.1209-47.7019Q61.9911-46.5722 61.9911-44.944Q61.9911-43.3594 63.1209-42.2171Q64.2507-41.0749 65.8605-41.0749ZM65.8605-22.494L136.025-22.494Q137.672-22.494 138.783-23.6238Q139.894-24.7536 139.894-26.3817Q139.894-28.0098 138.783-29.0995Q137.672-30.1891 136.025-30.1891L65.8605-30.1891Q64.2507-30.1891 63.1209-29.0995Q61.9911-28.0098 61.9911-26.3817Q61.9911-24.7536 63.1209-23.6238Q64.2507-22.494 65.8605-22.494ZM65.8605-3.12055L105.696-3.12055Q107.324-3.12055 108.445-4.25034Q109.565-5.38014 109.565-6.98966Q109.565-8.57428 108.454-9.70408Q107.343-10.8339 105.696-10.8339L65.8605-10.8339Q64.2507-10.8339 63.1209-9.70408Q61.9911-8.57428 61.9911-6.98966Q61.9911-5.38014 63.1209-4.25034Q64.2507-3.12055 65.8605-3.12055ZM36.6518 23.5711L144.606 23.5711Q154.761 23.5711 159.967 18.3457Q165.174 13.1203 165.174 3.13329L165.174-73.5488Q165.174-83.5358 159.967-88.7612Q154.761-93.9866 144.606-93.9866L36.6518-93.9866Q26.5843-93.9866 21.3341-88.7797Q16.084-83.5728 16.084-73.5488L16.084 3.13329Q16.084 13.1572 21.3341 18.3642Q26.5843 23.5711 36.6518 23.5711ZM37.6298 11.1944Q33.141 11.1944 30.7791 8.88196Q28.4171 6.5695 28.4171 1.93852L28.4171-72.354Q28.4171-77.0471 30.7791-79.3285Q33.141-81.6099 37.6298-81.6099L143.628-81.6099Q148.08-81.6099 150.461-79.3285Q152.841-77.0471 152.841-72.354L152.841 1.93852Q152.841 6.5695 150.461 8.88196Q148.08 11.1944 143.628 11.1944Z"/>
  </g>
  <g id="Medium-L" transform="matrix(1 0 0 1 1656.18 1556)">
   <path d="M46.3821-58.4291Q48.8302-58.4291 50.5257-60.1193Q52.2211-61.8095 52.2211-64.2576Q52.2211-66.6358 50.5257-68.3422Q48.8302-70.0486 46.3821-70.0486Q44.0144-70.0486 42.3026-68.3131Q40.5908-66.5776 40.5908-64.2576Q40.5908-61.8673 42.3026-60.1482Q44.0144-58.4291 46.3821-58.4291ZM46.3821-39.3539Q48.8302-39.3539 50.5257-41.0657Q52.2211-42.7775 52.2211-45.1452Q52.2211-47.5933 50.5257-49.2888Q48.8302-50.9842 46.3821-50.9842Q44.0144-50.9842 42.3026-49.2651Q40.5908-47.5461 40.5908-45.1452Q40.5908-42.7775 42.3026-41.0657Q44.0144-39.3539 46.3821-39.3539ZM46.3821-20.3328Q48.8302-20.3328 50.5257-22.0228Q52.2211-23.7128 52.2211-26.1609Q52.2211-28.5762 50.5309-30.259Q48.8407-31.9417 46.3821-31.9417Q44.0039-31.9417 42.2973-30.2352Q40.5908-28.5286 40.5908-26.1609Q40.5908-23.7128 42.2973-22.0228Q44.0039-20.3328 46.3821-20.3328ZM46.3821-0.558027Q48.8302-0.558027 50.5257-2.25347Q52.2211-3.94891 52.2211-6.37437Q52.2211-8.77483 50.5257-10.465Q48.8302-12.1552 46.3821-12.1552Q44.0144-12.1552 42.3026-10.4361Q40.5908-8.71706 40.5908-6.37437Q40.5908-4.00668 42.3026-2.28235Q44.0144-0.558027 46.3821-0.558027ZM65.3298-60.5576L137.044-60.5576Q138.611-60.5576 139.666-61.6294Q140.722-62.7013 140.722-64.2576Q140.722-65.7436 139.661-66.8393Q138.601-67.935 137.044-67.935L65.3298-67.935Q63.7957-67.935 62.7238-66.8393Q61.652-65.7436 61.652-64.2576Q61.652-62.7013 62.7238-61.6294Q63.7957-60.5576 65.3298-60.5576ZM65.3298-41.4678L105.917-41.4678Q107.474-41.4678 108.534-42.5522Q109.595-43.6366 109.595-45.1452Q109.595-46.7015 108.539-47.7673Q107.484-48.8331 105.917-48.8331L65.3298-48.8331Q63.7957-48.8331 62.7238-47.7673Q61.652-46.7015 61.652-45.1452Q61.652-43.6366 62.7238-42.5522Q63.7957-41.4678 65.3298-41.4678ZM65.3298-22.4609L137.044-22.4609Q138.611-22.4609 139.666-23.5327Q140.722-24.6046 140.722-26.1609Q140.722-27.7051 139.666-28.7428Q138.611-29.7805 137.044-29.7805L65.3298-29.7805Q63.7957-29.7805 62.7238-28.7428Q61.652-27.7051 61.652-26.1609Q61.652-24.6046 62.7238-23.5327Q63.7957-22.4609 65.3298-22.4609ZM65.3298-2.69698L105.917-2.69698Q107.474-2.69698 108.534-3.76884Q109.595-4.84071 109.595-6.37437Q109.595-7.88303 108.539-8.9549Q107.484-10.0268 105.917-10.0268L65.3298-10.0268Q63.7957-10.0268 62.7238-8.9549Q61.652-7.88303 61.652-6.37437Q61.652-4.84071 62.7238-3.76884Q63.7957-2.69698 65.3298-2.69698ZM35.9773 22.9728L144.767 22.9728Q154.657 22.9728 159.659 17.9484Q164.661 12.9239 164.661 3.22165L164.661-73.6451Q164.661-83.3474 159.659-88.3719Q154.657-93.3963 144.767-93.3963L35.9773-93.3963Q26.1825-93.3963 21.1332-88.3943Q16.084-83.3923 16.084-73.6451L16.084 3.22165Q16.084 12.9688 21.1332 17.9708Q26.1825 22.9728 35.9773 22.9728ZM36.6007 12.1909Q31.8392 12.1909 29.3288 9.71982Q26.8183 7.24878 26.8183 2.36116L26.8183-72.7846Q26.8183-77.7304 29.3288-80.1724Q31.8392-82.6143 36.6007-82.6143L144.144-82.6143Q148.848-82.6143 151.387-80.1724Q153.926-77.7304 153.926-72.7846L153.926 2.36116Q153.926 7.24878 151.387 9.71982Q148.848 12.1909 144.144 12.1909Z"/>
  </g>
  <g id="Regular-L" transform="matrix(1 0 0 1 1359.81 1556)">
   <path d="M44.7475-59.2628Q47.1852-59.2628 48.8728-60.9505Q50.5605-62.6382 50.5605-65.0759Q50.5605-67.4332 48.8728-69.1343Q47.1852-70.8355 44.7475-70.8355Q42.3901-70.8355 40.6888-69.1078Q38.9874-67.3802 38.9874-65.0759Q38.9874-62.6907 40.6888-60.9768Q42.3901-59.2628 44.7475-59.2628ZM44.7475-39.6476Q47.1852-39.6476 48.8728-41.349Q50.5605-43.0504 50.5605-45.4077Q50.5605-47.8454 48.8728-49.5331Q47.1852-51.2207 44.7475-51.2207Q42.3901-51.2207 40.6888-49.5068Q38.9874-47.7928 38.9874-45.4077Q38.9874-43.0504 40.6888-41.349Q42.3901-39.6476 44.7475-39.6476ZM44.7475-20.0602Q47.1852-20.0602 48.8728-21.7477Q50.5605-23.4351 50.5605-25.8728Q50.5605-28.2832 48.8728-29.958Q47.1852-31.6329 44.7475-31.6329Q42.3901-31.6329 40.6888-29.9315Q38.9874-28.2302 38.9874-25.8728Q38.9874-23.4351 40.6888-21.7477Q42.3901-20.0602 44.7475-20.0602ZM44.7475 0.213376Q47.1852 0.213376 48.8728-1.4743Q50.5605-3.16197 50.5605-5.57181Q50.5605-7.95653 48.8728-9.6442Q47.1852-11.3319 44.7475-11.3319Q42.3901-11.3319 40.6888-9.61793Q38.9874-7.90399 38.9874-5.57181Q38.9874-3.21451 40.6888-1.50057Q42.3901 0.213376 44.7475 0.213376ZM64.6374-61.6207L138.374-61.6207Q139.836-61.6207 140.819-62.617Q141.801-63.6133 141.801-65.0759Q141.801-66.4576 140.819-67.4804Q139.836-68.5032 138.374-68.5032L64.6374-68.5032Q63.2023-68.5032 62.206-67.4804Q61.2097-66.4576 61.2097-65.0759Q61.2097-63.6133 62.206-62.617Q63.2023-61.6207 64.6374-61.6207ZM64.6374-41.9803L106.206-41.9803Q107.668-41.9803 108.651-42.9892Q109.633-43.9981 109.633-45.4077Q109.633-46.8702 108.651-47.8526Q107.668-48.835 106.206-48.835L64.6374-48.835Q63.2023-48.835 62.206-47.8526Q61.2097-46.8702 61.2097-45.4077Q61.2097-43.9981 62.206-42.9892Q63.2023-41.9803 64.6374-41.9803ZM64.6374-22.4177L138.374-22.4177Q139.836-22.4177 140.819-23.414Q141.801-24.4103 141.801-25.8728Q141.801-27.3076 140.819-28.2776Q139.836-29.2476 138.374-29.2476L64.6374-29.2476Q63.2023-29.2476 62.206-28.2776Q61.2097-27.3076 61.2097-25.8728Q61.2097-24.4103 62.206-23.414Q63.2023-22.4177 64.6374-22.4177ZM64.6374-2.1445L106.206-2.1445Q107.668-2.1445 108.651-3.1408Q109.633-4.1371 109.633-5.57181Q109.633-6.9814 108.651-7.9777Q107.668-8.97401 106.206-8.97401L64.6374-8.97401Q63.2023-8.97401 62.206-7.9777Q61.2097-6.9814 61.2097-5.57181Q61.2097-4.1371 62.206-3.1408Q63.2023-2.1445 64.6374-2.1445ZM35.0976 22.1925L144.977 22.1925Q154.522 22.1925 159.256 17.4301Q163.991 12.6678 163.991 3.33691L163.991-73.7708Q163.991-83.1017 159.256-87.864Q154.522-92.6263 144.977-92.6263L35.0976-92.6263Q25.6584-92.6263 20.8712-87.8916Q16.084-83.157 16.084-73.7708L16.084 3.33691Q16.084 12.7231 20.8712 17.4578Q25.6584 22.1925 35.0976 22.1925ZM35.2585 13.4906Q30.1412 13.4906 27.437 10.8127Q24.7329 8.13479 24.7329 2.91244L24.7329-73.3463Q24.7329-78.6217 27.437-81.273Q30.1412-83.9244 35.2585-83.9244L144.816-83.9244Q149.85-83.9244 152.596-81.273Q155.342-78.6217 155.342-73.3463L155.342 2.91244Q155.342 8.13479 152.596 10.8127Q149.85 13.4906 144.816 13.4906Z"/>
  </g>
  <g id="Light-L" transform="matrix(1 0 0 1 1063.53 1556)">
   <path d="M43.106-59.8926Q45.5056-59.8926 47.1647-61.5517Q48.8238-63.2109 48.8238-65.6104Q48.8238-67.9296 47.1647-69.6115Q45.5056-71.2934 43.106-71.2934Q40.7869-71.2934 39.1046-69.5944Q37.4223-67.8955 37.4223-65.6104Q37.4223-63.2442 39.1046-61.5684Q40.7869-59.8926 43.106-59.8926ZM43.106-39.8384Q45.5056-39.8384 47.1647-41.5207Q48.8238-43.203 48.8238-45.5221Q48.8238-47.9217 47.1647-49.5808Q45.5056-51.24 43.106-51.24Q40.7869-51.24 39.1046-49.5642Q37.4223-47.8884 37.4223-45.5221Q37.4223-43.203 39.1046-41.5207Q40.7869-39.8384 43.106-39.8384ZM43.106-19.8313Q45.5056-19.8313 47.1647-21.49Q48.8238-23.1488 48.8238-25.5483Q48.8238-27.9016 47.1647-29.5668Q45.5056-31.2321 43.106-31.2321Q40.7869-31.2321 39.1046-29.5498Q37.4223-27.8675 37.4223-25.5483Q37.4223-23.1488 39.1046-21.49Q40.7869-19.8313 43.106-19.8313ZM43.106 0.614195Q45.5056 0.614195 47.1647-1.04494Q48.8238-2.70407 48.8238-5.05652Q48.8238-7.422 47.1647-9.08113Q45.5056-10.7403 43.106-10.7403Q40.7869-10.7403 39.1046-9.06448Q37.4223-7.3887 37.4223-5.05652Q37.4223-2.73737 39.1046-1.06159Q40.7869 0.614195 43.106 0.614195ZM64.1795-62.8232L140.13-62.8232Q141.325-62.8232 142.097-63.619Q142.87-64.4149 142.87-65.6104Q142.87-66.7247 142.097-67.5376Q141.325-68.3506 140.13-68.3506L64.1795-68.3506Q63.0304-68.3506 62.2345-67.5376Q61.4386-66.7247 61.4386-65.6104Q61.4386-64.4149 62.2345-63.619Q63.0304-62.8232 64.1795-62.8232ZM64.1795-42.782L107.962-42.782Q109.157-42.782 109.93-43.5714Q110.702-44.3607 110.702-45.5221Q110.702-46.7176 109.93-47.49Q109.157-48.2623 107.962-48.2623L64.1795-48.2623Q63.0304-48.2623 62.2345-47.49Q61.4386-46.7176 61.4386-45.5221Q61.4386-44.3607 62.2345-43.5714Q63.0304-42.782 64.1795-42.782ZM64.1795-22.7611L140.13-22.7611Q141.325-22.7611 142.097-23.557Q142.87-24.3529 142.87-25.5483Q142.87-26.6967 142.097-27.476Q141.325-28.2552 140.13-28.2552L64.1795-28.2552Q63.0304-28.2552 62.2345-27.476Q61.4386-26.6967 61.4386-25.5483Q61.4386-24.3529 62.2345-23.557Q63.0304-22.7611 64.1795-22.7611ZM64.1795-2.31637L107.962-2.31637Q109.157-2.31637 109.93-3.11226Q110.702-3.90815 110.702-5.05652Q110.702-6.21792 109.93-7.01381Q109.157-7.8097 107.962-7.8097L64.1795-7.8097Q63.0304-7.8097 62.2345-7.01381Q61.4386-6.21792 61.4386-5.05652Q61.4386-3.90815 62.2345-3.11226Q63.0304-2.31637 64.1795-2.31637ZM34.067 21.3338L145.13 21.3338Q154.102 21.3338 158.607 16.7813Q163.113 12.2288 163.113 3.45138L163.113-73.9234Q163.113-82.7008 158.607-87.2533Q154.102-91.8058 145.13-91.8058L34.067-91.8058Q25.1621-91.8058 20.623-87.3Q16.084-82.7943 16.084-73.9234L16.084 3.45138Q16.084 12.3223 20.623 16.828Q25.1621 21.3338 34.067 21.3338ZM34.2279 14.6738Q28.5761 14.6738 25.643 11.7573Q22.7099 8.84087 22.7099 3.12247L22.7099-73.5945Q22.7099-79.347 25.643-82.2464Q28.5761-85.1458 34.2279-85.1458L144.969-85.1458Q150.48-85.1458 153.483-82.2464Q156.487-79.347 156.487-73.5945L156.487 3.12247Q156.487 8.84087 153.483 11.7573Q150.48 14.6738 144.969 14.6738Z"/>
  </g>
  <g id="Thin-L" transform="matrix(1 0 0 1 767.404 1556)">
   <path d="M40.9351-60.7255Q43.2842-60.7255 44.9056-62.3469Q46.527-63.9683 46.527-66.3174Q46.527-68.5861 44.9056-70.2425Q43.2842-71.899 40.9351-71.899Q38.6664-71.899 37.0093-70.238Q35.3523-68.577 35.3523-66.3174Q35.3523-63.9761 37.0093-62.3508Q38.6664-60.7255 40.9351-60.7255ZM40.9351-40.0907Q43.2842-40.0907 44.9056-41.7478Q46.527-43.4049 46.527-45.6735Q46.527-48.0226 44.9056-49.644Q43.2842-51.2654 40.9351-51.2654Q38.6664-51.2654 37.0093-49.6401Q35.3523-48.0148 35.3523-45.6735Q35.3523-43.4049 37.0093-41.7478Q38.6664-40.0907 40.9351-40.0907ZM40.9351-19.5285Q43.2842-19.5285 44.9056-21.1493Q46.527-22.7701 46.527-25.1192Q46.527-27.3969 44.9056-29.0494Q43.2842-30.702 40.9351-30.702Q38.6664-30.702 37.0093-29.0449Q35.3523-27.3878 35.3523-25.1192Q35.3523-22.7701 37.0093-21.1493Q38.6664-19.5285 40.9351-19.5285ZM40.9351 1.14431Q43.2842 1.14431 44.9056-0.477079Q46.527-2.09847 46.527-4.375Q46.527-6.71503 44.9056-8.33642Q43.2842-9.95782 40.9351-9.95782Q38.6664-9.95782 37.0093-8.3325Q35.3523-6.70718 35.3523-4.375Q35.3523-2.10632 37.0093-0.481006Q38.6664 1.14431 40.9351 1.14431ZM63.5739-64.4135L142.452-64.4135Q143.294-64.4135 143.789-64.9443Q144.283-65.4752 144.283-66.3174Q144.283-67.078 143.789-67.6133Q143.294-68.1487 142.452-68.1487L63.5739-68.1487Q62.8031-68.1487 62.2722-67.6133Q61.7414-67.078 61.7414-66.3174Q61.7414-65.4752 62.2722-64.9443Q62.8031-64.4135 63.5739-64.4135ZM63.5739-43.8422L110.284-43.8422Q111.126-43.8422 111.621-44.3413Q112.115-44.8404 112.115-45.6735Q112.115-46.5157 111.621-47.0103Q111.126-47.5049 110.284-47.5049L63.5739-47.5049Q62.8031-47.5049 62.2722-47.0103Q61.7414-46.5157 61.7414-45.6735Q61.7414-44.8404 62.2722-44.3413Q62.8031-43.8422 63.5739-43.8422ZM63.5739-23.2153L142.452-23.2153Q143.294-23.2153 143.789-23.7461Q144.283-24.2769 144.283-25.1192Q144.283-25.8888 143.789-26.4157Q143.294-26.9426 142.452-26.9426L63.5739-26.9426Q62.8031-26.9426 62.2722-26.4157Q61.7414-25.8888 61.7414-25.1192Q61.7414-24.2769 62.2722-23.7461Q62.8031-23.2153 63.5739-23.2153ZM63.5739-2.54368L110.284-2.54368Q111.126-2.54368 111.621-3.07452Q112.115-3.60535 112.115-4.375Q112.115-5.20815 111.621-5.73899Q111.126-6.26982 110.284-6.26982L63.5739-6.26982Q62.8031-6.26982 62.2722-5.73899Q61.7414-5.20815 61.7414-4.375Q61.7414-3.60535 62.2722-3.07452Q62.8031-2.54368 63.5739-2.54368ZM32.704 20.198L145.332 20.198Q153.547 20.198 157.749 15.9231Q161.952 11.6482 161.952 3.60278L161.952-74.1253Q161.952-82.1707 157.749-86.4456Q153.547-90.7205 145.332-90.7205L32.704-90.7205Q24.5056-90.7205 20.2948-86.5176Q16.084-82.3146 16.084-74.1253L16.084 3.60278Q16.084 11.7922 20.2948 15.9951Q24.5056 20.198 32.704 20.198ZM32.8648 16.2387Q26.5061 16.2387 23.2702 13.0067Q20.0343 9.77473 20.0343 3.40025L20.0343-73.9227Q20.0343-80.3063 23.2702-83.5337Q26.5061-86.7612 32.8648-86.7612L145.171-86.7612Q151.313-86.7612 154.657-83.5337Q158.001-80.3063 158.001-73.9227L158.001 3.40025Q158.001 9.77473 154.657 13.0067Q151.313 16.2387 145.171 16.2387Z"/>
  </g>
  <g id="Ultralight-L" transform="matrix(1 0 0 1 470.991 1556)">
   <path d="M39.8231-61.1521Q42.1464-61.1521 43.7484-62.7542Q45.3505-64.3562 45.3505-66.6795Q45.3505-68.9223 43.7484-70.5657Q42.1464-72.2092 39.8231-72.2092Q37.5803-72.2092 35.9362-70.5676Q34.292-68.9261 34.292-66.6795Q34.292-64.3511 35.9362-62.7516Q37.5803-61.1521 39.8231-61.1521ZM39.8231-40.22Q42.1464-40.22 43.7484-41.8641Q45.3505-43.5083 45.3505-45.7511Q45.3505-48.0743 43.7484-49.6764Q42.1464-51.2784 39.8231-51.2784Q37.5803-51.2784 35.9362-49.679Q34.292-48.0795 34.292-45.7511Q34.292-43.5083 35.9362-41.8641Q37.5803-40.22 39.8231-40.22ZM39.8231-19.3734Q42.1464-19.3734 43.7484-20.9747Q45.3505-22.5761 45.3505-24.8993Q45.3505-27.1384 43.7484-28.7844Q42.1464-30.4305 39.8231-30.4305Q37.5803-30.4305 35.9362-28.7863Q34.292-27.1422 34.292-24.8993Q34.292-22.5761 35.9362-20.9747Q37.5803-19.3734 39.8231-19.3734ZM39.8231 1.41583Q42.1464 1.41583 43.7484-0.186223Q45.3505-1.78828 45.3505-4.02593Q45.3505-6.35293 43.7484-7.95499Q42.1464-9.55705 39.8231-9.55705Q37.5803-9.55705 35.9362-7.95758Q34.292-6.35811 34.292-4.02593Q34.292-1.7831 35.9362-0.183634Q37.5803 1.41583 39.8231 1.41583ZM63.2637-65.2281L143.641-65.2281Q144.303-65.2281 144.655-65.6231Q145.007-66.0182 145.007-66.6795Q145.007-67.2589 144.655-67.6521Q144.303-68.0453 143.641-68.0453L63.2637-68.0453Q62.6866-68.0453 62.2916-67.6521Q61.8965-67.2589 61.8965-66.6795Q61.8965-66.0182 62.2916-65.6231Q62.6866-65.2281 63.2637-65.2281ZM63.2637-44.3853L111.474-44.3853Q112.135-44.3853 112.487-44.7357Q112.839-45.0861 112.839-45.7511Q112.839-46.4124 112.487-46.7646Q112.135-47.1169 111.474-47.1169L63.2637-47.1169Q62.6866-47.1169 62.2916-46.7646Q61.8965-46.4124 61.8965-45.7511Q61.8965-45.0861 62.2916-44.7357Q62.6866-44.3853 63.2637-44.3853ZM63.2637-23.4479L143.641-23.4479Q144.303-23.4479 144.655-23.843Q145.007-24.2381 145.007-24.8993Q145.007-25.475 144.655-25.8727Q144.303-26.2703 143.641-26.2703L63.2637-26.2703Q62.6866-26.2703 62.2916-25.8727Q61.8965-25.475 61.8965-24.8993Q61.8965-24.2381 62.2916-23.843Q62.6866-23.4479 63.2637-23.4479ZM63.2637-2.66011L111.474-2.66011Q112.135-2.66011 112.487-3.05518Q112.839-3.45026 112.839-4.02593Q112.839-4.69096 112.487-5.08603Q112.135-5.4811 111.474-5.4811L63.2637-5.4811Q62.6866-5.4811 62.2916-5.08603Q61.8965-4.69096 61.8965-4.02593Q61.8965-3.45026 62.2916-3.05518Q62.6866-2.66011 63.2637-2.66011ZM32.0059 19.6163L145.435 19.6163Q153.263 19.6163 157.31 15.4836Q161.357 11.3509 161.357 3.68033L161.357-74.2287Q161.357-81.8992 157.31-86.0319Q153.263-90.1647 145.435-90.1647L32.0059-90.1647Q24.1693-90.1647 20.1266-86.1168Q16.084-82.069 16.084-74.2287L16.084 3.68033Q16.084 11.5206 20.1266 15.5685Q24.1693 19.6163 32.0059 19.6163ZM32.1667 17.0402Q25.4458 17.0402 22.0548 13.6466Q18.6638 10.253 18.6638 3.54253L18.6638-74.0909Q18.6638-80.7976 22.0548-84.1931Q25.4458-87.5886 32.1667-87.5886L145.274-87.5886Q151.74-87.5886 155.258-84.1931Q158.777-80.7976 158.777-74.0909L158.777 3.54253Q158.777 10.253 155.258 13.6466Q151.74 17.0402 145.274 17.0402Z"/>
  </g>
  <g id="Black-M" transform="matrix(1 0 0 1 2861.97 1126)">
   <path d="M42.9868-49.5357Q44.9188-49.5357 46.2588-50.8471Q47.5987-52.1585 47.5987-54.0905Q47.5987-56.0173 46.2588-57.3572Q44.9188-58.697 42.9868-58.697Q41.1171-58.697 39.7487-57.3259Q38.3803-55.9548 38.3803-54.0905Q38.3803-52.2211 39.7487-50.8784Q41.1171-49.5357 42.9868-49.5357ZM42.9868-37.1221Q44.9188-37.1221 46.2588-38.4905Q47.5987-39.8589 47.5987-41.7286Q47.5987-43.6606 46.2588-45.0006Q44.9188-46.3406 42.9868-46.3406Q41.1171-46.3406 39.7487-44.9978Q38.3803-43.6551 38.3803-41.7286Q38.3803-39.8589 39.7487-38.4905Q41.1171-37.1221 42.9868-37.1221ZM42.9868-24.8796Q44.9188-24.8796 46.2588-26.191Q47.5987-27.5025 47.5987-29.4345Q47.5987-31.3097 46.2873-32.6468Q44.9759-33.9838 42.9868-33.9838Q41.06-33.9838 39.7201-32.644Q38.3803-31.3042 38.3803-29.4345Q38.3803-27.5025 39.7201-26.191Q41.06-24.8796 42.9868-24.8796ZM42.9868-11.8234Q44.9188-11.8234 46.2588-13.1634Q47.5987-14.5034 47.5987-16.4357Q47.5987-18.3622 46.2588-19.6736Q44.9188-20.985 42.9868-20.985Q41.1171-20.985 39.7487-19.6423Q38.3803-18.2996 38.3803-16.4357Q38.3803-14.566 39.7487-13.1947Q41.1171-11.8234 42.9868-11.8234ZM53.6814-50.3113L100.582-50.3113Q102.19-50.3113 103.276-51.4253Q104.361-52.5394 104.361-54.0905Q104.361-55.6365 103.247-56.7533Q102.133-57.8701 100.582-57.8701L53.6814-57.8701Q52.13-57.8701 51.0159-56.7533Q49.9019-55.6365 49.9019-54.0905Q49.9019-52.5394 51.0159-51.4253Q52.13-50.3113 53.6814-50.3113ZM53.6814-37.9491L81.3124-37.9491Q82.8636-37.9491 83.9778-39.066Q85.092-40.1829 85.092-41.7286Q85.092-43.2798 84.0063-44.4225Q82.9207-45.5652 81.3124-45.5652L53.6814-45.5652Q52.13-45.5652 51.0159-44.4225Q49.9019-43.2798 49.9019-41.7286Q49.9019-40.1829 51.0159-39.066Q52.13-37.9491 53.6814-37.9491ZM53.6814-25.6552L100.582-25.6552Q102.19-25.6552 103.276-26.7693Q104.361-27.8833 104.361-29.4345Q104.361-31.043 103.276-32.0972Q102.19-33.1514 100.582-33.1514L53.6814-33.1514Q52.13-33.1514 51.0159-32.0972Q49.9019-31.043 49.9019-29.4345Q49.9019-27.8833 51.0159-26.7693Q52.13-25.6552 53.6814-25.6552ZM53.6814-12.6561L81.3124-12.6561Q82.8636-12.6561 83.9778-13.7702Q85.092-14.8842 85.092-16.4357Q85.092-17.9813 84.0063-19.0954Q82.9207-20.2094 81.3124-20.2094L53.6814-20.2094Q52.13-20.2094 51.0159-19.0954Q49.9019-17.9813 49.9019-16.4357Q49.9019-14.8842 51.0159-13.7702Q52.13-12.6561 53.6814-12.6561ZM31.6184 13.2035L111.233 13.2035Q120.306 13.2035 125.348 8.16184Q130.39 3.12015 130.39-5.93747L130.39-64.4586Q130.39-73.5163 125.348-78.558Q120.306-83.5996 111.233-83.5996L31.6184-83.5996Q22.5559-83.5996 17.5084-78.5577Q12.4609-73.5157 12.4609-64.4586L12.4609-5.93747Q12.4609 3.11958 17.5084 8.16155Q22.5559 13.2035 31.6184 13.2035ZM34.2553-4.13991Q32.0407-4.13991 30.9198-5.17241Q29.7989-6.20491 29.7989-8.60178L29.7989-61.7943Q29.7989-64.2538 30.9198-65.255Q32.0407-66.2562 34.2553-66.2562L108.596-66.2562Q110.868-66.2562 111.96-65.255Q113.052-64.2538 113.052-61.7943L113.052-8.60178Q113.052-6.20491 111.96-5.17241Q110.868-4.13991 108.596-4.13991Z"/>
  </g>
  <g id="Heavy-M" transform="matrix(1 0 0 1 2565.6 1126)">
   <path d="M41.2442-50.469Q43.1711-50.469 44.5073-51.7833Q45.8434-53.0976 45.8434-55.0245Q45.8434-56.9328 44.5073-58.27Q43.1711-59.6073 41.2442-59.6073Q39.3796-59.6073 38.0205-58.24Q36.6615-56.8727 36.6615-55.0245Q36.6615-53.1577 38.0205-51.8133Q39.3796-50.469 41.2442-50.469ZM41.2442-37.4576Q43.1711-37.4576 44.5073-38.8167Q45.8434-40.1758 45.8434-42.0404Q45.8434-43.9673 44.5073-45.3034Q43.1711-46.6396 41.2442-46.6396Q39.3796-46.6396 38.0205-45.2952Q36.6615-43.9509 36.6615-42.0404Q36.6615-40.1758 38.0205-38.8167Q39.3796-37.4576 41.2442-37.4576ZM41.2442-24.5794Q43.1711-24.5794 44.5073-25.8938Q45.8434-27.2081 45.8434-29.135Q45.8434-31.016 44.5291-32.3451Q43.2148-33.6741 41.2442-33.6741Q39.336-33.6741 37.9987-32.3368Q36.6615-30.9996 36.6615-29.135Q36.6615-27.2081 37.9987-25.8938Q39.336-24.5794 41.2442-24.5794ZM41.2442-10.9208Q43.1711-10.9208 44.5073-12.257Q45.8434-13.5931 45.8434-15.5177Q45.8434-17.4282 44.5073-18.7425Q43.1711-20.0569 41.2442-20.0569Q39.3796-20.0569 38.0205-18.7125Q36.6615-17.3682 36.6615-15.5177Q36.6615-13.6531 38.0205-12.287Q39.3796-10.9208 41.2442-10.9208ZM52.8924-51.4156L101.908-51.4156Q103.441-51.4156 104.478-52.4759Q105.515-53.5361 105.515-55.0245Q105.515-56.4942 104.456-57.5627Q103.397-58.6312 101.908-58.6312L52.8924-58.6312Q51.4062-58.6312 50.346-57.5627Q49.2858-56.4942 49.2858-55.0245Q49.2858-53.5361 50.346-52.4759Q51.4062-51.4156 52.8924-51.4156ZM52.8924-38.4338L81.3051-38.4338Q82.7936-38.4338 83.8527-39.5011Q84.9117-40.5684 84.9117-42.0404Q84.9117-43.5288 83.8745-44.6097Q82.8372-45.6906 81.3051-45.6906L52.8924-45.6906Q51.4062-45.6906 50.346-44.6097Q49.2858-43.5288 49.2858-42.0404Q49.2858-40.5684 50.346-39.5011Q51.4062-38.4338 52.8924-38.4338ZM52.8924-25.5261L101.908-25.5261Q103.441-25.5261 104.478-26.5863Q105.515-27.6465 105.515-29.135Q105.515-30.6647 104.478-31.6732Q103.441-32.6816 101.908-32.6816L52.8924-32.6816Q51.4062-32.6816 50.346-31.6732Q49.2858-30.6647 49.2858-29.135Q49.2858-27.6465 50.346-26.5863Q51.4062-25.5261 52.8924-25.5261ZM52.8924-11.9111L81.3051-11.9111Q82.7936-11.9111 83.8527-12.9713Q84.9117-14.0316 84.9117-15.5177Q84.9117-16.9897 83.8745-18.05Q82.8372-19.1102 81.3051-19.1102L52.8924-19.1102Q51.4062-19.1102 50.346-18.05Q49.2858-16.9897 49.2858-15.5177Q49.2858-14.0316 50.346-12.9713Q51.4062-11.9111 52.8924-11.9111ZM30.7123 12.3878L111.469 12.3878Q120.223 12.3878 124.971 7.63698Q129.72 2.88617 129.72-5.81434L129.72-64.5869Q129.72-73.2874 124.971-78.0382Q120.223-82.789 111.469-82.789L30.7123-82.789Q21.9908-82.789 17.2259-78.0405Q12.4609-73.2919 12.4609-64.5869L12.4609-5.81434Q12.4609 2.89071 17.2259 7.63926Q21.9908 12.3878 30.7123 12.3878ZM32.7562-2.72825Q30.2005-2.72825 28.8805-3.97461Q27.5605-5.22098 27.5605-7.94033L27.5605-62.4609Q27.5605-65.2403 28.8805-66.4566Q30.2005-67.673 32.7562-67.673L109.425-67.673Q112.017-67.673 113.319-66.4566Q114.62-65.2403 114.62-62.4609L114.62-7.94033Q114.62-5.22098 113.319-3.97461Q112.017-2.72825 109.425-2.72825Z"/>
  </g>
  <g id="Bold-M" transform="matrix(1 0 0 1 2269.26 1126)">
   <path d="M39.2949-51.513Q41.2161-51.513 42.548-52.8306Q43.8799-54.1482 43.8799-56.0693Q43.8799-57.9568 42.548-59.2911Q41.2161-60.6255 39.2949-60.6255Q37.4361-60.6255 36.0874-59.2625Q34.7387-57.8996 34.7387-56.0693Q34.7387-54.2053 36.0874-52.8591Q37.4361-51.513 39.2949-51.513ZM39.2949-37.8329Q41.2161-37.8329 42.548-39.1816Q43.8799-40.5303 43.8799-42.3892Q43.8799-44.3103 42.548-45.6422Q41.2161-46.9741 39.2949-46.9741Q37.4361-46.9741 36.0874-45.6279Q34.7387-44.2818 34.7387-42.3892Q34.7387-40.5303 36.0874-39.1816Q37.4361-37.8329 39.2949-37.8329ZM39.2949-24.2437Q41.2161-24.2437 42.548-25.5612Q43.8799-26.8788 43.8799-28.7999Q43.8799-30.6875 42.5623-32.0076Q41.2447-33.3277 39.2949-33.3277Q37.4075-33.3277 36.0731-31.9932Q34.7387-30.6588 34.7387-28.7999Q34.7387-26.8788 36.0731-25.5612Q37.4075-24.2437 39.2949-24.2437ZM39.2949-9.91112Q41.2161-9.91112 42.548-11.243Q43.8799-12.5749 43.8799-14.4909Q43.8799-16.3834 42.548-17.701Q41.2161-19.0186 39.2949-19.0186Q37.4361-19.0186 36.0874-17.6724Q34.7387-16.3263 34.7387-14.4909Q34.7387-12.632 36.0874-11.2716Q37.4361-9.91112 39.2949-9.91112ZM52.0098-52.651L103.393-52.651Q104.839-52.651 105.823-53.651Q106.806-54.6511 106.806-56.0693Q106.806-57.4538 105.808-58.4681Q104.811-59.4825 103.393-59.4825L52.0098-59.4825Q50.5967-59.4825 49.5966-58.4681Q48.5965-57.4538 48.5965-56.0693Q48.5965-54.6511 49.5966-53.651Q50.5967-52.651 52.0098-52.651ZM52.0098-38.976L81.297-38.976Q82.7152-38.976 83.7127-39.9878Q84.7102-40.9996 84.7102-42.3892Q84.7102-43.8074 83.727-44.8192Q82.7438-45.8309 81.297-45.8309L52.0098-45.8309Q50.5967-45.8309 49.5966-44.8192Q48.5965-43.8074 48.5965-42.3892Q48.5965-40.9996 49.5966-39.9878Q50.5967-38.976 52.0098-38.976ZM52.0098-25.3816L103.393-25.3816Q104.839-25.3816 105.823-26.3816Q106.806-27.3817 106.806-28.7999Q106.806-30.2416 105.823-31.1988Q104.839-32.156 103.393-32.156L52.0098-32.156Q50.5967-32.156 49.5966-31.1988Q48.5965-30.2416 48.5965-28.7999Q48.5965-27.3817 49.5966-26.3816Q50.5967-25.3816 52.0098-25.3816ZM52.0098-11.0777L81.297-11.0777Q82.7152-11.0777 83.7127-12.0777Q84.7102-13.0778 84.7102-14.4909Q84.7102-15.8805 83.727-16.8805Q82.7438-17.8806 81.297-17.8806L52.0098-17.8806Q50.5967-17.8806 49.5966-16.8805Q48.5965-15.8805 48.5965-14.4909Q48.5965-13.0778 49.5966-12.0777Q50.5967-11.0777 52.0098-11.0777ZM29.6986 11.4753L111.733 11.4753Q120.13 11.4753 124.55 7.04986Q128.97 2.62443 128.97-5.6766L128.97-64.7303Q128.97-73.0314 124.55-77.4568Q120.13-81.8822 111.733-81.8822L29.6986-81.8822Q21.3587-81.8822 16.9098-77.4619Q12.4609-73.0416 12.4609-64.7303L12.4609-5.6766Q12.4609 2.63469 16.9098 7.05499Q21.3587 11.4753 29.6986 11.4753ZM31.0794-1.14909Q28.1421-1.14909 26.5994-2.6347Q25.0566-4.12032 25.0566-7.2004L25.0566-63.2065Q25.0566-66.3438 26.5994-67.8008Q28.1421-69.2579 31.0794-69.2579L110.352-69.2579Q113.302-69.2579 114.839-67.8008Q116.375-66.3438 116.375-63.2065L116.375-7.2004Q116.375-4.12032 114.839-2.6347Q113.302-1.14909 110.352-1.14909Z"/>
  </g>
  <g id="Semibold-M" transform="matrix(1 0 0 1 1972.81 1126)">
   <path d="M37.9511-52.2327Q39.8683-52.2327 41.1973-53.5525Q42.5262-54.8724 42.5262-56.7896Q42.5262-58.6627 41.1973-59.9951Q39.8683-61.3275 37.9511-61.3275Q36.0962-61.3275 34.7547-59.9675Q33.4131-58.6075 33.4131-56.7896Q33.4131-54.9275 34.7547-53.5801Q36.0962-52.2327 37.9511-52.2327ZM37.9511-38.0916Q39.8683-38.0916 41.1973-39.4331Q42.5262-40.7747 42.5262-42.6296Q42.5262-44.5468 41.1973-45.8758Q39.8683-47.2047 37.9511-47.2047Q36.0962-47.2047 34.7547-45.8573Q33.4131-44.5099 33.4131-42.6296Q33.4131-40.7747 34.7547-39.4331Q36.0962-38.0916 37.9511-38.0916ZM37.9511-24.0122Q39.8683-24.0122 41.1973-25.332Q42.5262-26.6517 42.5262-28.569Q42.5262-30.461 41.2064-31.7749Q39.8865-33.0888 37.9511-33.0888Q36.078-33.0888 34.7456-31.7564Q33.4131-30.4239 33.4131-28.569Q33.4131-26.6517 34.7456-25.332Q36.078-24.0122 37.9511-24.0122ZM37.9511-9.21505Q39.8683-9.21505 41.1973-10.544Q42.5262-11.8729 42.5262-13.783Q42.5262-15.6631 41.1973-16.983Q39.8683-18.3028 37.9511-18.3028Q36.0962-18.3028 34.7547-16.9554Q33.4131-15.608 33.4131-13.783Q33.4131-11.928 34.7547-10.5715Q36.0962-9.21505 37.9511-9.21505ZM51.4014-53.5026L104.416-53.5026Q105.804-53.5026 106.75-54.4612Q107.696-55.4198 107.696-56.7896Q107.696-58.1152 106.741-59.0924Q105.786-60.0695 104.416-60.0695L51.4014-60.0695Q50.0386-60.0695 49.08-59.0924Q48.1214-58.1152 48.1214-56.7896Q48.1214-55.4198 49.08-54.4612Q50.0386-53.5026 51.4014-53.5026ZM51.4014-39.3497L81.2913-39.3497Q82.6612-39.3497 83.6162-40.3233Q84.5712-41.2968 84.5712-42.6296Q84.5712-43.9995 83.6253-44.9635Q82.6793-45.9276 81.2913-45.9276L51.4014-45.9276Q50.0386-45.9276 49.08-44.9635Q48.1214-43.9995 48.1214-42.6296Q48.1214-41.2968 49.08-40.3233Q50.0386-39.3497 51.4014-39.3497ZM51.4014-25.282L104.416-25.282Q105.804-25.282 106.75-26.2405Q107.696-27.1991 107.696-28.569Q107.696-29.9498 106.75-30.8718Q105.804-31.7937 104.416-31.7937L51.4014-31.7937Q50.0386-31.7937 49.08-30.8718Q48.1214-29.9498 48.1214-28.569Q48.1214-27.1991 49.08-26.2405Q50.0386-25.282 51.4014-25.282ZM51.4014-10.5031L81.2913-10.5031Q82.6612-10.5031 83.6162-11.4617Q84.5712-12.4203 84.5712-13.783Q84.5712-15.1157 83.6253-16.0743Q82.6793-17.0329 81.2913-17.0329L51.4014-17.0329Q50.0386-17.0329 49.08-16.0743Q48.1214-15.1157 48.1214-13.783Q48.1214-12.4203 49.08-11.4617Q50.0386-10.5031 51.4014-10.5031ZM28.9999 10.8462L111.915 10.8462Q120.066 10.8462 124.26 6.6451Q128.454 2.44398 128.454-5.58164L128.454-64.8293Q128.454-72.8549 124.26-77.056Q120.066-81.2571 111.915-81.2571L28.9999-81.2571Q20.9229-81.2571 16.6919-77.0631Q12.4609-72.8691 12.4609-64.8293L12.4609-5.58164Q12.4609 2.45819 16.6919 6.6522Q20.9229 10.8462 28.9999 10.8462ZM29.9234-0.0604358Q26.723-0.0604358 25.0267-1.71098Q23.3305-3.36152 23.3305-6.6903L23.3305-63.7206Q23.3305-67.1046 25.0267-68.7275Q26.723-70.3505 29.9234-70.3505L110.991-70.3505Q114.188-70.3505 115.886-68.7275Q117.584-67.1046 117.584-63.7206L117.584-6.6903Q117.584-3.36152 115.886-1.71098Q114.188-0.0604358 110.991-0.0604358Z"/>
  </g>
  <g id="Medium-M" transform="matrix(1 0 0 1 1676.29 1126)">
   <path d="M36.9322-52.7784Q38.8464-52.7784 40.1731-54.1Q41.4998-55.4215 41.4998-57.3358Q41.4998-59.198 40.1731-60.5289Q38.8464-61.8598 36.9322-61.8598Q35.0802-61.8598 33.7441-60.502Q32.408-59.1442 32.408-57.3358Q32.408-55.4752 33.7441-54.1268Q35.0802-52.7784 36.9322-52.7784ZM36.9322-38.2878Q38.8464-38.2878 40.1731-39.6239Q41.4998-40.96 41.4998-42.8119Q41.4998-44.7262 40.1731-46.0529Q38.8464-47.3795 36.9322-47.3795Q35.0802-47.3795 33.7441-46.0312Q32.408-44.6828 32.408-42.8119Q32.408-40.96 33.7441-39.6239Q35.0802-38.2878 36.9322-38.2878ZM36.9322-23.8366Q38.8464-23.8366 40.1731-25.1581Q41.4998-26.4796 41.4998-28.3939Q41.4998-30.2893 40.1782-31.5985Q38.8567-32.9077 36.9322-32.9077Q35.0699-32.9077 33.739-31.5768Q32.408-30.2458 32.408-28.3939Q32.408-26.4796 33.739-25.1581Q35.0699-23.8366 36.9322-23.8366ZM36.9322-8.68725Q38.8464-8.68725 40.1731-10.0139Q41.4998-11.3406 41.4998-13.2462Q41.4998-15.117 40.1731-16.4385Q38.8464-17.7601 36.9322-17.7601Q35.0802-17.7601 33.7441-16.4117Q32.408-15.0633 32.408-13.2462Q32.408-11.3943 33.7441-10.0408Q35.0802-8.68725 36.9322-8.68725ZM50.94-54.1484L105.191-54.1484Q106.535-54.1484 107.453-55.0755Q108.37-56.0026 108.37-57.3358Q108.37-58.6168 107.447-59.5657Q106.525-60.5145 105.191-60.5145L50.94-60.5145Q49.6154-60.5145 48.6883-59.5657Q47.7611-58.6168 47.7611-57.3358Q47.7611-56.0026 48.6883-55.0755Q49.6154-54.1484 50.94-54.1484ZM50.94-39.6332L81.287-39.6332Q82.6202-39.6332 83.543-40.5777Q84.4658-41.5222 84.4658-42.8119Q84.4658-44.1451 83.5482-45.073Q82.6305-46.0009 81.287-46.0009L50.94-46.0009Q49.6154-46.0009 48.6883-45.073Q47.7611-44.1451 47.7611-42.8119Q47.7611-41.5222 48.6883-40.5777Q49.6154-39.6332 50.94-39.6332ZM50.94-25.2064L105.191-25.2064Q106.535-25.2064 107.453-26.1336Q108.37-27.0607 108.37-28.3939Q108.37-29.7287 107.453-30.6238Q106.535-31.519 105.191-31.519L50.94-31.519Q49.6154-31.519 48.6883-30.6238Q47.7611-29.7287 47.7611-28.3939Q47.7611-27.0607 48.6883-26.1336Q49.6154-25.2064 50.94-25.2064ZM50.94-10.0675L81.287-10.0675Q82.6202-10.0675 83.543-10.9946Q84.4658-11.9217 84.4658-13.2462Q84.4658-14.5359 83.5482-15.463Q82.6305-16.3901 81.287-16.3901L50.94-16.3901Q49.6154-16.3901 48.6883-15.463Q47.7611-14.5359 47.7611-13.2462Q47.7611-11.9217 48.6883-10.9946Q49.6154-10.0675 50.94-10.0675ZM28.47 10.3692L112.053 10.3692Q120.017 10.3692 124.039 6.33819Q128.062 2.30716 128.062-5.50963L128.062-64.9042Q128.062-72.721 124.039-76.7521Q120.017-80.7831 112.053-80.7831L28.47-80.7831Q20.5925-80.7831 16.5267-76.7607Q12.4609-72.7382 12.4609-64.9042L12.4609-5.50963Q12.4609 2.32436 16.5267 6.34679Q20.5925 10.3692 28.47 10.3692ZM29.0468 0.76503Q25.647 0.76503 23.8343-1.01057Q22.0216-2.78618 22.0216-6.30352L22.0216-64.1104Q22.0216-67.6815 23.8343-69.4302Q25.647-71.1789 29.0468-71.1789L111.476-71.1789Q114.86-71.1789 116.681-69.4302Q118.501-67.6815 118.501-64.1104L118.501-6.30352Q118.501-2.78618 116.681-1.01057Q114.86 0.76503 111.476 0.76503Z"/>
  </g>
  <g id="Regular-M" transform="matrix(1 0 0 1 1379.84 1126)">
   <path d="M35.6031-53.4902Q37.5135-53.4902 38.8372-54.814Q40.161-56.1378 40.161-58.0481Q40.161-59.8962 38.8372-61.2251Q37.5135-62.554 35.6031-62.554Q33.7551-62.554 32.4261-61.1992Q31.097-59.8443 31.097-58.0481Q31.097-56.1895 32.4261-54.8399Q33.7551-53.4902 35.6031-53.4902ZM35.6031-38.5437Q37.5135-38.5437 38.8372-39.8727Q40.161-41.2017 40.161-43.0497Q40.161-44.9601 38.8372-46.2838Q37.5135-47.6076 35.6031-47.6076Q33.7551-47.6076 32.4261-46.258Q31.097-44.9084 31.097-43.0497Q31.097-41.2017 32.4261-39.8727Q33.7551-38.5437 35.6031-38.5437ZM35.6031-23.6077Q37.5135-23.6077 38.8372-24.9314Q40.161-26.2551 40.161-28.1654Q40.161-30.0653 38.8372-31.3684Q37.5135-32.6715 35.6031-32.6715Q33.7551-32.6715 32.4261-31.3425Q31.097-30.0135 31.097-28.1654Q31.097-26.2551 32.4261-24.9314Q33.7551-23.6077 35.6031-23.6077ZM35.6031-7.99882Q37.5135-7.99882 38.8372-9.3226Q40.161-10.6464 40.161-12.5461Q40.161-14.4046 38.8372-15.7284Q37.5135-17.0521 35.6031-17.0521Q33.7551-17.0521 32.4261-15.7025Q31.097-14.3529 31.097-12.5461Q31.097-10.698 32.4261-9.34843Q33.7551-7.99882 35.6031-7.99882ZM50.3383-54.9906L106.203-54.9906Q107.489-54.9906 108.369-55.8767Q109.25-56.7628 109.25-58.0481Q109.25-59.271 108.369-60.183Q107.489-61.095 106.203-61.095L50.3383-61.095Q49.0634-61.095 48.1773-60.183Q47.2912-59.271 47.2912-58.0481Q47.2912-56.7628 48.1773-55.8767Q49.0634-54.9906 50.3383-54.9906ZM50.3383-40.0028L81.2815-40.0028Q82.5668-40.0028 83.4476-40.9095Q84.3283-41.8162 84.3283-43.0497Q84.3283-44.3351 83.4476-45.2158Q82.5668-46.0966 81.2815-46.0966L50.3383-46.0966Q49.0634-46.0966 48.1773-45.2158Q47.2912-44.3351 47.2912-43.0497Q47.2912-41.8162 48.1773-40.9095Q49.0634-40.0028 50.3383-40.0028ZM50.3383-25.1079L106.203-25.1079Q107.489-25.1079 108.369-25.994Q109.25-26.8801 109.25-28.1654Q109.25-29.4401 108.369-30.3004Q107.489-31.1606 106.203-31.1606L50.3383-31.1606Q49.0634-31.1606 48.1773-30.3004Q47.2912-29.4401 47.2912-28.1654Q47.2912-26.8801 48.1773-25.994Q49.0634-25.1079 50.3383-25.1079ZM50.3383-9.49922L81.2815-9.49922Q82.5668-9.49922 83.4476-10.3853Q84.3283-11.2714 84.3283-12.5461Q84.3283-13.7796 83.4476-14.6657Q82.5668-15.5517 81.2815-15.5517L50.3383-15.5517Q49.0634-15.5517 48.1773-14.6657Q47.2912-13.7796 47.2912-12.5461Q47.2912-11.2714 48.1773-10.3853Q49.0634-9.49922 50.3383-9.49922ZM27.7789 9.74705L112.233 9.74705Q119.954 9.74705 123.752 5.93788Q127.551 2.1287 127.551-5.41572L127.551-65.0021Q127.551-72.5465 123.752-76.3557Q119.954-80.1648 112.233-80.1648L27.7789-80.1648Q20.1615-80.1648 16.3112-76.3662Q12.4609-72.5676 12.4609-65.0021L12.4609-5.41572Q12.4609 2.1498 16.3112 5.94842Q20.1615 9.74705 27.7789 9.74705ZM27.9035 1.84172Q24.2435 1.84172 22.279-0.0970004Q20.3144-2.03573 20.3144-5.79902L20.3144-64.6188Q20.3144-68.4339 22.279-70.3467Q24.2435-72.2595 27.9035-72.2595L112.108-72.2595Q115.736-72.2595 117.717-70.3467Q119.697-68.4339 119.697-64.6188L119.697-5.79902Q119.697-2.03573 117.717-0.0970004Q115.736 1.84172 112.108 1.84172Z"/>
  </g>
  <g id="Light-M" transform="matrix(1 0 0 1 1083.52 1126)">
   <path d="M34.1315-54.0549Q36.0076-54.0549 37.3058-55.3531Q38.604-56.6512 38.604-58.5274Q38.604-60.3412 37.3058-61.6529Q36.0076-62.9645 34.1315-62.9645Q32.3176-62.9645 31.0057-61.6354Q29.6938-60.3063 29.6938-58.5274Q29.6938-56.6857 31.0057-55.3703Q32.3176-54.0549 34.1315-54.0549ZM34.1315-38.7147Q36.0076-38.7147 37.3058-40.0266Q38.604-41.3385 38.604-43.1523Q38.604-45.0285 37.3058-46.3267Q36.0076-47.6249 34.1315-47.6249Q32.3176-47.6249 31.0057-46.3095Q29.6938-44.9941 29.6938-43.1523Q29.6938-41.3385 31.0057-40.0266Q32.3176-38.7147 34.1315-38.7147ZM34.1315-23.4024Q36.0076-23.4024 37.3058-24.7004Q38.604-25.9984 38.604-27.8745Q38.604-29.7232 37.3058-31.0177Q36.0076-32.3121 34.1315-32.3121Q32.3176-32.3121 31.0057-31.0002Q29.6938-29.6883 29.6938-27.8745Q29.6938-25.9984 31.0057-24.7004Q32.3176-23.4024 34.1315-23.4024ZM34.1315-7.63947Q36.0076-7.63947 37.3058-8.93765Q38.604-10.2358 38.604-12.0841Q38.604-13.9254 37.3058-15.2235Q36.0076-16.5217 34.1315-16.5217Q32.3176-16.5217 31.0057-15.2063Q29.6938-13.8909 29.6938-12.0841Q29.6938-10.2703 31.0057-8.95486Q32.3176-7.63947 34.1315-7.63947ZM49.9277-56.0687L107.778-56.0687Q108.823-56.0687 109.516-56.7751Q110.208-57.4815 110.208-58.5274Q110.208-59.5105 109.516-60.2343Q108.823-60.9582 107.778-60.9582L49.9277-60.9582Q48.9093-60.9582 48.2029-60.2343Q47.4965-59.5105 47.4965-58.5274Q47.4965-57.4815 48.2029-56.7751Q48.9093-56.0687 49.9277-56.0687ZM49.9277-40.7216L82.8557-40.7216Q83.9016-40.7216 84.5941-41.4315Q85.2865-42.1414 85.2865-43.1523Q85.2865-44.1982 84.5941-44.8907Q83.9016-45.5831 82.8557-45.5831L49.9277-45.5831Q48.9093-45.5831 48.2029-44.8907Q47.4965-44.1982 47.4965-43.1523Q47.4965-42.1414 48.2029-41.4315Q48.9093-40.7216 49.9277-40.7216ZM49.9277-25.4158L107.778-25.4158Q108.823-25.4158 109.516-26.1222Q110.208-26.8286 110.208-27.8745Q110.208-28.8925 109.516-29.5817Q108.823-30.2709 107.778-30.2709L49.9277-30.2709Q48.9093-30.2709 48.2029-29.5817Q47.4965-28.8925 47.4965-27.8745Q47.4965-26.8286 48.2029-26.1222Q48.9093-25.4158 49.9277-25.4158ZM49.9277-9.65331L82.8557-9.65331Q83.9016-9.65331 84.5941-10.3597Q85.2865-11.0661 85.2865-12.0841Q85.2865-13.0951 84.5941-13.8015Q83.9016-14.5079 82.8557-14.5079L49.9277-14.5079Q48.9093-14.5079 48.2029-13.8015Q47.4965-13.0951 47.4965-12.0841Q47.4965-11.0661 48.2029-10.3597Q48.9093-9.65331 49.9277-9.65331ZM26.8549 8.97716L112.37 8.97716Q119.577 8.97716 123.171 5.35615Q126.764 1.73514 126.764-5.31309L126.764-65.1389Q126.764-72.1871 123.171-75.8081Q119.577-79.4291 112.37-79.4291L26.8549-79.4291Q19.7165-79.4291 16.0887-75.8358Q12.4609-72.2424 12.4609-65.1389L12.4609-5.31309Q12.4609 1.79044 16.0887 5.3838Q19.7165 8.97716 26.8549 8.97716ZM26.9795 2.90254Q22.8403 2.90254 20.6705 0.749929Q18.5007-1.40268 18.5007-5.61072L18.5007-64.8413Q18.5007-69.0842 20.6705-71.2194Q22.8403-73.3545 26.9795-73.3545L112.245-73.3545Q116.301-73.3545 118.512-71.2194Q120.724-69.0842 120.724-64.8413L120.724-5.61072Q120.724-1.40268 118.512 0.749929Q116.301 2.90254 112.245 2.90254Z"/>
  </g>
  <g id="Thin-M" transform="matrix(1 0 0 1 787.33 1126)">
   <path d="M32.1851-54.8016Q34.016-54.8016 35.2804-56.066Q36.5447-57.3303 36.5447-59.1612Q36.5447-60.9298 35.2804-62.2187Q34.016-63.5075 32.1851-63.5075Q30.4165-63.5075 29.1273-62.2124Q27.838-60.9173 27.838-59.1612Q27.838-57.3419 29.1273-56.0718Q30.4165-54.8016 32.1851-54.8016ZM32.1851-38.9409Q34.016-38.9409 35.2804-40.2302Q36.5447-41.5195 36.5447-43.2881Q36.5447-45.119 35.2804-46.3833Q34.016-47.6477 32.1851-47.6477Q30.4165-47.6477 29.1273-46.3775Q27.838-45.1074 27.838-43.2881Q27.838-41.5195 29.1273-40.2302Q30.4165-38.9409 32.1851-38.9409ZM32.1851-23.131Q34.016-23.131 35.2804-24.3949Q36.5447-25.6588 36.5447-27.4897Q36.5447-29.2707 35.2804-30.5538Q34.016-31.8368 32.1851-31.8368Q30.4165-31.8368 29.1273-30.5476Q27.838-29.2583 27.838-27.4897Q27.838-25.6588 29.1273-24.3949Q30.4165-23.131 32.1851-23.131ZM32.1851-7.16419Q34.016-7.16419 35.2804-8.42854Q36.5447-9.69289 36.5447-11.4731Q36.5447-13.2915 35.2804-14.5559Q34.016-15.8202 32.1851-15.8202Q30.4165-15.8202 29.1273-14.5501Q27.838-13.2799 27.838-11.4731Q27.838-9.70449 29.1273-8.43434Q30.4165-7.16419 32.1851-7.16419ZM49.3848-57.4945L109.86-57.4945Q110.589-57.4945 111.032-57.9633Q111.476-58.4321 111.476-59.1612Q111.476-59.8272 111.032-60.3022Q110.589-60.7772 109.86-60.7772L49.3848-60.7772Q48.7055-60.7772 48.2367-60.3022Q47.768-59.8272 47.768-59.1612Q47.768-58.4321 48.2367-57.9633Q48.7055-57.4945 49.3848-57.4945ZM49.3848-41.6721L84.9378-41.6721Q85.667-41.6721 86.1104-42.1217Q86.5538-42.5714 86.5538-43.2881Q86.5538-44.0172 86.1104-44.4606Q85.667-44.9041 84.9378-44.9041L49.3848-44.9041Q48.7055-44.9041 48.2367-44.4606Q47.768-44.0172 47.768-43.2881Q47.768-42.5714 48.2367-42.1217Q48.7055-41.6721 49.3848-41.6721ZM49.3848-25.823L109.86-25.823Q110.589-25.823 111.032-26.2918Q111.476-26.7606 111.476-27.4897Q111.476-28.1682 111.032-28.6311Q110.589-29.0941 109.86-29.0941L49.3848-29.0941Q48.7055-29.0941 48.2367-28.6311Q47.768-28.1682 47.768-27.4897Q47.768-26.7606 48.2367-26.2918Q48.7055-25.823 49.3848-25.823ZM49.3848-9.85711L84.9378-9.85711Q85.667-9.85711 86.1104-10.3259Q86.5538-10.7946 86.5538-11.4731Q86.5538-12.1898 86.1104-12.6585Q85.667-13.1273 84.9378-13.1273L49.3848-13.1273Q48.7055-13.1273 48.2367-12.6585Q47.768-12.1898 47.768-11.4731Q47.768-10.7946 48.2367-10.3259Q48.7055-9.85711 49.3848-9.85711ZM25.6329 7.95893L112.551 7.95893Q119.08 7.95893 122.401 4.58677Q125.723 1.21461 125.723-5.17735L125.723-65.3199Q125.723-71.7118 122.401-75.084Q119.08-78.4562 112.551-78.4562L25.6329-78.4562Q19.1279-78.4562 15.7944-75.1343Q12.4609-71.8124 12.4609-65.3199L12.4609-5.17735Q12.4609 1.31517 15.7944 4.63705Q19.1279 7.95893 25.6329 7.95893ZM25.7575 4.30556Q20.9845 4.30556 18.5432 1.87006Q16.1019-0.565437 16.1019-5.36168L16.1019-65.1356Q16.1019-69.9442 18.5432-72.3735Q20.9845-74.8028 25.7575-74.8028L112.426-74.8028Q117.048-74.8028 119.565-72.3735Q122.082-69.9442 122.082-65.1356L122.082-5.36168Q122.082-0.565437 119.565 1.87006Q117.048 4.30556 112.426 4.30556Z"/>
  </g>
  <g id="Ultralight-M" transform="matrix(1 0 0 1 490.886 1126)">
   <path d="M31.1882-55.1841Q32.9959-55.1841 34.2429-56.4311Q35.49-57.6781 35.49-59.4859Q35.49-61.2313 34.2429-62.5084Q32.9959-63.7856 31.1882-63.7856Q29.4428-63.7856 28.1651-62.508Q26.8874-61.2303 26.8874-59.4859Q26.8874-57.6781 28.1651-56.4311Q29.4428-55.1841 31.1882-55.1841ZM31.1882-39.0568Q32.9959-39.0568 34.2429-40.3345Q35.49-41.6122 35.49-43.3576Q35.49-45.1653 34.2429-46.4123Q32.9959-47.6594 31.1882-47.6594Q29.4428-47.6594 28.1651-46.4124Q26.8874-45.1654 26.8874-43.3576Q26.8874-41.6122 28.1651-40.3345Q29.4428-39.0568 31.1882-39.0568ZM31.1882-22.9919Q32.9959-22.9919 34.2429-24.2384Q35.49-25.4849 35.49-27.2926Q35.49-29.039 34.2429-30.3162Q32.9959-31.5934 31.1882-31.5934Q29.4428-31.5934 28.1651-30.3157Q26.8874-29.038 26.8874-27.2926Q26.8874-25.4849 28.1651-24.2384Q29.4428-22.9919 31.1882-22.9919ZM31.1882-6.92076Q32.9959-6.92076 34.2429-8.16777Q35.49-9.41479 35.49-11.1601Q35.49-12.9669 34.2429-14.2139Q32.9959-15.4609 31.1882-15.4609Q29.4428-15.4609 28.1651-14.2139Q26.8874-12.967 26.8874-11.1601Q26.8874-9.41471 28.1651-8.16773Q29.4428-6.92076 31.1882-6.92076ZM49.1067-58.2248L110.926-58.2248Q111.493-58.2248 111.809-58.5719Q112.125-58.9189 112.125-59.4859Q112.125-59.9894 111.809-60.337Q111.493-60.6845 110.926-60.6845L49.1067-60.6845Q48.6011-60.6845 48.2541-60.337Q47.907-59.9894 47.907-59.4859Q47.907-58.9189 48.2541-58.5719Q48.6011-58.2248 49.1067-58.2248ZM49.1067-42.159L86.0043-42.159Q86.5712-42.159 86.887-42.4753Q87.2029-42.7916 87.2029-43.3576Q87.2029-43.9245 86.887-44.2404Q86.5712-44.5562 86.0043-44.5562L49.1067-44.5562Q48.6011-44.5562 48.2541-44.2404Q47.907-43.9245 47.907-43.3576Q47.907-42.7916 48.2541-42.4753Q48.6011-42.159 49.1067-42.159ZM49.1067-26.0316L110.926-26.0316Q111.493-26.0316 111.809-26.3787Q112.125-26.7257 112.125-27.2926Q112.125-27.7972 111.809-28.1442Q111.493-28.4913 110.926-28.4913L49.1067-28.4913Q48.6011-28.4913 48.2541-28.1442Q47.907-27.7972 47.907-27.2926Q47.907-26.7257 48.2541-26.3787Q48.6011-26.0316 49.1067-26.0316ZM49.1067-9.96149L86.0043-9.96149Q86.5712-9.96149 86.887-10.3085Q87.2029-10.6556 87.2029-11.1601Q87.2029-11.7261 86.887-12.0731Q86.5712-12.4202 86.0043-12.4202L49.1067-12.4202Q48.6011-12.4202 48.2541-12.0731Q47.907-11.7261 47.907-11.1601Q47.907-10.6556 48.2541-10.3085Q48.6011-9.96149 49.1067-9.96149ZM25.007 7.4374L112.643 7.4374Q118.825 7.4374 122.007 4.1927Q125.189 0.948005 125.189-5.10782L125.189-65.4126Q125.189-71.4684 122.007-74.7131Q118.825-77.9578 112.643-77.9578L25.007-77.9578Q18.8264-77.9578 15.6437-74.775Q12.4609-71.5921 12.4609-65.4126L12.4609-5.10782Q12.4609 1.07173 15.6437 4.25457Q18.8264 7.4374 25.007 7.4374ZM25.1316 5.02418Q20.0339 5.02418 17.4535 2.44379Q14.8732-0.136603 14.8732-5.23412L14.8732-65.2863Q14.8732-70.3848 17.4535-72.9647Q20.0339-75.5446 25.1316-75.5446L112.519-75.5446Q117.43-75.5446 120.104-72.9647Q122.777-70.3848 122.777-65.2863L122.777-5.23412Q122.777-0.136603 120.104 2.44379Q117.43 5.02418 112.519 5.02418Z"/>
  </g>
  <g id="Black-S" transform="matrix(1 0 0 1 2877.35 696)">
   <path d="M34.1309-46.1914Q35.6445-46.1914 36.6943-47.2168Q37.7441-48.2422 37.7441-49.7559Q37.7441-51.2695 36.6943-52.3193Q35.6445-53.3691 34.1309-53.3691Q32.666-53.3691 31.5918-52.2949Q30.5176-51.2207 30.5176-49.7559Q30.5176-48.291 31.5918-47.2412Q32.666-46.1914 34.1309-46.1914ZM34.1309-36.6211Q35.6445-36.6211 36.6943-37.6953Q37.7441-38.7695 37.7441-40.2344Q37.7441-41.748 36.6943-42.7979Q35.6445-43.8477 34.1309-43.8477Q32.666-43.8477 31.5918-42.7979Q30.5176-41.748 30.5176-40.2344Q30.5176-38.7695 31.5918-37.6953Q32.666-36.6211 34.1309-36.6211ZM34.1309-27.1973Q35.6445-27.1973 36.6943-28.2227Q37.7441-29.248 37.7441-30.7617Q37.7441-32.2266 36.7188-33.2764Q35.6934-34.3262 34.1309-34.3262Q32.6172-34.3262 31.5674-33.2764Q30.5176-32.2266 30.5176-30.7617Q30.5176-29.248 31.5674-28.2227Q32.6172-27.1973 34.1309-27.1973ZM34.1309-17.1387Q35.6445-17.1387 36.6943-18.1885Q37.7441-19.2383 37.7441-20.752Q37.7441-22.2656 36.6943-23.291Q35.6445-24.3164 34.1309-24.3164Q32.666-24.3164 31.5918-23.2666Q30.5176-22.2168 30.5176-20.752Q30.5176-19.2871 31.5918-18.2129Q32.666-17.1387 34.1309-17.1387ZM42.2852-46.7773L78.5156-46.7773Q79.7852-46.7773 80.6396-47.6562Q81.4941-48.5352 81.4941-49.7559Q81.4941-50.9766 80.6152-51.8555Q79.7363-52.7344 78.5156-52.7344L42.2852-52.7344Q41.0645-52.7344 40.1855-51.8555Q39.3066-50.9766 39.3066-49.7559Q39.3066-48.5352 40.1855-47.6562Q41.0645-46.7773 42.2852-46.7773ZM42.2852-37.2559L63.8184-37.2559Q65.0391-37.2559 65.918-38.1348Q66.7969-39.0137 66.7969-40.2344Q66.7969-41.4551 65.9424-42.3584Q65.0879-43.2617 63.8184-43.2617L42.2852-43.2617Q41.0645-43.2617 40.1855-42.3584Q39.3066-41.4551 39.3066-40.2344Q39.3066-39.0137 40.1855-38.1348Q41.0645-37.2559 42.2852-37.2559ZM42.2852-27.7832L78.5156-27.7832Q79.7852-27.7832 80.6396-28.6621Q81.4941-29.541 81.4941-30.7617Q81.4941-32.0312 80.6396-32.8613Q79.7852-33.6914 78.5156-33.6914L42.2852-33.6914Q41.0645-33.6914 40.1855-32.8613Q39.3066-32.0312 39.3066-30.7617Q39.3066-29.541 40.1855-28.6621Q41.0645-27.7832 42.2852-27.7832ZM42.2852-17.7734L63.8184-17.7734Q65.0391-17.7734 65.918-18.6523Q66.7969-19.5312 66.7969-20.752Q66.7969-21.9727 65.9424-22.8516Q65.0879-23.7305 63.8184-23.7305L42.2852-23.7305Q41.0645-23.7305 40.1855-22.8516Q39.3066-21.9727 39.3066-20.752Q39.3066-19.5312 40.1855-18.6523Q41.0645-17.7734 42.2852-17.7734ZM25 2.92969L87.1094 2.92969Q94.2871 2.92969 98.3154-1.09863Q102.344-5.12695 102.344-12.3047L102.344-58.1055Q102.344-65.2832 98.3154-69.3115Q94.2871-73.3398 87.1094-73.3398L25-73.3398Q17.8223-73.3398 13.7939-69.3115Q9.76562-65.2832 9.76562-58.1055L9.76562-12.3047Q9.76562-5.12695 13.7939-1.09863Q17.8223 2.92969 25 2.92969ZM27.2461-11.2305Q25.5859-11.2305 24.7559-11.9873Q23.9258-12.7441 23.9258-14.5508L23.9258-55.8594Q23.9258-57.7148 24.7559-58.4473Q25.5859-59.1797 27.2461-59.1797L84.8633-59.1797Q86.5723-59.1797 87.3779-58.4473Q88.1836-57.7148 88.1836-55.8594L88.1836-14.5508Q88.1836-12.7441 87.3779-11.9873Q86.5723-11.2305 84.8633-11.2305Z"/>
  </g>
  <g id="Heavy-S" transform="matrix(1 0 0 1 2580.87 696)">
   <path d="M32.8286-46.9174Q34.3423-46.9174 35.3921-47.9486Q36.4419-48.9798 36.4419-50.4934Q36.4419-51.9956 35.3921-53.0454Q34.3423-54.0952 32.8286-54.0952Q31.3638-54.0952 30.2953-53.021Q29.2268-51.9467 29.2268-50.4934Q29.2268-49.0286 30.2953-47.973Q31.3638-46.9174 32.8286-46.9174ZM32.8286-36.8862Q34.3423-36.8862 35.3921-37.9546Q36.4419-39.0231 36.4419-40.4879Q36.4419-42.0016 35.3921-43.0514Q34.3423-44.1012 32.8286-44.1012Q31.3638-44.1012 30.2953-43.0456Q29.2268-41.9901 29.2268-40.4879Q29.2268-39.0231 30.2953-37.9546Q31.3638-36.8862 32.8286-36.8862ZM32.8286-26.9668Q34.3423-26.9668 35.3921-27.9979Q36.4419-29.0291 36.4419-30.5428Q36.4419-32.0191 35.4107-33.0632Q34.3796-34.1072 32.8286-34.1072Q31.3264-34.1072 30.2766-33.0574Q29.2268-32.0076 29.2268-30.5428Q29.2268-29.0291 30.2766-27.9979Q31.3264-26.9668 32.8286-26.9668ZM32.8286-16.4126Q34.3423-16.4126 35.3921-17.4624Q36.4419-18.5122 36.4419-20.0259Q36.4419-21.5281 35.3921-22.5592Q34.3423-23.5904 32.8286-23.5904Q31.3638-23.5904 30.2953-22.5348Q29.2268-21.4792 29.2268-20.0259Q29.2268-18.5611 30.2953-17.4868Q31.3638-16.4126 32.8286-16.4126ZM41.6628-47.5841L79.4491-47.5841Q80.6841-47.5841 81.5213-48.4399Q82.3585-49.2958 82.3585-50.4934Q82.3585-51.6796 81.5026-52.5412Q80.6468-53.4028 79.4491-53.4028L41.6628-53.4028Q40.4652-53.4028 39.6093-52.5412Q38.7535-51.6796 38.7535-50.4934Q38.7535-49.2958 39.6093-48.4399Q40.4652-47.5841 41.6628-47.5841ZM41.6628-37.5785L63.6109-37.5785Q64.8086-37.5785 65.6644-38.4402Q66.5203-39.3018 66.5203-40.4879Q66.5203-41.6856 65.6831-42.5601Q64.8459-43.4346 63.6109-43.4346L41.6628-43.4346Q40.4652-43.4346 39.6093-42.5601Q38.7535-41.6856 38.7535-40.4879Q38.7535-39.3018 39.6093-38.4402Q40.4652-37.5785 41.6628-37.5785ZM41.6628-27.6334L79.4491-27.6334Q80.6841-27.6334 81.5213-28.4892Q82.3585-29.3451 82.3585-30.5428Q82.3585-31.7777 81.5213-32.5905Q80.6841-33.4033 79.4491-33.4033L41.6628-33.4033Q40.4652-33.4033 39.6093-32.5905Q38.7535-31.7777 38.7535-30.5428Q38.7535-29.3451 39.6093-28.4892Q40.4652-27.6334 41.6628-27.6334ZM41.6628-17.1165L63.6109-17.1165Q64.8086-17.1165 65.6644-17.9724Q66.5203-18.8283 66.5203-20.0259Q66.5203-21.212 65.6831-22.0679Q64.8459-22.9238 63.6109-22.9238L41.6628-22.9238Q40.4652-22.9238 39.6093-22.0679Q38.7535-21.212 38.7535-20.0259Q38.7535-18.8283 39.6093-17.9724Q40.4652-17.1165 41.6628-17.1165ZM24.3431 2.33042L87.2938 2.33042Q94.2641 2.33042 98.0677-1.47318Q101.871-5.27677 101.871-12.2125L101.871-58.1977Q101.871-65.1334 98.0677-68.937Q94.2641-72.7406 87.2938-72.7406L24.3431-72.7406Q17.3959-72.7406 13.5807-68.937Q9.76562-65.1334 9.76562-58.1977L9.76562-12.2125Q9.76562-5.27677 13.5807-1.47318Q17.3959 2.33042 24.3431 2.33042ZM26.0821-10.1587Q24.1915-10.1587 23.2173-11.0711Q22.2432-11.9835 22.2432-14.0091L22.2432-56.401Q22.2432-58.4755 23.2173-59.3635Q24.1915-60.2515 26.0821-60.2515L85.5547-60.2515Q87.4827-60.2515 88.4382-59.3635Q89.3937-58.4755 89.3937-56.401L89.3937-14.0091Q89.3937-11.9835 88.4382-11.0711Q87.4827-10.1587 85.5547-10.1587Z"/>
  </g>
  <g id="Bold-S" transform="matrix(1 0 0 1 2284.42 696)">
   <path d="M31.3721-47.7295Q32.8857-47.7295 33.9355-48.7671Q34.9854-49.8047 34.9854-51.3184Q34.9854-52.8076 33.9355-53.8574Q32.8857-54.9072 31.3721-54.9072Q29.9072-54.9072 28.8452-53.833Q27.7832-52.7588 27.7832-51.3184Q27.7832-49.8535 28.8452-48.7915Q29.9072-47.7295 31.3721-47.7295ZM31.3721-37.1826Q32.8857-37.1826 33.9355-38.2446Q34.9854-39.3066 34.9854-40.7715Q34.9854-42.2852 33.9355-43.335Q32.8857-44.3848 31.3721-44.3848Q29.9072-44.3848 28.8452-43.3228Q27.7832-42.2607 27.7832-40.7715Q27.7832-39.3066 28.8452-38.2446Q29.9072-37.1826 31.3721-37.1826ZM31.3721-26.709Q32.8857-26.709 33.9355-27.7466Q34.9854-28.7842 34.9854-30.2979Q34.9854-31.7871 33.9478-32.8247Q32.9102-33.8623 31.3721-33.8623Q29.8828-33.8623 28.833-32.8125Q27.7832-31.7627 27.7832-30.2979Q27.7832-28.7842 28.833-27.7466Q29.8828-26.709 31.3721-26.709ZM31.3721-15.6006Q32.8857-15.6006 33.9355-16.6504Q34.9854-17.7002 34.9854-19.2139Q34.9854-20.7031 33.9355-21.7407Q32.8857-22.7783 31.3721-22.7783Q29.9072-22.7783 28.8452-21.7163Q27.7832-20.6543 27.7832-19.2139Q27.7832-17.749 28.8452-16.6748Q29.9072-15.6006 31.3721-15.6006ZM40.9668-48.4863L80.4932-48.4863Q81.6895-48.4863 82.5073-49.3164Q83.3252-50.1465 83.3252-51.3184Q83.3252-52.4658 82.4951-53.3081Q81.665-54.1504 80.4932-54.1504L40.9668-54.1504Q39.7949-54.1504 38.9648-53.3081Q38.1348-52.4658 38.1348-51.3184Q38.1348-50.1465 38.9648-49.3164Q39.7949-48.4863 40.9668-48.4863ZM40.9668-37.9395L63.3789-37.9395Q64.5508-37.9395 65.3809-38.7817Q66.2109-39.624 66.2109-40.7715Q66.2109-41.9434 65.3931-42.7856Q64.5752-43.6279 63.3789-43.6279L40.9668-43.6279Q39.7949-43.6279 38.9648-42.7856Q38.1348-41.9434 38.1348-40.7715Q38.1348-39.624 38.9648-38.7817Q39.7949-37.9395 40.9668-37.9395ZM40.9668-27.4658L80.4932-27.4658Q81.6895-27.4658 82.5073-28.2959Q83.3252-29.126 83.3252-30.2979Q83.3252-31.4941 82.5073-32.2876Q81.6895-33.0811 80.4932-33.0811L40.9668-33.0811Q39.7949-33.0811 38.9648-32.2876Q38.1348-31.4941 38.1348-30.2979Q38.1348-29.126 38.9648-28.2959Q39.7949-27.4658 40.9668-27.4658ZM40.9668-16.3818L63.3789-16.3818Q64.5508-16.3818 65.3809-17.2119Q66.2109-18.042 66.2109-19.2139Q66.2109-20.3613 65.3931-21.1914Q64.5752-22.0215 63.3789-22.0215L40.9668-22.0215Q39.7949-22.0215 38.9648-21.1914Q38.1348-20.3613 38.1348-19.2139Q38.1348-18.042 38.9648-17.2119Q39.7949-16.3818 40.9668-16.3818ZM23.6084 1.66016L87.5 1.66016Q94.2383 1.66016 97.7905-1.89209Q101.343-5.44434 101.343-12.1094L101.343-58.3008Q101.343-64.9658 97.7905-68.5181Q94.2383-72.0703 87.5-72.0703L23.6084-72.0703Q16.9189-72.0703 13.3423-68.5181Q9.76562-64.9658 9.76562-58.3008L9.76562-12.1094Q9.76562-5.44434 13.3423-1.89209Q16.9189 1.66016 23.6084 1.66016ZM24.7803-8.95996Q22.6318-8.95996 21.4966-10.0464Q20.3613-11.1328 20.3613-13.4033L20.3613-57.0068Q20.3613-59.3262 21.4966-60.3882Q22.6318-61.4502 24.7803-61.4502L86.3281-61.4502Q88.501-61.4502 89.624-60.3882Q90.7471-59.3262 90.7471-57.0068L90.7471-13.4033Q90.7471-11.1328 89.624-10.0464Q88.501-8.95996 86.3281-8.95996Z"/>
  </g>
  <g id="Semibold-S" transform="matrix(1 0 0 1 1987.89 696)">
   <path d="M30.3679-48.2894Q31.8815-48.2894 32.9313-49.3314Q33.9812-50.3734 33.9812-51.8871Q33.9812-53.3675 32.9313-54.4173Q31.8815-55.4671 30.3679-55.4671Q28.903-55.4671 27.8455-54.3929Q26.7879-53.3187 26.7879-51.8871Q26.7879-50.4223 27.8455-49.3558Q28.903-48.2894 30.3679-48.2894ZM30.3679-37.387Q31.8815-37.387 32.9313-38.4446Q33.9812-39.5021 33.9812-40.967Q33.9812-42.4807 32.9313-43.5305Q31.8815-44.5803 30.3679-44.5803Q28.903-44.5803 27.8455-43.5138Q26.7879-42.4474 26.7879-40.967Q26.7879-39.5021 27.8455-38.4446Q28.903-37.387 30.3679-37.387ZM30.3679-26.5312Q31.8815-26.5312 32.9313-27.5733Q33.9812-28.6153 33.9812-30.129Q33.9812-31.6271 32.9391-32.6603Q31.8971-33.6935 30.3679-33.6935Q28.8875-33.6935 27.8377-32.6437Q26.7879-31.5938 26.7879-30.129Q26.7879-28.6153 27.8377-27.5733Q28.8875-26.5312 30.3679-26.5312ZM30.3679-15.0407Q31.8815-15.0407 32.9313-16.0905Q33.9812-17.1403 33.9812-18.654Q33.9812-20.1344 32.9313-21.1764Q31.8815-22.2185 30.3679-22.2185Q28.903-22.2185 27.8455-21.152Q26.7879-20.0855 26.7879-18.654Q26.7879-17.1892 27.8455-16.1149Q28.903-15.0407 30.3679-15.0407ZM40.4869-49.1084L81.213-49.1084Q82.3826-49.1084 83.1872-49.9207Q83.9917-50.733 83.9917-51.8871Q83.9917-53.0079 83.1794-53.8369Q82.3671-54.6658 81.213-54.6658L40.4869-54.6658Q39.3328-54.6658 38.5205-53.8369Q37.7082-53.0079 37.7082-51.8871Q37.7082-50.733 38.5205-49.9207Q39.3328-49.1084 40.4869-49.1084ZM40.4869-38.1883L63.2189-38.1883Q64.373-38.1883 65.1854-39.0172Q65.9977-39.8462 65.9977-40.967Q65.9977-42.1211 65.1931-42.9412Q64.3886-43.7612 63.2189-43.7612L40.4869-43.7612Q39.3328-43.7612 38.5205-42.9412Q37.7082-42.1211 37.7082-40.967Q37.7082-39.8462 38.5205-39.0172Q39.3328-38.1883 40.4869-38.1883ZM40.4869-27.3503L81.213-27.3503Q82.3826-27.3503 83.1872-28.1626Q83.9917-28.9749 83.9917-30.129Q83.9917-31.2986 83.1872-32.0788Q82.3826-32.8589 81.213-32.8589L40.4869-32.8589Q39.3328-32.8589 38.5205-32.0788Q37.7082-31.2986 37.7082-30.129Q37.7082-28.9749 38.5205-28.1626Q39.3328-27.3503 40.4869-27.3503ZM40.4869-15.8753L63.2189-15.8753Q64.373-15.8753 65.1854-16.6876Q65.9977-17.4999 65.9977-18.654Q65.9977-19.7748 65.1931-20.5871Q64.3886-21.3994 63.2189-21.3994L40.4869-21.3994Q39.3328-21.3994 38.5205-20.5871Q37.7082-19.7748 37.7082-18.654Q37.7082-17.4999 38.5205-16.6876Q39.3328-15.8753 40.4869-15.8753ZM23.1019 1.19805L87.6422 1.19805Q94.2205 1.19805 97.5995-2.18091Q100.978-5.55986 100.978-12.0383L100.978-58.3719Q100.978-64.8503 97.5995-68.2292Q94.2205-71.6082 87.6422-71.6082L23.1019-71.6082Q16.5901-71.6082 13.1779-68.2292Q9.76562-64.8503 9.76562-58.3719L9.76562-12.0383Q9.76562-5.55986 13.1779-2.18091Q16.5901 1.19805 23.1019 1.19805ZM23.8827-8.1335Q21.5565-8.1335 20.3102-9.33989Q19.0639-10.5463 19.0639-12.9856L19.0639-57.4245Q19.0639-59.9127 20.3102-61.0947Q21.5565-62.2767 23.8827-62.2767L86.8613-62.2767Q89.203-62.2767 90.4416-61.0947Q91.6802-59.9127 91.6802-57.4245L91.6802-12.9856Q91.6802-10.5463 90.4416-9.33989Q89.203-8.1335 86.8613-8.1335Z"/>
  </g>
  <g id="Medium-S" transform="matrix(1 0 0 1 1691.32 696)">
   <path d="M29.6064-48.7139Q31.1201-48.7139 32.1699-49.7593Q33.2197-50.8047 33.2197-52.3184Q33.2197-53.792 32.1699-54.8418Q31.1201-55.8916 29.6064-55.8916Q28.1416-55.8916 27.0874-54.8174Q26.0332-53.7432 26.0332-52.3184Q26.0332-50.8535 27.0874-49.7837Q28.1416-48.7139 29.6064-48.7139ZM29.6064-37.542Q31.1201-37.542 32.1699-38.5962Q33.2197-39.6504 33.2197-41.1152Q33.2197-42.6289 32.1699-43.6787Q31.1201-44.7285 29.6064-44.7285Q28.1416-44.7285 27.0874-43.6587Q26.0332-42.5889 26.0332-41.1152Q26.0332-39.6504 27.0874-38.5962Q28.1416-37.542 29.6064-37.542ZM29.6064-26.3965Q31.1201-26.3965 32.1699-27.4419Q33.2197-28.4873 33.2197-30.001Q33.2197-31.5059 32.1743-32.5356Q31.1289-33.5654 29.6064-33.5654Q28.1328-33.5654 27.083-32.5156Q26.0332-31.4658 26.0332-30.001Q26.0332-28.4873 27.083-27.4419Q28.1328-26.3965 29.6064-26.3965ZM29.6064-14.6162Q31.1201-14.6162 32.1699-15.666Q33.2197-16.7158 33.2197-18.2295Q33.2197-19.7031 32.1699-20.7485Q31.1201-21.7939 29.6064-21.7939Q28.1416-21.7939 27.0874-20.7241Q26.0332-19.6543 26.0332-18.2295Q26.0332-16.7646 27.0874-15.6904Q28.1416-14.6162 29.6064-14.6162ZM40.123-49.5801L81.7588-49.5801Q82.9082-49.5801 83.7026-50.3789Q84.4971-51.1777 84.4971-52.3184Q84.4971-53.4189 83.6982-54.2378Q82.8994-55.0566 81.7588-55.0566L40.123-55.0566Q38.9824-55.0566 38.1836-54.2378Q37.3848-53.4189 37.3848-52.3184Q37.3848-51.1777 38.1836-50.3789Q38.9824-49.5801 40.123-49.5801ZM40.123-38.377L63.0977-38.377Q64.2383-38.377 65.0371-39.1958Q65.8359-40.0146 65.8359-41.1152Q65.8359-42.2559 65.0415-43.0591Q64.2471-43.8623 63.0977-43.8623L40.123-43.8623Q38.9824-43.8623 38.1836-43.0591Q37.3848-42.2559 37.3848-41.1152Q37.3848-40.0146 38.1836-39.1958Q38.9824-38.377 40.123-38.377ZM40.123-27.2627L81.7588-27.2627Q82.9082-27.2627 83.7026-28.0615Q84.4971-28.8604 84.4971-30.001Q84.4971-31.1504 83.7026-31.9204Q82.9082-32.6904 81.7588-32.6904L40.123-32.6904Q38.9824-32.6904 38.1836-31.9204Q37.3848-31.1504 37.3848-30.001Q37.3848-28.8604 38.1836-28.0615Q38.9824-27.2627 40.123-27.2627ZM40.123-15.4912L63.0977-15.4912Q64.2383-15.4912 65.0371-16.29Q65.8359-17.0889 65.8359-18.2295Q65.8359-19.3301 65.0415-20.1289Q64.2471-20.9277 63.0977-20.9277L40.123-20.9277Q38.9824-20.9277 38.1836-20.1289Q37.3848-19.3301 37.3848-18.2295Q37.3848-17.0889 38.1836-16.29Q38.9824-15.4912 40.123-15.4912ZM22.7178 0.847656L87.75 0.847656Q94.207 0.847656 97.4546-2.3999Q100.702-5.64746 100.702-11.9844L100.702-58.4258Q100.702-64.7627 97.4546-68.0103Q94.207-71.2578 87.75-71.2578L22.7178-71.2578Q16.3408-71.2578 13.0532-68.0103Q9.76562-64.7627 9.76562-58.4258L9.76562-11.9844Q9.76562-5.64746 13.0532-2.3999Q16.3408 0.847656 22.7178 0.847656ZM23.2021-7.50684Q20.7412-7.50684 19.4106-8.8042Q18.0801-10.1016 18.0801-12.6689L18.0801-57.7412Q18.0801-60.3574 19.4106-61.6304Q20.7412-62.9033 23.2021-62.9033L87.2656-62.9033Q89.7354-62.9033 91.0615-61.6304Q92.3877-60.3574 92.3877-57.7412L92.3877-12.6689Q92.3877-10.1016 91.0615-8.8042Q89.7354-7.50684 87.2656-7.50684Z"/>
  </g>
  <g id="Regular-S" transform="matrix(1 0 0 1 1394.79 696)">
   <path d="M28.6133-49.2676Q30.127-49.2676 31.1768-50.3174Q32.2266-51.3672 32.2266-52.8809Q32.2266-54.3457 31.1768-55.3955Q30.127-56.4453 28.6133-56.4453Q27.1484-56.4453 26.0986-55.3711Q25.0488-54.2969 25.0488-52.8809Q25.0488-51.416 26.0986-50.3418Q27.1484-49.2676 28.6133-49.2676ZM28.6133-37.7441Q30.127-37.7441 31.1768-38.7939Q32.2266-39.8438 32.2266-41.3086Q32.2266-42.8223 31.1768-43.8721Q30.127-44.9219 28.6133-44.9219Q27.1484-44.9219 26.0986-43.8477Q25.0488-42.7734 25.0488-41.3086Q25.0488-39.8438 26.0986-38.7939Q27.1484-37.7441 28.6133-37.7441ZM28.6133-26.2207Q30.127-26.2207 31.1768-27.2705Q32.2266-28.3203 32.2266-29.834Q32.2266-31.3477 31.1768-32.373Q30.127-33.3984 28.6133-33.3984Q27.1484-33.3984 26.0986-32.3486Q25.0488-31.2988 25.0488-29.834Q25.0488-28.3203 26.0986-27.2705Q27.1484-26.2207 28.6133-26.2207ZM28.6133-14.0625Q30.127-14.0625 31.1768-15.1123Q32.2266-16.1621 32.2266-17.6758Q32.2266-19.1406 31.1768-20.1904Q30.127-21.2402 28.6133-21.2402Q27.1484-21.2402 26.0986-20.166Q25.0488-19.0918 25.0488-17.6758Q25.0488-16.2109 26.0986-15.1367Q27.1484-14.0625 28.6133-14.0625ZM39.6484-50.1953L82.4707-50.1953Q83.5938-50.1953 84.375-50.9766Q85.1562-51.7578 85.1562-52.8809Q85.1562-53.9551 84.375-54.7607Q83.5938-55.5664 82.4707-55.5664L39.6484-55.5664Q38.5254-55.5664 37.7441-54.7607Q36.9629-53.9551 36.9629-52.8809Q36.9629-51.7578 37.7441-50.9766Q38.5254-50.1953 39.6484-50.1953ZM39.6484-38.623L62.9395-38.623Q64.0625-38.623 64.8438-39.4287Q65.625-40.2344 65.625-41.3086Q65.625-42.4316 64.8438-43.2129Q64.0625-43.9941 62.9395-43.9941L39.6484-43.9941Q38.5254-43.9941 37.7441-43.2129Q36.9629-42.4316 36.9629-41.3086Q36.9629-40.2344 37.7441-39.4287Q38.5254-38.623 39.6484-38.623ZM39.6484-27.1484L82.4707-27.1484Q83.5938-27.1484 84.375-27.9297Q85.1562-28.7109 85.1562-29.834Q85.1562-30.957 84.375-31.7139Q83.5938-32.4707 82.4707-32.4707L39.6484-32.4707Q38.5254-32.4707 37.7441-31.7139Q36.9629-30.957 36.9629-29.834Q36.9629-28.7109 37.7441-27.9297Q38.5254-27.1484 39.6484-27.1484ZM39.6484-14.9902L62.9395-14.9902Q64.0625-14.9902 64.8438-15.7715Q65.625-16.5527 65.625-17.6758Q65.625-18.75 64.8438-19.5312Q64.0625-20.3125 62.9395-20.3125L39.6484-20.3125Q38.5254-20.3125 37.7441-19.5312Q36.9629-18.75 36.9629-17.6758Q36.9629-16.5527 37.7441-15.7715Q38.5254-14.9902 39.6484-14.9902ZM22.2168 0.390625L87.8906 0.390625Q94.1895 0.390625 97.2656-2.68555Q100.342-5.76172 100.342-11.9141L100.342-58.4961Q100.342-64.6484 97.2656-67.7246Q94.1895-70.8008 87.8906-70.8008L22.2168-70.8008Q16.0156-70.8008 12.8906-67.7246Q9.76562-64.6484 9.76562-58.4961L9.76562-11.9141Q9.76562-5.76172 12.8906-2.68555Q16.0156 0.390625 22.2168 0.390625ZM22.3145-6.68945Q19.6777-6.68945 18.2373-8.10547Q16.7969-9.52148 16.7969-12.2559L16.7969-58.1543Q16.7969-60.9375 18.2373-62.3291Q19.6777-63.7207 22.3145-63.7207L87.793-63.7207Q90.4297-63.7207 91.8701-62.3291Q93.3105-60.9375 93.3105-58.1543L93.3105-12.2559Q93.3105-9.52148 91.8701-8.10547Q90.4297-6.68945 87.793-6.68945Z"/>
  </g>
  <g id="Light-S" transform="matrix(1 0 0 1 1098.43 696)">
   <path d="M27.3115-49.767Q28.7949-49.767 29.822-50.7942Q30.8492-51.8214 30.8492-53.3048Q30.8492-54.7394 29.822-55.7739Q28.7949-56.8085 27.3115-56.8085Q25.8769-56.8085 24.8422-55.757Q23.8075-54.7056 23.8075-53.3048Q23.8075-51.855 24.8422-50.811Q25.8769-49.767 27.3115-49.767ZM27.3115-37.8955Q28.7949-37.8955 29.822-38.9301Q30.8492-39.9648 30.8492-41.3994Q30.8492-42.8828 29.822-43.91Q28.7949-44.9371 27.3115-44.9371Q25.8769-44.9371 24.8422-43.8932Q23.8075-42.8492 23.8075-41.3994Q23.8075-39.9648 24.8422-38.9301Q25.8769-37.8955 27.3115-37.8955ZM27.3115-26.0391Q28.7949-26.0391 29.822-27.0662Q30.8492-28.0932 30.8492-29.5766Q30.8492-31.045 29.822-32.0628Q28.7949-33.0805 27.3115-33.0805Q25.8769-33.0805 24.8422-32.0459Q23.8075-31.0112 23.8075-29.5766Q23.8075-28.0932 24.8422-27.0662Q25.8769-26.0391 27.3115-26.0391ZM27.3115-13.7446Q28.7949-13.7446 29.822-14.7718Q30.8492-15.799 30.8492-17.2671Q30.8492-18.7167 29.822-19.7439Q28.7949-20.771 27.3115-20.771Q25.8769-20.771 24.8422-19.7271Q23.8075-18.6831 23.8075-17.2671Q23.8075-15.8325 24.8422-14.7886Q25.8769-13.7446 27.3115-13.7446ZM39.2853-51.149L83.8633-51.149Q84.7745-51.149 85.3892-51.7713Q86.0039-52.3936 86.0039-53.3048Q86.0039-54.1669 85.3892-54.8061Q84.7745-55.4454 83.8633-55.4454L39.2853-55.4454Q38.3891-55.4454 37.7668-54.8061Q37.1445-54.1669 37.1445-53.3048Q37.1445-52.3936 37.7668-51.7713Q38.3891-51.149 39.2853-51.149ZM39.2853-39.2588L64.3321-39.2588Q65.2433-39.2588 65.858-39.8904Q66.4726-40.522 66.4726-41.3994Q66.4726-42.3106 65.858-42.9253Q65.2433-43.5399 64.3321-43.5399L39.2853-43.5399Q38.3891-43.5399 37.7668-42.9253Q37.1445-42.3106 37.1445-41.3994Q37.1445-40.522 37.7668-39.8904Q38.3891-39.2588 39.2853-39.2588ZM39.2853-27.4208L83.8633-27.4208Q84.7745-27.4208 85.3892-28.0431Q86.0039-28.6654 86.0039-29.5766Q86.0039-30.4726 85.3892-31.0781Q84.7745-31.6836 83.8633-31.6836L39.2853-31.6836Q38.3891-31.6836 37.7668-31.0781Q37.1445-30.4726 37.1445-29.5766Q37.1445-28.6654 37.7668-28.0431Q38.3891-27.4208 39.2853-27.4208ZM39.2853-15.1265L64.3321-15.1265Q65.2433-15.1265 65.858-15.7489Q66.4726-16.3712 66.4726-17.2671Q66.4726-18.1445 65.858-18.7668Q65.2433-19.3891 64.3321-19.3891L39.2853-19.3891Q38.3891-19.3891 37.7668-18.7668Q37.1445-18.1445 37.1445-17.2671Q37.1445-16.3712 37.7668-15.7489Q38.3891-15.1265 39.2853-15.1265ZM21.3994-0.290426L88.0117-0.290426Q93.8566-0.290426 96.751-3.20015Q99.6455-6.10987 99.6455-11.8233L99.6455-58.6171Q99.6455-64.3305 96.751-67.2403Q93.8566-70.15 88.0117-70.15L21.3994-70.15Q15.6219-70.15 12.6938-67.2554Q9.76562-64.3608 9.76562-58.6171L9.76562-11.8233Q9.76562-6.07961 12.6938-3.18502Q15.6219-0.290426 21.3994-0.290426ZM21.4971-5.75104Q18.4364-5.75104 16.8144-7.35626Q15.1924-8.96149 15.1924-12.0893L15.1924-58.3511Q15.1924-61.5128 16.8144-63.1011Q18.4364-64.6894 21.4971-64.6894L87.914-64.6894Q90.9292-64.6894 92.5739-63.1011Q94.2187-61.5128 94.2187-58.3511L94.2187-12.0893Q94.2187-8.96149 92.5739-7.35626Q90.9292-5.75104 87.914-5.75104Z"/>
  </g>
  <g id="Thin-S" transform="matrix(1 0 0 1 802.177 696)">
   <path d="M25.5897-50.4276Q27.0331-50.4276 28.0303-51.4249Q29.0275-52.4221 29.0275-53.8655Q29.0275-55.26 28.0303-56.2744Q27.0331-57.2888 25.5897-57.2888Q24.1951-57.2888 23.1805-56.2674Q22.1658-55.2461 22.1658-53.8655Q22.1658-52.4355 23.1805-51.4316Q24.1951-50.4276 25.5897-50.4276ZM25.5897-38.0956Q27.0331-38.0956 28.0303-39.1102Q29.0275-40.1249 29.0275-41.5195Q29.0275-42.9628 28.0303-43.9601Q27.0331-44.9573 25.5897-44.9573Q24.1951-44.9573 23.1805-43.9534Q22.1658-42.9495 22.1658-41.5195Q22.1658-40.1249 23.1805-39.1102Q24.1951-38.0956 25.5897-38.0956ZM25.5897-25.799Q27.0331-25.799 28.0303-26.7959Q29.0275-27.7929 29.0275-29.2362Q29.0275-30.6448 28.0303-31.6524Q27.0331-32.6601 25.5897-32.6601Q24.1951-32.6601 23.1805-31.6454Q22.1658-30.6308 22.1658-29.2362Q22.1658-27.7929 23.1805-26.7959Q24.1951-25.799 25.5897-25.799ZM25.5897-13.3242Q27.0331-13.3242 28.0303-14.3214Q29.0275-15.3186 29.0275-16.7266Q29.0275-18.156 28.0303-19.1532Q27.0331-20.1505 25.5897-20.1505Q24.1951-20.1505 23.1805-19.1465Q22.1658-18.1426 22.1658-16.7266Q22.1658-15.332 23.1805-14.3281Q24.1951-13.3242 25.5897-13.3242ZM38.805-52.4103L85.7052-52.4103Q86.3362-52.4103 86.7306-52.8224Q87.1249-53.2345 87.1249-53.8655Q87.1249-54.4471 86.7306-54.8662Q86.3362-55.2853 85.7052-55.2853L38.805-55.2853Q38.2088-55.2853 37.7967-54.8662Q37.3846-54.4471 37.3846-53.8655Q37.3846-53.2345 37.7967-52.8224Q38.2088-52.4103 38.805-52.4103ZM38.805-40.0997L66.1739-40.0997Q66.8049-40.0997 67.1993-40.5011Q67.5937-40.9024 67.5937-41.5195Q67.5937-42.1505 67.1993-42.5449Q66.8049-42.9392 66.1739-42.9392L38.805-42.9392Q38.2088-42.9392 37.7967-42.5449Q37.3846-42.1505 37.3846-41.5195Q37.3846-40.9024 37.7967-40.5011Q38.2088-40.0997 38.805-40.0997ZM38.805-27.781L85.7052-27.781Q86.3362-27.781 86.7306-28.1931Q87.1249-28.6052 87.1249-29.2362Q87.1249-29.8318 86.7306-30.2372Q86.3362-30.6426 85.7052-30.6426L38.805-30.6426Q38.2088-30.6426 37.7967-30.2372Q37.3846-29.8318 37.3846-29.2362Q37.3846-28.6052 37.7967-28.1931Q38.2088-27.781 38.805-27.781ZM38.805-15.3068L66.1739-15.3068Q66.8049-15.3068 67.1993-15.7189Q67.5937-16.131 67.5937-16.7266Q67.5937-17.3436 67.1993-17.7557Q66.8049-18.1678 66.1739-18.1678L38.805-18.1678Q38.2088-18.1678 37.7967-17.7557Q37.3846-17.3436 37.3846-16.7266Q37.3846-16.131 37.7967-15.7189Q38.2088-15.3068 38.805-15.3068ZM20.3184-1.19117L88.1718-1.19117Q93.4163-1.19117 96.0704-3.88075Q98.7246-6.57034 98.7246-11.7032L98.7246-58.7772Q98.7246-63.9101 96.0704-66.5997Q93.4163-69.2893 88.1718-69.2893L20.3184-69.2893Q15.1013-69.2893 12.4335-66.6348Q9.76562-63.9804 9.76562-58.7772L9.76562-11.7032Q9.76562-6.50005 12.4335-3.84561Q15.1013-1.19117 20.3184-1.19117ZM20.4161-4.50991Q16.7947-4.50991 14.9325-6.36538Q13.0704-8.22084 13.0704-11.869L13.0704-58.6115Q13.0704-62.2736 14.9325-64.1221Q16.7947-65.9705 20.4161-65.9705L88.0741-65.9705Q91.5897-65.9705 93.5048-64.1221Q95.4198-62.2736 95.4198-58.6115L95.4198-11.869Q95.4198-8.22084 93.5048-6.36538Q91.5897-4.50991 88.0741-4.50991Z"/>
  </g>
  <g id="Ultralight-S" transform="matrix(1 0 0 1 505.702 696)">
   <path d="M24.7078-50.766Q26.1307-50.766 27.1126-51.7479Q28.0945-52.7298 28.0945-54.1527Q28.0945-55.5267 27.1126-56.5308Q26.1307-57.5348 24.7078-57.5348Q23.3337-57.5348 22.3293-56.5289Q21.3249-55.5229 21.3249-54.1527Q21.3249-52.7328 22.3293-51.7494Q23.3337-50.766 24.7078-50.766ZM24.7078-38.1981Q26.1307-38.1981 27.1126-39.2025Q28.0945-40.2069 28.0945-41.581Q28.0945-43.0038 27.1126-43.9857Q26.1307-44.9677 24.7078-44.9677Q23.3337-44.9677 22.3293-43.9842Q21.3249-43.0008 21.3249-41.581Q21.3249-40.2069 22.3293-39.2025Q23.3337-38.1981 24.7078-38.1981ZM24.7078-25.676Q26.1307-25.676 27.1126-26.6575Q28.0945-27.639 28.0945-29.0619Q28.0945-30.4398 27.1126-31.4423Q26.1307-32.4448 24.7078-32.4448Q23.3337-32.4448 22.3293-31.4404Q21.3249-30.4359 21.3249-29.0619Q21.3249-27.639 22.3293-26.6575Q23.3337-25.676 24.7078-25.676ZM24.7078-13.1088Q26.1307-13.1088 27.1126-14.0907Q28.0945-15.0726 28.0945-16.4497Q28.0945-17.8688 27.1126-18.8507Q26.1307-19.8326 24.7078-19.8326Q23.3337-19.8326 22.3293-18.8492Q21.3249-17.8658 21.3249-16.4497Q21.3249-15.0757 22.3293-14.0923Q23.3337-13.1088 24.7078-13.1088ZM38.559-53.0563L86.6486-53.0563Q87.1361-53.0563 87.4176-53.3607Q87.6991-53.6652 87.6991-54.1527Q87.6991-54.5906 87.4176-54.8969Q87.1361-55.2032 86.6486-55.2032L38.559-55.2032Q38.1165-55.2032 37.812-54.8969Q37.5076-54.5906 37.5076-54.1527Q37.5076-53.6652 37.812-53.3607Q38.1165-53.0563 38.559-53.0563ZM38.559-40.5304L67.1173-40.5304Q67.6048-40.5304 67.8864-40.8138Q68.1679-41.0973 68.1679-41.581Q68.1679-42.0685 67.8864-42.35Q67.6048-42.6315 67.1173-42.6315L38.559-42.6315Q38.1165-42.6315 37.812-42.35Q37.5076-42.0685 37.5076-41.581Q37.5076-41.0973 37.812-40.8138Q38.1165-40.5304 38.559-40.5304ZM38.559-27.9655L86.6486-27.9655Q87.1361-27.9655 87.4176-28.27Q87.6991-28.5744 87.6991-29.0619Q87.6991-29.5036 87.4176-29.8065Q87.1361-30.1094 86.6486-30.1094L38.559-30.1094Q38.1165-30.1094 37.812-29.8065Q37.5076-29.5036 37.5076-29.0619Q37.5076-28.5744 37.812-28.27Q38.1165-27.9655 38.559-27.9655ZM38.559-15.3992L67.1173-15.3992Q67.6048-15.3992 67.8864-15.7036Q68.1679-16.008 68.1679-16.4497Q68.1679-16.9334 67.8864-17.2379Q67.6048-17.5423 67.1173-17.5423L38.559-17.5423Q38.1165-17.5423 37.812-17.2379Q37.5076-16.9334 37.5076-16.4497Q37.5076-16.008 37.812-15.7036Q38.1165-15.3992 38.559-15.3992ZM19.7647-1.65253L88.2538-1.65253Q93.1908-1.65253 95.7218-4.22935Q98.2529-6.80618 98.2529-11.6417L98.2529-58.8593Q98.2529-63.6948 95.7218-66.2716Q93.1908-68.8484 88.2538-68.8484L19.7647-68.8484Q14.8346-68.8484 12.3001-66.317Q9.76562-63.7856 9.76562-58.8593L9.76562-11.6417Q9.76562-6.71539 12.3001-4.18396Q14.8346-1.65253 19.7647-1.65253ZM19.8624-3.87421Q15.9538-3.87421 13.9687-5.85785Q11.9835-7.84149 11.9835-11.7561L11.9835-58.7448Q11.9835-62.6633 13.9687-64.645Q15.9538-66.6267 19.8624-66.6267L88.1561-66.6267Q91.9281-66.6267 93.9816-64.645Q96.035-62.6633 96.035-58.7448L96.035-11.7561Q96.035-7.84149 93.9816-5.85785Q91.9281-3.87421 88.1561-3.87421Z"/>
  </g>
 </g>
</svg>
