<?xml version="1.0" encoding="UTF-8"?>
<!--Generator: Apple Native CoreSVG 175-->
<!DOCTYPE svg
PUBLIC "-//W3C//DTD SVG 1.1//EN"
       "http://www.w3.org/Graphics/SVG/1.1/DTD/svg11.dtd">
<svg version="1.1" xmlns="http://www.w3.org/2000/svg" xmlns:xlink="http://www.w3.org/1999/xlink" width="3300" height="2200">
 <!--glyph: "uni100A46.medium", point size: 100.0, font version: "17.3d3e1", template writer version: "65.1"-->
 <g id="Notes">
  <rect height="2200" id="artboard" style="fill:white;opacity:1" width="3300" x="0" y="0"/>
  <line style="fill:none;stroke:black;opacity:1;stroke-width:0.5;" x1="263" x2="3036" y1="292" y2="292"/>
  <text style="stroke:none;fill:black;font-family:sans-serif;font-size:13;font-weight:bold;" transform="matrix(1 0 0 1 263 322)">Weight/Scale Variations</text>
  <text style="stroke:none;fill:black;font-family:sans-serif;font-size:13;text-anchor:middle;" transform="matrix(1 0 0 1 559.711 322)">Ultralight</text>
  <text style="stroke:none;fill:black;font-family:sans-serif;font-size:13;text-anchor:middle;" transform="matrix(1 0 0 1 856.422 322)">Thin</text>
  <text style="stroke:none;fill:black;font-family:sans-serif;font-size:13;text-anchor:middle;" transform="matrix(1 0 0 1 1153.13 322)">Light</text>
  <text style="stroke:none;fill:black;font-family:sans-serif;font-size:13;text-anchor:middle;" transform="matrix(1 0 0 1 1449.84 322)">Regular</text>
  <text style="stroke:none;fill:black;font-family:sans-serif;font-size:13;text-anchor:middle;" transform="matrix(1 0 0 1 1746.56 322)">Medium</text>
  <text style="stroke:none;fill:black;font-family:sans-serif;font-size:13;text-anchor:middle;" transform="matrix(1 0 0 1 2043.27 322)">Semibold</text>
  <text style="stroke:none;fill:black;font-family:sans-serif;font-size:13;text-anchor:middle;" transform="matrix(1 0 0 1 2339.98 322)">Bold</text>
  <text style="stroke:none;fill:black;font-family:sans-serif;font-size:13;text-anchor:middle;" transform="matrix(1 0 0 1 2636.69 322)">Heavy</text>
  <text style="stroke:none;fill:black;font-family:sans-serif;font-size:13;text-anchor:middle;" transform="matrix(1 0 0 1 2933.4 322)">Black</text>
  <line style="fill:none;stroke:black;opacity:1;stroke-width:0.5;" x1="263" x2="3036" y1="1903" y2="1903"/>
  <g transform="matrix(1 0 0 1 263 1933)">
   <path d="M9.24805 0.830078Q10.8691 0.830078 12.2949 0.214844Q13.7207-0.400391 14.8096-1.49414Q15.8984-2.58789 16.5186-4.01367Q17.1387-5.43945 17.1387-7.05078Q17.1387-8.66211 16.5186-10.0879Q15.8984-11.5137 14.8047-12.6074Q13.7109-13.7012 12.2852-14.3164Q10.8594-14.9316 9.23828-14.9316Q7.62695-14.9316 6.20117-14.3164Q4.77539-13.7012 3.69141-12.6074Q2.60742-11.5137 1.9873-10.0879Q1.36719-8.66211 1.36719-7.05078Q1.36719-5.43945 1.9873-4.01367Q2.60742-2.58789 3.69629-1.49414Q4.78516-0.400391 6.21094 0.214844Q7.63672 0.830078 9.24805 0.830078ZM9.24805-0.654297Q7.91992-0.654297 6.7627-1.14746Q5.60547-1.64062 4.73145-2.51953Q3.85742-3.39844 3.36426-4.56055Q2.87109-5.72266 2.87109-7.05078Q2.87109-8.37891 3.35938-9.54102Q3.84766-10.7031 4.72168-11.582Q5.5957-12.4609 6.75293-12.9541Q7.91016-13.4473 9.23828-13.4473Q10.5762-13.4473 11.7334-12.9541Q12.8906-12.4609 13.7695-11.582Q14.6484-10.7031 15.1465-9.54102Q15.6445-8.37891 15.6445-7.05078Q15.6445-5.72266 15.1514-4.56055Q14.6582-3.39844 13.7842-2.51953Q12.9102-1.64062 11.748-1.14746Q10.5859-0.654297 9.24805-0.654297ZM5.6543-7.05078Q5.6543-6.72852 5.85938-6.52832Q6.06445-6.32812 6.40625-6.32812L8.51562-6.32812L8.51562-4.20898Q8.51562-3.88672 8.71094-3.67676Q8.90625-3.4668 9.23828-3.4668Q9.56055-3.4668 9.77051-3.67676Q9.98047-3.88672 9.98047-4.20898L9.98047-6.32812L12.0898-6.32812Q12.4219-6.32812 12.627-6.52832Q12.832-6.72852 12.832-7.05078Q12.832-7.38281 12.627-7.58789Q12.4219-7.79297 12.0898-7.79297L9.98047-7.79297L9.98047-9.90234Q9.98047-10.2344 9.77051-10.4443Q9.56055-10.6543 9.23828-10.6543Q8.90625-10.6543 8.71094-10.4443Q8.51562-10.2344 8.51562-9.90234L8.51562-7.79297L6.40625-7.79297Q6.06445-7.79297 5.85938-7.58789Q5.6543-7.38281 5.6543-7.05078Z"/>
  </g>
  <g transform="matrix(1 0 0 1 281.867 1933)">
   <path d="M11.709 2.91016Q13.75 2.91016 15.5518 2.12891Q17.3535 1.34766 18.7305-0.0292969Q20.1074-1.40625 20.8887-3.20801Q21.6699-5.00977 21.6699-7.05078Q21.6699-9.0918 20.8887-10.8936Q20.1074-12.6953 18.7305-14.0723Q17.3535-15.4492 15.5469-16.2305Q13.7402-17.0117 11.6992-17.0117Q9.6582-17.0117 7.85645-16.2305Q6.05469-15.4492 4.68262-14.0723Q3.31055-12.6953 2.5293-10.8936Q1.74805-9.0918 1.74805-7.05078Q1.74805-5.00977 2.5293-3.20801Q3.31055-1.40625 4.6875-0.0292969Q6.06445 1.34766 7.86621 2.12891Q9.66797 2.91016 11.709 2.91016ZM11.709 1.25Q9.98047 1.25 8.47656 0.605469Q6.97266-0.0390625 5.83496-1.17676Q4.69727-2.31445 4.05762-3.81836Q3.41797-5.32227 3.41797-7.05078Q3.41797-8.7793 4.05762-10.2832Q4.69727-11.7871 5.83008-12.9297Q6.96289-14.0723 8.4668-14.7119Q9.9707-15.3516 11.6992-15.3516Q13.4277-15.3516 14.9316-14.7119Q16.4355-14.0723 17.5781-12.9297Q18.7207-11.7871 19.3652-10.2832Q20.0098-8.7793 20.0098-7.05078Q20.0098-5.32227 19.3701-3.81836Q18.7305-2.31445 17.5928-1.17676Q16.4551-0.0390625 14.9463 0.605469Q13.4375 1.25 11.709 1.25ZM7.17773-7.05078Q7.17773-6.69922 7.41211-6.47461Q7.64648-6.25 8.01758-6.25L10.8887-6.25L10.8887-3.36914Q10.8887-2.99805 11.1133-2.76855Q11.3379-2.53906 11.6895-2.53906Q12.0605-2.53906 12.29-2.76855Q12.5195-2.99805 12.5195-3.36914L12.5195-6.25L15.4004-6.25Q15.7715-6.25 16.001-6.47461Q16.2305-6.69922 16.2305-7.05078Q16.2305-7.42188 16.001-7.65137Q15.7715-7.88086 15.4004-7.88086L12.5195-7.88086L12.5195-10.752Q12.5195-11.1328 12.29-11.3623Q12.0605-11.5918 11.6895-11.5918Q11.3379-11.5918 11.1133-11.3574Q10.8887-11.123 10.8887-10.752L10.8887-7.88086L8.01758-7.88086Q7.63672-7.88086 7.40723-7.65137Q7.17773-7.42188 7.17773-7.05078Z"/>
  </g>
  <g transform="matrix(1 0 0 1 305.646 1933)">
   <path d="M14.9707 5.66406Q17.0605 5.66406 18.96 5.01465Q20.8594 4.36523 22.4512 3.19336Q24.043 2.02148 25.2197 0.429688Q26.3965-1.16211 27.0459-3.06641Q27.6953-4.9707 27.6953-7.05078Q27.6953-9.14062 27.0459-11.04Q26.3965-12.9395 25.2197-14.5312Q24.043-16.123 22.4512-17.2998Q20.8594-18.4766 18.9551-19.126Q17.0508-19.7754 14.9609-19.7754Q12.8711-19.7754 10.9717-19.126Q9.07227-18.4766 7.48535-17.2998Q5.89844-16.123 4.72168-14.5312Q3.54492-12.9395 2.90039-11.04Q2.25586-9.14062 2.25586-7.05078Q2.25586-4.9707 2.90527-3.06641Q3.55469-1.16211 4.72656 0.429688Q5.89844 2.02148 7.49023 3.19336Q9.08203 4.36523 10.9814 5.01465Q12.8809 5.66406 14.9707 5.66406ZM14.9707 3.84766Q13.1641 3.84766 11.5283 3.2959Q9.89258 2.74414 8.53516 1.74805Q7.17773 0.751953 6.17676-0.610352Q5.17578-1.97266 4.62891-3.6084Q4.08203-5.24414 4.08203-7.05078Q4.08203-8.86719 4.62891-10.5029Q5.17578-12.1387 6.17188-13.501Q7.16797-14.8633 8.52539-15.8594Q9.88281-16.8555 11.5186-17.4023Q13.1543-17.9492 14.9609-17.9492Q16.7773-17.9492 18.4131-17.4023Q20.0488-16.8555 21.4111-15.8594Q22.7734-14.8633 23.7695-13.501Q24.7656-12.1387 25.3174-10.5029Q25.8691-8.86719 25.8691-7.05078Q25.8789-5.24414 25.332-3.6084Q24.7852-1.97266 23.7842-0.610352Q22.7832 0.751953 21.4209 1.74805Q20.0586 2.74414 18.4229 3.2959Q16.7871 3.84766 14.9707 3.84766ZM9.19922-7.05078Q9.19922-6.66992 9.45801-6.4209Q9.7168-6.17188 10.1172-6.17188L14.0625-6.17188L14.0625-2.2168Q14.0625-1.81641 14.3115-1.55762Q14.5605-1.29883 14.9512-1.29883Q15.3516-1.29883 15.6104-1.55273Q15.8691-1.80664 15.8691-2.2168L15.8691-6.17188L19.8242-6.17188Q20.2246-6.17188 20.4785-6.4209Q20.7324-6.66992 20.7324-7.05078Q20.7324-7.46094 20.4785-7.71484Q20.2246-7.96875 19.8242-7.96875L15.8691-7.96875L15.8691-11.9141Q15.8691-12.3242 15.6104-12.583Q15.3516-12.8418 14.9512-12.8418Q14.5605-12.8418 14.3115-12.583Q14.0625-12.3242 14.0625-11.9141L14.0625-7.96875L10.1172-7.96875Q9.70703-7.96875 9.45312-7.71484Q9.19922-7.46094 9.19922-7.05078Z"/>
  </g>
  <text style="stroke:none;fill:black;font-family:sans-serif;font-size:13;font-weight:bold;" transform="matrix(1 0 0 1 263 1953)">Design Variations</text>
  <text style="stroke:none;fill:black;font-family:sans-serif;font-size:13;" transform="matrix(1 0 0 1 263 1971)">Symbols are supported in up to nine weights and three scales.</text>
  <text style="stroke:none;fill:black;font-family:sans-serif;font-size:13;" transform="matrix(1 0 0 1 263 1989)">For optimal layout with text and other symbols, vertically align</text>
  <text style="stroke:none;fill:black;font-family:sans-serif;font-size:13;" transform="matrix(1 0 0 1 263 2007)">symbols with the adjacent text.</text>
  <line style="fill:none;stroke:#00AEEF;stroke-width:0.5;opacity:1.0;" x1="776" x2="776" y1="1919" y2="1933"/>
  <g transform="matrix(1 0 0 1 776 1933)">
   <path d="M3.31055 0.15625Q3.70117 0.15625 3.91602-0.00976562Q4.13086-0.175781 4.26758-0.585938L5.52734-4.0332L11.2891-4.0332L12.5488-0.585938Q12.6855-0.175781 12.9004-0.00976562Q13.1152 0.15625 13.4961 0.15625Q13.8867 0.15625 14.1162-0.0585938Q14.3457-0.273438 14.3457-0.644531Q14.3457-0.869141 14.2383-1.17188L9.6582-13.3691Q9.48242-13.8184 9.17969-14.043Q8.87695-14.2676 8.4082-14.2676Q7.5-14.2676 7.17773-13.3789L2.59766-1.16211Q2.49023-0.859375 2.49023-0.634766Q2.49023-0.263672 2.70996-0.0537109Q2.92969 0.15625 3.31055 0.15625ZM6.00586-5.51758L8.37891-12.0898L8.42773-12.0898L10.8008-5.51758Z"/>
  </g>
  <line style="fill:none;stroke:#00AEEF;stroke-width:0.5;opacity:1.0;" x1="793.197" x2="793.197" y1="1919" y2="1933"/>
  <text style="stroke:none;fill:black;font-family:sans-serif;font-size:13;font-weight:bold;" transform="matrix(1 0 0 1 776 1953)">Margins</text>
  <text style="stroke:none;fill:black;font-family:sans-serif;font-size:13;" transform="matrix(1 0 0 1 776 1971)">Leading and trailing margins on the left and right side of each symbol</text>
  <text style="stroke:none;fill:black;font-family:sans-serif;font-size:13;" transform="matrix(1 0 0 1 776 1989)">can be adjusted by modifying the x-location of the margin guidelines.</text>
  <text style="stroke:none;fill:black;font-family:sans-serif;font-size:13;" transform="matrix(1 0 0 1 776 2007)">Modifications are automatically applied proportionally to all</text>
  <text style="stroke:none;fill:black;font-family:sans-serif;font-size:13;" transform="matrix(1 0 0 1 776 2025)">scales and weights.</text>
  <g transform="matrix(1 0 0 1 1289 1933)">
   <path d="M2.8418 1.86523L4.54102 3.57422Q5.18555 4.22852 5.90332 4.17969Q6.62109 4.13086 7.31445 3.35938L18.0078-8.42773L17.041-9.4043L6.42578 2.27539Q6.16211 2.57812 5.89355 2.61719Q5.625 2.65625 5.27344 2.30469L4.10156 1.14258Q3.75 0.791016 3.79395 0.522461Q3.83789 0.253906 4.14062-0.0195312L15.6152-10.8203L14.6387-11.7871L3.04688-0.898438Q2.30469-0.214844 2.25098 0.498047Q2.19727 1.21094 2.8418 1.86523ZM9.25781-16.3281Q8.94531-16.0254 8.90625-15.6348Q8.86719-15.2441 9.04297-14.9512Q9.21875-14.6777 9.55566-14.541Q9.89258-14.4043 10.3809-14.5215Q11.4746-14.7754 12.5977-14.7314Q13.7207-14.6875 14.7949-13.9844L14.209-12.5293Q13.9551-11.9043 14.0674-11.4404Q14.1797-10.9766 14.5801-10.5664L16.875-8.25195Q17.2363-7.88086 17.5781-7.82227Q17.9199-7.76367 18.3398-7.8418L19.4043-8.03711L20.0684-7.36328L20.0293-6.80664Q20-6.43555 20.1221-6.12305Q20.2441-5.81055 20.6055-5.44922L21.3672-4.70703Q21.7285-4.3457 22.1533-4.33105Q22.5781-4.31641 22.9297-4.66797L25.8398-7.58789Q26.1914-7.93945 26.1816-8.35449Q26.1719-8.76953 25.8105-9.13086L25.0391-9.89258Q24.6875-10.2539 24.3799-10.3857Q24.0723-10.5176 23.7109-10.4883L23.1348-10.4395L22.4902-11.0742L22.7344-12.1973Q22.832-12.6172 22.6953-12.9834Q22.5586-13.3496 22.1191-13.7891L19.9219-15.9766Q18.6719-17.2168 17.2607-17.8369Q15.8496-18.457 14.4189-18.4814Q12.9883-18.5059 11.665-17.959Q10.3418-17.4121 9.25781-16.3281ZM10.752-15.957Q11.6602-16.6211 12.7002-16.9043Q13.7402-17.1875 14.8047-17.085Q15.8691-16.9824 16.8701-16.5137Q17.8711-16.0449 18.7012-15.2051L21.1328-12.793Q21.3086-12.6172 21.3525-12.4512Q21.3965-12.2852 21.3379-12.0312L21.0156-10.5469L22.5195-9.0625L23.5059-9.12109Q23.6914-9.13086 23.7891-9.09668Q23.8867-9.0625 24.0332-8.91602L24.6094-8.33984L22.168-5.89844L21.5918-6.47461Q21.4453-6.62109 21.4062-6.71875Q21.3672-6.81641 21.377-7.01172L21.4453-7.98828L19.9512-9.47266L18.4277-9.21875Q18.1836-9.16992 18.042-9.2041Q17.9004-9.23828 17.7148-9.41406L15.7129-11.416Q15.5176-11.5918 15.4932-11.7529Q15.4688-11.9141 15.5859-12.1875L16.4648-14.2773Q15.293-15.3711 13.8281-15.791Q12.3633-16.2109 10.8398-15.7617Q10.7227-15.7324 10.6885-15.8057Q10.6543-15.8789 10.752-15.957Z"/>
  </g>
  <text style="stroke:none;fill:black;font-family:sans-serif;font-size:13;font-weight:bold;" transform="matrix(1 0 0 1 1289 1953)">Exporting</text>
  <text style="stroke:none;fill:black;font-family:sans-serif;font-size:13;" transform="matrix(1 0 0 1 1289 1971)">Symbols should be outlined when exporting to ensure the</text>
  <text style="stroke:none;fill:black;font-family:sans-serif;font-size:13;" transform="matrix(1 0 0 1 1289 1989)">design is preserved when submitting to Xcode.</text>
  <text id="template-version" style="stroke:none;fill:black;font-family:sans-serif;font-size:13;text-anchor:end;" transform="matrix(1 0 0 1 3036 1933)">Template v.3.0</text>
  <text style="stroke:none;fill:black;font-family:sans-serif;font-size:13;text-anchor:end;" transform="matrix(1 0 0 1 3036 1951)">Requires Xcode 13 or greater</text>
  <text id="descriptive-name" style="stroke:none;fill:black;font-family:sans-serif;font-size:13;text-anchor:end;" transform="matrix(1 0 0 1 3036 1969)">Generated from circle.grid.cross.right.filled</text>
  <text style="stroke:none;fill:black;font-family:sans-serif;font-size:13;text-anchor:end;" transform="matrix(1 0 0 1 3036 1987)">Typeset at 100 points</text>
  <text style="stroke:none;fill:black;font-family:sans-serif;font-size:13;" transform="matrix(1 0 0 1 263 726)">Small</text>
  <text style="stroke:none;fill:black;font-family:sans-serif;font-size:13;" transform="matrix(1 0 0 1 263 1156)">Medium</text>
  <text style="stroke:none;fill:black;font-family:sans-serif;font-size:13;" transform="matrix(1 0 0 1 263 1586)">Large</text>
 </g>
 <g id="Guides">
  <g id="H-reference" style="fill:#27AAE1;stroke:none;" transform="matrix(1 0 0 1 339 696)">
   <path d="M0.993347 0L3.6377 0L29.3282-67.1326L30.0301-67.1326L30.0301-70.459L28.1227-70.459ZM11.6882-24.4797L46.9818-24.4797L46.2311-26.7288L12.4382-26.7288ZM55.1193 0L57.7637 0L30.6381-70.459L29.4327-70.459L29.4327-67.1326Z"/>
  </g>
  <line id="Baseline-S" style="fill:none;stroke:#27AAE1;opacity:1;stroke-width:0.5;" x1="263" x2="3036" y1="696" y2="696"/>
  <line id="Capline-S" style="fill:none;stroke:#27AAE1;opacity:1;stroke-width:0.5;" x1="263" x2="3036" y1="625.541" y2="625.541"/>
  <g id="H-reference" style="fill:#27AAE1;stroke:none;" transform="matrix(1 0 0 1 339 1126)">
   <path d="M0.993347 0L3.6377 0L29.3282-67.1326L30.0301-67.1326L30.0301-70.459L28.1227-70.459ZM11.6882-24.4797L46.9818-24.4797L46.2311-26.7288L12.4382-26.7288ZM55.1193 0L57.7637 0L30.6381-70.459L29.4327-70.459L29.4327-67.1326Z"/>
  </g>
  <line id="Baseline-M" style="fill:none;stroke:#27AAE1;opacity:1;stroke-width:0.5;" x1="263" x2="3036" y1="1126" y2="1126"/>
  <line id="Capline-M" style="fill:none;stroke:#27AAE1;opacity:1;stroke-width:0.5;" x1="263" x2="3036" y1="1055.54" y2="1055.54"/>
  <g id="H-reference" style="fill:#27AAE1;stroke:none;" transform="matrix(1 0 0 1 339 1556)">
   <path d="M0.993347 0L3.6377 0L29.3282-67.1326L30.0301-67.1326L30.0301-70.459L28.1227-70.459ZM11.6882-24.4797L46.9818-24.4797L46.2311-26.7288L12.4382-26.7288ZM55.1193 0L57.7637 0L30.6381-70.459L29.4327-70.459L29.4327-67.1326Z"/>
  </g>
  <line id="Baseline-L" style="fill:none;stroke:#27AAE1;opacity:1;stroke-width:0.5;" x1="263" x2="3036" y1="1556" y2="1556"/>
  <line id="Capline-L" style="fill:none;stroke:#27AAE1;opacity:1;stroke-width:0.5;" x1="263" x2="3036" y1="1485.54" y2="1485.54"/>
  <line id="left-margin-Regular-M" style="fill:none;stroke:#00AEEF;stroke-width:0.5;opacity:1.0;" x1="1384.39" x2="1384.39" y1="1030.79" y2="1150.12"/>
  <line id="right-margin-Regular-M" style="fill:none;stroke:#00AEEF;stroke-width:0.5;opacity:1.0;" x1="1515.3" x2="1515.3" y1="1030.79" y2="1150.12"/>
 </g>
 <g id="Symbols">
  <g id="Black-L" transform="matrix(1 0 0 1 2847.74 1556)">
   <path d="M39.5789-7.03002Q47.3112-7.03002 53.7184-10.8864Q60.1255-14.7427 63.9521-21.1505Q67.7786-27.5582 67.7786-35.2905Q67.7786-43.002 63.9521-49.3806Q60.1255-55.7591 53.7184-59.6155Q47.3112-63.4718 39.5789-63.4718Q31.765-63.4718 25.328-59.6155Q18.891-55.7591 15.0749-49.3806Q11.2588-43.002 11.2588-35.2905Q11.2588-27.5582 15.0749-21.1505Q18.891-14.7427 25.328-10.8864Q31.765-7.03002 39.5789-7.03002ZM39.5205-24.1463Q36.3632-24.1463 33.8051-25.6213Q31.247-27.0963 29.7714-29.6148Q28.2958-32.1333 28.2958-35.2321Q28.2958-38.3662 29.7714-40.9055Q31.247-43.4448 33.8051-44.9716Q36.3632-46.4984 39.5205-46.4984Q42.6557-46.4984 45.1846-44.9716Q47.7135-43.4448 49.2183-40.9055Q50.7232-38.3662 50.7232-35.2321Q50.7232-32.1333 49.2183-29.6148Q47.7135-27.0963 45.1846-25.6213Q42.6557-24.1463 39.5205-24.1463ZM85.6583-54.7578Q93.3906-54.7578 99.7972-58.6038Q106.204-62.4497 110.031-68.8673Q113.858-75.2849 113.858-82.9975Q113.858-90.7298 110.031-97.1084Q106.204-103.487 99.7972-107.333Q93.3906-111.179 85.6583-111.179Q77.8652-111.179 71.4283-107.333Q64.9913-103.487 61.1648-97.1084Q57.3382-90.7298 57.3382-82.9975Q57.3382-75.2849 61.1648-68.8673Q64.9913-62.4497 71.4283-58.6038Q77.8652-54.7578 85.6583-54.7578ZM85.5999-71.8533Q82.4427-71.8533 79.8846-73.3387Q77.3265-74.8241 75.8509-77.3426Q74.3753-79.8611 74.3753-82.9391Q74.3753-86.094 75.8509-88.6333Q77.3265-91.1726 79.8846-92.6994Q82.4427-94.2262 85.5999-94.2262Q88.756-94.2262 91.2739-92.6994Q93.7918-91.1726 95.3076-88.6333Q96.8234-86.094 96.8234-82.9391Q96.8234-79.8611 95.3076-77.3426Q93.7918-74.8241 91.2739-73.3387Q88.756-71.8533 85.5999-71.8533ZM85.6583 40.6186Q93.3906 40.6186 99.7972 36.7727Q106.204 32.9267 110.031 26.5086Q113.858 20.0904 113.858 12.3789Q113.858 4.6454 110.031-1.73256Q106.204-8.11053 99.7972-11.9565Q93.3906-15.8024 85.6583-15.8024Q77.8652-15.8024 71.4283-11.9565Q64.9913-8.11053 61.1648-1.73256Q57.3382 4.6454 57.3382 12.3789Q57.3382 20.0904 61.1648 26.5086Q64.9913 32.9267 71.4283 36.7727Q77.8652 40.6186 85.6583 40.6186ZM85.5999 23.5232Q82.4427 23.5232 79.8846 22.0371Q77.3265 20.5511 75.8509 18.0332Q74.3753 15.5153 74.3753 12.4373Q74.3753 9.28243 75.8509 6.74312Q77.3265 4.20381 79.8846 2.67699Q82.4427 1.15017 85.5999 1.15017Q88.756 1.15017 91.2739 2.67699Q93.7918 4.20381 95.3076 6.74312Q96.8234 9.28243 96.8234 12.4373Q96.8234 15.5153 95.3076 18.0332Q93.7918 20.5511 91.2739 22.0371Q88.756 23.5232 85.5999 23.5232ZM131.878-7.03002Q139.61-7.03002 146.017-10.8864Q152.424-14.7427 156.241-21.1505Q160.057-27.5582 160.057-35.2905Q160.057-43.002 156.241-49.3806Q152.424-55.7591 146.017-59.6155Q139.61-63.4718 131.878-63.4718Q124.064-63.4718 117.628-59.6155Q111.191-55.7591 107.374-49.3806Q103.558-43.002 103.558-35.2905Q103.558-27.5582 107.374-21.1505Q111.191-14.7427 117.628-10.8864Q124.064-7.03002 131.878-7.03002Z"/>
  </g>
  <g id="Heavy-L" transform="matrix(1 0 0 1 2551.33 1556)">
   <path d="M39.3815-7.22745Q47.0636-7.22745 53.4272-11.0562Q59.7908-14.885 63.5945-21.2514Q67.3981-27.6178 67.3981-35.2998Q67.3981-42.9518 63.5945-49.2959Q59.7908-55.64 53.4272-59.4688Q47.0636-63.2976 39.3815-63.2976Q31.6134-63.2976 25.2246-59.4688Q18.8359-55.64 15.0474-49.2959Q11.2588-42.9518 11.2588-35.2998Q11.2588-27.6178 15.0474-21.2514Q18.8359-14.885 25.2246-11.0562Q31.6134-7.22745 39.3815-7.22745ZM39.3368-22.501Q35.7114-22.501 32.7782-24.1919Q29.8451-25.8828 28.1513-28.7786Q26.4576-31.6744 26.4576-35.2552Q26.4576-38.8394 28.1513-41.7653Q29.8451-44.6912 32.7782-46.4431Q35.7114-48.1949 39.3368-48.1949Q42.9266-48.1949 45.8374-46.4431Q48.7483-44.6912 50.4643-41.7653Q52.1804-38.8394 52.1804-35.2552Q52.1804-31.6744 50.4643-28.7786Q48.7483-25.8828 45.8374-24.1919Q42.9266-22.501 39.3368-22.501ZM85.3622-54.8421Q93.0443-54.8421 99.4051-58.6558Q105.766-62.4695 109.572-68.8482Q113.379-75.2269 113.379-82.8845Q113.379-90.5666 109.572-96.9107Q105.766-103.255 99.4051-107.068Q93.0443-110.882 85.3622-110.882Q77.6242-110.882 71.2355-107.068Q64.8468-103.255 61.0431-96.9107Q57.2394-90.5666 57.2394-82.8845Q57.2394-75.2269 61.0431-68.8482Q64.8468-62.4695 71.2355-58.6558Q77.6242-54.8421 85.3622-54.8421ZM85.3176-70.0855Q81.692-70.0855 78.7589-71.7916Q75.8257-73.4976 74.132-76.3934Q72.4383-79.2891 72.4383-82.8398Q72.4383-86.4541 74.132-89.38Q75.8257-92.306 78.7589-94.0578Q81.692-95.8097 85.3176-95.8097Q88.9375-95.8097 91.8304-94.0578Q94.7234-92.306 96.4573-89.38Q98.1913-86.4541 98.1913-82.8398Q98.1913-79.2891 96.4573-76.3934Q94.7234-73.4976 91.8304-71.7916Q88.9375-70.0855 85.3176-70.0855ZM85.3622 40.3125Q93.0443 40.3125 99.4051 36.4988Q105.766 32.6851 109.572 26.3037Q113.379 19.9222 113.379 12.2702Q113.379 4.58252 109.572-1.7588Q105.766-8.10012 99.4051-11.9138Q93.0443-15.7274 85.3622-15.7274Q77.6242-15.7274 71.2355-11.9138Q64.8468-8.10012 61.0431-1.7588Q57.2394 4.58252 57.2394 12.2702Q57.2394 19.9222 61.0431 26.3037Q64.8468 32.6851 71.2355 36.4988Q77.6242 40.3125 85.3622 40.3125ZM85.3176 25.0691Q81.692 25.0691 78.7589 23.3603Q75.8257 21.6515 74.132 18.7585Q72.4383 15.8655 72.4383 12.3148Q72.4383 8.70056 74.132 5.77462Q75.8257 2.84868 78.7589 1.09683Q81.692-0.655024 85.3176-0.655024Q88.9375-0.655024 91.8304 1.09683Q94.7234 2.84868 96.4573 5.77462Q98.1913 8.70056 98.1913 12.3148Q98.1913 15.8655 96.4573 18.7585Q94.7234 21.6515 91.8304 23.3603Q88.9375 25.0691 85.3176 25.0691ZM131.473-7.22745Q139.156-7.22745 145.519-11.0562Q151.883-14.885 155.671-21.2514Q159.46-27.6178 159.46-35.2998Q159.46-42.9518 155.671-49.2959Q151.883-55.64 145.519-59.4688Q139.156-63.2976 131.473-63.2976Q123.705-63.2976 117.319-59.4688Q110.934-55.64 107.142-49.2959Q103.351-42.9518 103.351-35.2998Q103.351-27.6178 107.142-21.2514Q110.934-14.885 117.319-11.0562Q123.705-7.22745 131.473-7.22745Z"/>
  </g>
  <g id="Bold-L" transform="matrix(1 0 0 1 2254.99 1556)">
   <path d="M39.1579-7.451Q46.7785-7.451 53.0921-11.2489Q59.4057-15.0469 63.1824-21.367Q66.9591-27.6872 66.9591-35.3076Q66.9591-42.8903 63.1824-49.1959Q59.4057-55.5014 53.0921-59.2994Q46.7785-63.0973 39.1579-63.0973Q31.4437-63.0973 25.109-59.2994Q18.7742-55.5014 15.0165-49.1959Q11.2588-42.8903 11.2588-35.3076Q11.2588-27.6872 15.0165-21.367Q18.7742-15.0469 25.109-11.2489Q31.4437-7.451 39.1579-7.451ZM39.1287-20.3903Q34.9045-20.3903 31.4916-22.3575Q28.0788-24.3247 26.1049-27.7041Q24.131-31.0834 24.131-35.2784Q24.131-39.4384 26.1049-42.8557Q28.0788-46.2729 31.4916-48.3126Q34.9045-50.3523 39.1287-50.3523Q43.3019-50.3523 46.7002-48.3126Q50.0985-46.2729 52.087-42.8557Q54.0755-39.4384 54.0755-35.2784Q54.0755-31.0834 52.087-27.7041Q50.0985-24.3247 46.7002-22.3575Q43.3019-20.3903 39.1287-20.3903ZM84.9935-54.9123Q92.6141-54.9123 98.921-58.6913Q105.228-62.4703 109.011-68.8028Q112.795-75.1353 112.795-82.7312Q112.795-90.3518 109.011-96.6574Q105.228-102.963 98.921-106.742Q92.6141-110.521 84.9935-110.521Q77.3172-110.521 70.9824-106.742Q64.6477-102.963 60.8709-96.6574Q57.0941-90.3518 57.0941-82.7312Q57.0941-75.1353 60.8709-68.8028Q64.6477-62.4703 70.9824-58.6913Q77.3172-54.9123 84.9935-54.9123ZM84.9643-67.8137Q80.7399-67.8137 77.327-69.8Q73.9141-71.7862 71.9402-75.1656Q69.9663-78.5449 69.9663-82.702Q69.9663-86.8997 71.9402-90.3171Q73.9141-93.7344 77.327-95.7741Q80.7399-97.8138 84.9643-97.8138Q89.1753-97.8138 92.548-95.7741Q95.9207-93.7344 97.9348-90.3171Q99.9489-86.8997 99.9489-82.702Q99.9489-78.5449 97.9348-75.1656Q95.9207-71.7862 92.548-69.8Q89.1753-67.8137 84.9643-67.8137ZM84.9935 39.9434Q92.6141 39.9434 98.921 36.1644Q105.228 32.3854 109.011 26.0463Q112.795 19.7073 112.795 12.1245Q112.795 4.49076 109.011-1.80824Q105.228-8.10723 98.921-11.8861Q92.6141-15.665 84.9935-15.665Q77.3172-15.665 70.9824-11.8861Q64.6477-8.10723 60.8709-1.80824Q57.0941 4.49076 57.0941 12.1245Q57.0941 19.7073 60.8709 26.0463Q64.6477 32.3854 70.9824 36.1644Q77.3172 39.9434 84.9935 39.9434ZM84.9643 27.042Q80.7399 27.042 77.327 25.0492Q73.9141 23.0564 71.9402 19.6836Q69.9663 16.3108 69.9663 12.1537Q69.9663 7.95598 71.9402 4.53865Q73.9141 1.12131 77.327-0.918401Q80.7399-2.95811 84.9643-2.95811Q89.1753-2.95811 92.548-0.918401Q95.9207 1.12131 97.9348 4.53865Q99.9489 7.95598 99.9489 12.1537Q99.9489 16.3108 97.9348 19.6836Q95.9207 23.0564 92.548 25.0492Q89.1753 27.042 84.9643 27.042ZM130.952-7.451Q138.572-7.451 144.886-11.2489Q151.199-15.0469 154.957-21.367Q158.715-27.6872 158.715-35.3076Q158.715-42.8903 154.957-49.1959Q151.199-55.5014 144.886-59.2994Q138.572-63.0973 130.952-63.0973Q123.237-63.0973 116.909-59.2994Q110.581-55.5014 106.817-49.1959Q103.052-42.8903 103.052-35.3076Q103.052-27.6872 106.817-21.367Q110.581-15.0469 116.909-11.2489Q123.237-7.451 130.952-7.451Z"/>
  </g>
  <g id="Semibold-L" transform="matrix(1 0 0 1 1958.54 1556)">
   <path d="M39.0038-7.60511Q46.582-7.60511 52.8611-11.3818Q59.1402-15.1585 62.8983-21.4467Q66.6564-27.735 66.6564-35.3129Q66.6564-42.8479 62.8983-49.1269Q59.1402-55.4059 52.8611-59.1826Q46.582-62.9592 39.0038-62.9592Q31.3268-62.9592 25.0293-59.1826Q18.7317-55.4059 14.9953-49.1269Q11.2588-42.8479 11.2588-35.3129Q11.2588-27.735 14.9953-21.4467Q18.7317-15.1585 25.0293-11.3818Q31.3268-7.60511 39.0038-7.60511ZM38.9852-18.9351Q34.3483-18.9351 30.6047-21.0928Q26.8611-23.2505 24.694-26.9633Q22.527-30.676 22.527-35.2943Q22.527-39.8514 24.694-43.6073Q26.8611-47.3633 30.6047-49.6015Q34.3483-51.8396 38.9852-51.8396Q43.5606-51.8396 47.2949-49.6015Q51.0293-47.3633 53.2056-43.6073Q55.3819-39.8514 55.3819-35.2943Q55.3819-30.676 53.2056-26.9633Q51.0293-23.2505 47.2949-21.0928Q43.5606-18.9351 38.9852-18.9351ZM84.7393-54.9607Q92.3175-54.9607 98.5873-58.7157Q104.857-62.4708 108.624-68.7715Q112.392-75.0722 112.392-82.6256Q112.392-90.2038 108.624-96.4828Q104.857-102.762 98.5873-106.517Q92.3175-110.272 84.7393-110.272Q77.1055-110.272 70.808-106.517Q64.5104-102.762 60.7522-96.4828Q56.9939-90.2038 56.9939-82.6256Q56.9939-75.0722 60.7522-68.7715Q64.5104-62.4708 70.808-58.7157Q77.1055-54.9607 84.7393-54.9607ZM84.7207-66.2475Q80.0835-66.2475 76.3398-68.4269Q72.5962-70.6064 70.4292-74.3191Q68.2622-78.0319 68.2622-82.607Q68.2622-87.207 70.4292-90.9631Q72.5962-94.7192 76.3398-96.9573Q80.0835-99.1955 84.7207-99.1955Q89.3393-99.1955 93.0427-96.9573Q96.7461-94.7192 98.9534-90.9631Q101.161-87.207 101.161-82.607Q101.161-78.0319 98.9534-74.3191Q96.7461-70.6064 93.0427-68.4269Q89.3393-66.2475 84.7207-66.2475ZM84.7393 39.689Q92.3175 39.689 98.5873 35.9339Q104.857 32.1788 108.624 25.869Q112.392 19.5591 112.392 12.0241Q112.392 4.4275 108.624-1.84231Q104.857-8.11213 98.5873-11.867Q92.3175-15.622 84.7393-15.622Q77.1055-15.622 70.808-11.867Q64.5104-8.11213 60.7522-1.84231Q56.9939 4.4275 56.9939 12.0241Q56.9939 19.5591 60.7522 25.869Q64.5104 32.1788 70.808 35.9339Q77.1055 39.689 84.7393 39.689ZM84.7207 28.4022Q80.0835 28.4022 76.3398 26.2135Q72.5962 24.0249 70.4292 20.3213Q68.2622 16.6178 68.2622 12.0426Q68.2622 7.44268 70.4292 3.68658Q72.5962-0.0695237 76.3398-2.30769Q80.0835-4.54585 84.7207-4.54585Q89.3393-4.54585 93.0427-2.30769Q96.7461-0.0695237 98.9534 3.68658Q101.161 7.44268 101.161 12.0426Q101.161 16.6178 98.9534 20.3213Q96.7461 24.0249 93.0427 26.2135Q89.3393 28.4022 84.7207 28.4022ZM130.592-7.60511Q138.17-7.60511 144.449-11.3818Q150.728-15.1585 154.465-21.4467Q158.201-27.735 158.201-35.3129Q158.201-42.8479 154.465-49.1269Q150.728-55.4059 144.449-59.1826Q138.17-62.9592 130.592-62.9592Q122.915-62.9592 116.627-59.1826Q110.338-55.4059 106.593-49.1269Q102.847-42.8479 102.847-35.3129Q102.847-27.735 106.593-21.4467Q110.338-15.1585 116.627-11.3818Q122.915-7.60511 130.592-7.60511Z"/>
  </g>
  <g id="Medium-L" transform="matrix(1 0 0 1 1662.02 1556)">
   <path d="M38.8869-7.72197Q46.433-7.72197 52.686-11.4825Q58.9389-15.2431 62.6829-21.5072Q66.4269-27.7712 66.4269-35.317Q66.4269-42.8158 62.6829-49.0746Q58.9389-55.3335 52.686-59.094Q46.433-62.8546 38.8869-62.8546Q31.2382-62.8546 24.9688-59.094Q18.6995-55.3335 14.9791-49.0746Q11.2588-42.8158 11.2588-35.317Q11.2588-27.7712 14.9791-21.5072Q18.6995-15.2431 24.9688-11.4825Q31.2382-7.72197 38.8869-7.72197ZM38.8764-17.8318Q33.9266-17.8318 29.9322-20.1339Q25.9378-22.4361 23.6243-26.4016Q21.3108-30.3671 21.3108-35.3065Q21.3108-40.1645 23.6243-44.1773Q25.9378-48.1901 29.9322-50.5787Q33.9266-52.9673 38.8764-52.9673Q43.7568-52.9673 47.7459-50.5787Q51.7351-48.1901 54.0538-44.1773Q56.3725-40.1645 56.3725-35.3065Q56.3725-30.3671 54.0538-26.4016Q51.7351-22.4361 47.7459-20.1339Q43.7568-17.8318 38.8764-17.8318ZM84.5465-54.9974Q92.0926-54.9974 98.3342-58.7343Q104.576-62.4712 108.331-68.7478Q112.086-75.0244 112.086-82.5455Q112.086-90.0916 108.331-96.3504Q104.576-102.609 98.3342-106.346Q92.0926-110.083 84.5465-110.083Q76.945-110.083 70.6757-106.346Q64.4063-102.609 60.6622-96.3504Q56.918-90.0916 56.918-82.5455Q56.918-75.0244 60.6622-68.7478Q64.4063-62.4712 70.6757-58.7343Q76.945-54.9974 84.5465-54.9974ZM84.536-65.0599Q79.5858-65.0599 75.5914-67.3859Q71.597-69.7118 69.2835-73.6773Q66.97-77.6429 66.97-82.535Q66.97-87.4399 69.2835-91.4529Q71.597-95.4658 75.5914-97.8545Q79.5858-100.243 84.536-100.243Q89.4636-100.243 93.4178-97.8545Q97.372-95.4658 99.7257-91.4529Q102.079-87.4399 102.079-82.535Q102.079-77.6429 99.7257-73.6773Q97.372-69.7118 93.4178-67.3859Q89.4636-65.0599 84.536-65.0599ZM84.5465 39.496Q92.0926 39.496 98.3342 35.7591Q104.576 32.0222 108.331 25.7345Q112.086 19.4467 112.086 11.9479Q112.086 4.37954 108.331-1.86815Q104.576-8.11585 98.3342-11.8526Q92.0926-15.5893 84.5465-15.5893Q76.945-15.5893 70.6757-11.8526Q64.4063-8.11585 60.6622-1.86815Q56.918 4.37954 56.918 11.9479Q56.918 19.4467 60.6622 25.7345Q64.4063 32.0222 70.6757 35.7591Q76.945 39.496 84.5465 39.496ZM84.536 29.4335Q79.5858 29.4335 75.5914 27.0964Q71.597 24.7593 69.2835 20.8049Q66.97 16.8505 66.97 11.9584Q66.97 7.05346 69.2835 3.0405Q71.597-0.972464 75.5914-3.3611Q79.5858-5.74974 84.536-5.74974Q89.4636-5.74974 93.4178-3.3611Q97.372-0.972464 99.7257 3.0405Q102.079 7.05346 102.079 11.9584Q102.079 16.8505 99.7257 20.8049Q97.372 24.7593 93.4178 27.0964Q89.4636 29.4335 84.536 29.4335ZM130.319-7.72197Q137.865-7.72197 144.118-11.4825Q150.371-15.2431 154.091-21.5072Q157.812-27.7712 157.812-35.317Q157.812-42.8158 154.091-49.0746Q150.371-55.3335 144.118-59.094Q137.865-62.8546 130.319-62.8546Q122.67-62.8546 116.412-59.094Q110.154-55.3335 106.422-49.0746Q102.691-42.8158 102.691-35.317Q102.691-27.7712 106.422-21.5072Q110.154-15.2431 116.412-11.4825Q122.67-7.72197 130.319-7.72197Z"/>
  </g>
  <g id="Regular-L" transform="matrix(1 0 0 1 1365.56 1556)">
   <path d="M38.7345-7.87439Q46.2387-7.87439 52.4575-11.6139Q58.6764-15.3534 62.402-21.586Q66.1275-27.8185 66.1275-35.3222Q66.1275-42.7739 62.402-49.0064Q58.6764-55.239 52.4575-58.9785Q46.2387-62.718 38.7345-62.718Q31.1225-62.718 24.89-58.9785Q18.6574-55.239 14.9581-49.0064Q11.2588-42.7739 11.2588-35.3222Q11.2588-27.8185 14.9581-21.586Q18.6574-15.3534 24.89-11.6139Q31.1225-7.87439 38.7345-7.87439ZM38.7345-16.3926Q33.3765-16.3926 29.055-18.8832Q24.7334-21.3737 22.229-25.6689Q19.7245-29.9642 19.7245-35.3222Q19.7245-40.5729 22.229-44.9207Q24.7334-49.2685 29.055-51.8534Q33.3765-54.4383 38.7345-54.4383Q44.0126-54.4383 48.3341-51.8534Q52.6556-49.2685 55.1601-44.9207Q57.6646-40.5729 57.6646-35.3222Q57.6646-29.9642 55.1601-25.6689Q52.6556-21.3737 48.3341-18.8832Q44.0126-16.3926 38.7345-16.3926ZM84.2951-55.0452Q91.7993-55.0452 98.0042-58.7585Q104.209-62.4717 107.949-68.7168Q111.688-74.9619 111.688-82.441Q111.688-89.9452 107.949-96.1777Q104.209-102.41 98.0042-106.123Q91.7993-109.836 84.2951-109.836Q76.7356-109.836 70.5031-106.123Q64.2706-102.41 60.5447-96.1777Q56.8189-89.9452 56.8189-82.441Q56.8189-74.9619 60.5447-68.7168Q64.2706-62.4717 70.5031-58.7585Q76.7356-55.0452 84.2951-55.0452ZM84.2951-63.5109Q78.9366-63.5109 74.6151-66.0279Q70.2936-68.545 67.7891-72.8402Q65.2846-77.1355 65.2846-82.441Q65.2846-87.7438 67.7891-92.0918Q70.2936-96.4398 74.6151-99.0247Q78.9366-101.61 84.2951-101.61Q89.6258-101.61 93.9071-99.0247Q98.1884-96.4398 100.733-92.0918Q103.278-87.7438 103.278-82.441Q103.278-77.1355 100.733-72.8402Q98.1884-68.545 93.9071-66.0279Q89.6258-63.5109 84.2951-63.5109ZM84.2951 39.2443Q91.7993 39.2443 98.0042 35.5311Q104.209 31.8178 107.949 25.559Q111.688 19.3002 111.688 11.8486Q111.688 4.31698 107.949-1.90186Q104.209-8.12069 98.0042-11.8337Q91.7993-15.5467 84.2951-15.5467Q76.7356-15.5467 70.5031-11.8337Q64.2706-8.12069 60.5447-1.90186Q56.8189 4.31698 56.8189 11.8486Q56.8189 19.3002 60.5447 25.559Q64.2706 31.8178 70.5031 35.5311Q76.7356 39.2443 84.2951 39.2443ZM84.2951 30.7787Q78.9366 30.7787 74.6151 28.2479Q70.2936 25.7172 67.7891 21.4356Q65.2846 17.1541 65.2846 11.8486Q65.2846 6.5458 67.7891 2.19779Q70.2936-2.15021 74.6151-4.73512Q78.9366-7.32003 84.2951-7.32003Q89.6258-7.32003 93.9071-4.73512Q98.1884-2.15021 100.733 2.19779Q103.278 6.5458 103.278 11.8486Q103.278 17.1541 100.733 21.4356Q98.1884 25.7172 93.9071 28.2479Q89.6258 30.7787 84.2951 30.7787ZM129.963-7.87439Q137.467-7.87439 143.686-11.6139Q149.905-15.3534 153.604-21.586Q157.304-27.8185 157.304-35.3222Q157.304-42.7739 153.604-49.0064Q149.905-55.239 143.686-58.9785Q137.467-62.718 129.963-62.718Q122.351-62.718 116.132-58.9785Q109.914-55.239 106.201-49.0064Q102.487-42.7739 102.487-35.3222Q102.487-27.8185 106.201-21.586Q109.914-15.3534 116.132-11.6139Q122.351-7.87439 129.963-7.87439Z"/>
  </g>
  <g id="Light-L" transform="matrix(1 0 0 1 1069.13 1556)">
   <path d="M38.7153-7.89363Q46.1813-7.89363 52.3907-11.6332Q58.6001-15.3727 62.316-21.6052Q66.032-27.8378 66.032-35.303Q66.032-42.7357 62.316-48.9683Q58.6001-55.2008 52.3907-58.9403Q46.1813-62.6799 38.7153-62.6799Q31.1225-62.6799 24.89-58.9403Q18.6574-55.2008 14.9581-48.9683Q11.2588-42.7357 11.2588-35.303Q11.2588-27.8378 14.9581-21.6052Q18.6574-15.3727 24.89-11.6332Q31.1225-7.89363 38.7153-7.89363ZM38.7153-14.4652Q32.823-14.4652 28.0721-17.2037Q23.3213-19.9423 20.5591-24.6765Q17.797-29.4107 17.797-35.303Q17.797-41.0693 20.5591-45.8368Q23.3213-50.6043 28.0721-53.4469Q32.823-56.2894 38.7153-56.2894Q44.5279-56.2894 49.2788-53.4469Q54.0297-50.6043 56.7918-45.8368Q59.5539-41.0693 59.5539-35.303Q59.5539-29.4107 56.7918-24.6765Q54.0297-19.9423 49.2788-17.2037Q44.5279-14.4652 38.7153-14.4652ZM84.028-54.8733Q91.494-54.8733 97.6798-58.5962Q103.866-62.3191 107.605-68.5451Q111.345-74.7711 111.345-82.2502Q111.345-89.7162 107.605-95.9488Q103.866-102.181 97.6798-105.904Q91.494-109.626 84.028-109.626Q76.4685-109.626 70.236-105.904Q64.0034-102.181 60.2871-95.9488Q56.5707-89.7162 56.5707-82.2502Q56.5707-74.7711 60.2871-68.5451Q64.0034-62.3191 70.236-58.5962Q76.4685-54.8733 84.028-54.8733ZM84.028-61.4116Q78.1349-61.4116 73.3841-64.1672Q68.6332-66.9228 65.8711-71.657Q63.1089-76.3912 63.1089-82.2502Q63.1089-88.049 65.8711-92.8169Q68.6332-97.5848 73.3841-100.427Q78.1349-103.27 84.028-103.27Q89.874-103.27 94.5846-100.427Q99.2953-97.5848 102.098-92.8169Q104.9-88.049 104.9-82.2502Q104.9-76.3912 102.098-71.657Q99.2953-66.9228 94.5846-64.1672Q89.874-61.4116 84.028-61.4116ZM84.028 39.0536Q91.494 39.0536 97.6798 35.3307Q103.866 31.6078 107.605 25.3586Q111.345 19.1094 111.345 11.6767Q111.345 4.16435 107.605-2.04503Q103.866-8.25441 97.6798-11.9769Q91.494-15.6994 84.028-15.6994Q76.4685-15.6994 70.236-11.9769Q64.0034-8.25441 60.2871-2.04503Q56.5707 4.16435 56.5707 11.6767Q56.5707 19.1094 60.2871 25.3586Q64.0034 31.6078 70.236 35.3307Q76.4685 39.0536 84.028 39.0536ZM84.028 32.5153Q78.1349 32.5153 73.3841 29.7366Q68.6332 26.9578 65.8711 22.2467Q63.1089 17.5357 63.1089 11.6767Q63.1089 5.87787 65.8711 1.10997Q68.6332-3.65794 73.3841-6.50049Q78.1349-9.34304 84.028-9.34304Q89.874-9.34304 94.5846-6.50049Q99.2953-3.65794 102.098 1.10997Q104.9 5.87787 104.9 11.6767Q104.9 17.5357 102.098 22.2467Q99.2953 26.9578 94.5846 29.7366Q89.874 32.5153 84.028 32.5153ZM129.467-7.89363Q136.933-7.89363 143.142-11.6332Q149.351-15.3727 153.051-21.6052Q156.75-27.8378 156.75-35.303Q156.75-42.7357 153.051-48.9683Q149.351-55.2008 143.142-58.9403Q136.933-62.6799 129.467-62.6799Q121.874-62.6799 115.665-58.9403Q109.456-55.2008 105.733-48.9683Q102.01-42.7357 102.01-35.303Q102.01-27.8378 105.733-21.6052Q109.456-15.3727 115.665-11.6332Q121.874-7.89363 129.467-7.89363Z"/>
  </g>
  <g id="Thin-L" transform="matrix(1 0 0 1 772.784 1556)">
   <path d="M38.6898-7.91907Q46.1054-7.91907 52.3023-11.6586Q58.4991-15.3981 62.2024-21.6307Q65.9056-27.8632 65.9056-35.2776Q65.9056-42.6853 62.2024-48.9178Q58.4991-55.1503 52.3023-58.8899Q46.1054-62.6294 38.6898-62.6294Q31.1225-62.6294 24.89-58.8899Q18.6574-55.1503 14.9581-48.9178Q11.2588-42.6853 11.2588-35.2776Q11.2588-27.8632 14.9581-21.6307Q18.6574-15.3981 24.89-11.6586Q31.1225-7.91907 38.6898-7.91907ZM38.6898-11.9159Q32.091-11.9159 26.7723-14.9825Q21.4536-18.0491 18.3507-23.3639Q15.2478-28.6787 15.2478-35.2776Q15.2478-41.7258 18.3507-47.0485Q21.4536-52.3711 26.7723-55.5544Q32.091-58.7377 38.6898-58.7377Q45.2094-58.7377 50.5282-55.5544Q55.8469-52.3711 58.9498-47.0485Q62.0527-41.7258 62.0527-35.2776Q62.0527-28.6787 58.9498-23.3639Q55.8469-18.0491 50.5282-14.9825Q45.2094-11.9159 38.6898-11.9159ZM83.6747-54.646Q91.0903-54.646 97.2509-58.3816Q103.411-62.1172 107.151-68.318Q110.891-74.5188 110.891-81.9979Q110.891-89.4134 107.151-95.646Q103.411-101.878 97.2509-105.613Q91.0903-109.348 83.6747-109.348Q76.1153-109.348 69.8827-105.613Q63.6502-101.878 59.9463-95.646Q56.2425-89.4134 56.2425-81.9979Q56.2425-74.5188 59.9463-68.318Q63.6502-62.1172 69.8827-58.3816Q76.1153-54.646 83.6747-54.646ZM83.6747-58.635Q77.0747-58.635 71.756-61.7062Q66.4373-64.7773 63.3344-70.0921Q60.2315-75.4069 60.2315-81.9979Q60.2315-88.4528 63.3344-93.776Q66.4373-99.0993 71.756-102.283Q77.0747-105.466 83.6747-105.466Q90.2022-105.466 95.4807-102.283Q100.759-99.0993 103.902-93.776Q107.045-88.4528 107.045-81.9979Q107.045-75.4069 103.902-70.0921Q100.759-64.7773 95.4807-61.7062Q90.2022-58.635 83.6747-58.635ZM83.6747 38.8012Q91.0903 38.8012 97.2509 35.0656Q103.411 31.33 107.151 25.0936Q110.891 18.8571 110.891 11.4494Q110.891 3.96248 107.151-2.23439Q103.411-8.43125 97.2509-12.1662Q91.0903-15.9012 83.6747-15.9012Q76.1153-15.9012 69.8827-12.1662Q63.6502-8.43125 59.9463-2.23439Q56.2425 3.96248 56.2425 11.4494Q56.2425 18.8571 59.9463 25.0936Q63.6502 31.33 69.8827 35.0656Q76.1153 38.8012 83.6747 38.8012ZM83.6747 34.8122Q77.0747 34.8122 71.756 31.7054Q66.4373 28.5986 63.3344 23.3195Q60.2315 18.0404 60.2315 11.4494Q60.2315 4.99449 63.3344-0.328768Q66.4373-5.65202 71.756-8.83533Q77.0747-12.0186 83.6747-12.0186Q90.2022-12.0186 95.4807-8.83533Q100.759-5.65202 103.902-0.328768Q107.045 4.99449 107.045 11.4494Q107.045 18.0404 103.902 23.3195Q100.759 28.5986 95.4807 31.7054Q90.2022 34.8122 83.6747 34.8122ZM128.81-7.91907Q136.226-7.91907 142.423-11.6586Q148.619-15.3981 152.319-21.6307Q156.018-27.8632 156.018-35.2776Q156.018-42.6853 152.319-48.9178Q148.619-55.1503 142.423-58.8899Q136.226-62.6294 128.81-62.6294Q121.243-62.6294 115.047-58.8899Q108.85-55.1503 105.115-48.9178Q101.379-42.6853 101.379-35.2776Q101.379-27.8632 105.115-21.6307Q108.85-15.3981 115.047-11.6586Q121.243-7.91907 128.81-7.91907Z"/>
  </g>
  <g id="Ultralight-L" transform="matrix(1 0 0 1 476.26 1556)">
   <path d="M38.6768-7.93211Q46.0665-7.93211 52.257-11.6716Q58.4474-15.4112 62.1442-21.6437Q65.8409-27.8762 65.8409-35.2645Q65.8409-42.6594 62.1442-48.8919Q58.4474-55.1245 52.257-58.864Q46.0665-62.6035 38.6768-62.6035Q31.1225-62.6035 24.89-58.864Q18.6574-55.1245 14.9581-48.8919Q11.2588-42.6594 11.2588-35.2645Q11.2588-27.8762 14.9581-21.6437Q18.6574-15.4112 24.89-11.6716Q31.1225-7.93211 38.6768-7.93211ZM38.6768-10.6102Q31.7161-10.6102 26.1065-13.8449Q20.4969-17.0795 17.2195-22.6917Q13.9421-28.3038 13.9421-35.2645Q13.9421-42.0621 17.2195-47.6691Q20.4969-53.276 26.1065-56.6339Q31.7161-59.9917 38.6768-59.9917Q45.5585-59.9917 51.1681-56.6339Q56.7777-53.276 60.0551-47.6691Q63.3325-42.0621 63.3325-35.2645Q63.3325-28.3038 60.0551-22.6917Q56.7777-17.0795 51.1681-13.8449Q45.5585-10.6102 38.6768-10.6102ZM83.4938-54.5296Q90.8835-54.5296 97.0312-58.2717Q103.179-62.0138 106.918-68.2017Q110.658-74.3896 110.658-81.8686Q110.658-89.2583 106.918-95.4909Q103.179-101.723 97.0312-105.465Q90.8835-109.206 83.4938-109.206Q75.9343-109.206 69.7018-105.465Q63.4692-101.723 59.7718-95.4909Q56.0744-89.2583 56.0744-81.8686Q56.0744-74.3896 59.7718-68.2017Q63.4692-62.0138 69.7018-58.2717Q75.9343-54.5296 83.4938-54.5296ZM83.4938-57.2129Q76.5317-57.2129 70.9221-60.4456Q65.3125-63.6784 62.0351-69.2906Q58.7577-74.9027 58.7577-81.8686Q58.7577-88.6595 62.0351-94.2672Q65.3125-99.8749 70.9221-103.233Q76.5317-106.591 83.4938-106.591Q90.3703-106.591 95.9397-103.233Q101.509-99.8749 104.827-94.2672Q108.144-88.6595 108.144-81.8686Q108.144-74.9027 104.827-69.2906Q101.509-63.6784 95.9397-60.4456Q90.3703-57.2129 83.4938-57.2129ZM83.4938 38.672Q90.8835 38.672 97.0312 34.9299Q103.179 31.1877 106.918 24.9578Q110.658 18.7278 110.658 11.333Q110.658 3.85908 106.918-2.33138Q103.179-8.52183 97.0312-12.2632Q90.8835-16.0046 83.4938-16.0046Q75.9343-16.0046 69.7018-12.2632Q63.4692-8.52183 59.7718-2.33138Q56.0744 3.85908 56.0744 11.333Q56.0744 18.7278 59.7718 24.9578Q63.4692 31.1877 69.7018 34.9299Q75.9343 38.672 83.4938 38.672ZM83.4938 35.9887Q76.5317 35.9887 70.9221 32.7138Q65.3125 29.439 62.0351 23.8689Q58.7577 18.2988 58.7577 11.333Q58.7577 4.54202 62.0351-1.06568Q65.3125-6.67338 70.9221-10.0312Q76.5317-13.3891 83.4938-13.3891Q90.3703-13.3891 95.9397-10.0312Q101.509-6.67338 104.827-1.06568Q108.144 4.54202 108.144 11.333Q108.144 18.2988 104.827 23.8689Q101.509 29.439 95.9397 32.7138Q90.3703 35.9887 83.4938 35.9887ZM128.474-7.93211Q135.864-7.93211 142.054-11.6716Q148.245-15.4112 151.944-21.6437Q155.643-27.8762 155.643-35.2645Q155.643-42.6594 151.944-48.8919Q148.245-55.1245 142.054-58.864Q135.864-62.6035 128.474-62.6035Q120.92-62.6035 114.73-58.864Q108.54-55.1245 104.798-48.8919Q101.056-42.6594 101.056-35.2645Q101.056-27.8762 104.798-21.6437Q108.54-15.4112 114.73-11.6716Q120.92-7.93211 128.474-7.93211Z"/>
  </g>
  <g id="Black-M" transform="matrix(1 0 0 1 2866.82 1126)">
   <path d="M30.8305-13.2151Q36.859-13.2151 41.859-16.2265Q46.8591-19.2378 49.842-24.2377Q52.825-29.2376 52.825-35.2661Q52.825-41.2891 49.842-46.2605Q46.8591-51.2318 41.859-54.2432Q36.859-57.2546 30.8305-57.2546Q24.74-57.2546 19.7115-54.2432Q14.6831-51.2318 11.7029-46.2605Q8.72266-41.2891 8.72266-35.2661Q8.72266-29.2376 11.7029-24.2377Q14.6831-19.2378 19.7115-16.2265Q24.74-13.2151 30.8305-13.2151ZM30.7734-27.7957Q28.6574-27.7957 26.9396-28.7865Q25.2219-29.7773 24.2313-31.4637Q23.2406-33.1501 23.2406-35.209Q23.2406-37.3201 24.2313-39.0121Q25.2219-40.704 26.9396-41.7284Q28.6574-42.7528 30.7734-42.7528Q32.8842-42.7528 34.5734-41.7284Q36.2626-40.704 37.2818-39.0121Q38.301-37.3201 38.301-35.209Q38.301-33.1501 37.2818-31.4637Q36.2626-29.7773 34.5734-28.7865Q32.8842-27.7957 30.7734-27.7957ZM66.5814-50.2632Q72.6099-50.2632 77.6101-53.2718Q82.6103-56.2804 85.5931-61.2832Q88.5759-66.286 88.5759-72.3087Q88.5759-78.3372 85.5931-83.3086Q82.6103-88.2799 77.6101-91.2885Q72.6099-94.2972 66.5814-94.2972Q60.4964-94.2972 55.468-91.2885Q50.4395-88.2799 47.4566-83.3086Q44.4736-78.3372 44.4736-72.3087Q44.4736-66.286 47.4566-61.2832Q50.4395-56.2804 55.468-53.2718Q60.4964-50.2632 66.5814-50.2632ZM66.5243-64.8383Q64.4083-64.8383 62.6906-65.8318Q60.9729-66.8253 59.9822-68.5118Q58.9916-70.1982 58.9916-72.2516Q58.9916-74.3682 59.9822-76.0601Q60.9729-77.7521 62.6906-78.7765Q64.4083-79.8009 66.5243-79.8009Q68.6407-79.8009 70.3272-78.7765Q72.0138-77.7521 73.0356-76.0601Q74.0574-74.3682 74.0574-72.2516Q74.0574-70.1982 73.0356-68.5118Q72.0138-66.8253 70.3272-65.8318Q68.6407-64.8383 66.5243-64.8383ZM66.5814 23.7704Q72.6099 23.7704 77.6101 20.7618Q82.6103 17.7531 85.5931 12.7505Q88.5759 7.74785 88.5759 1.72485Q88.5759-4.30337 85.5931-9.27486Q82.6103-14.2464 77.6101-17.255Q72.6099-20.2636 66.5814-20.2636Q60.4964-20.2636 55.468-17.255Q50.4395-14.2464 47.4566-9.27486Q44.4736-4.30337 44.4736 1.72485Q44.4736 7.74785 47.4566 12.7505Q50.4395 17.7531 55.468 20.7618Q60.4964 23.7704 66.5814 23.7704ZM66.5243 9.1953Q64.4083 9.1953 62.6906 8.20191Q60.9729 7.20852 59.9822 5.52195Q58.9916 3.83539 58.9916 1.78194Q58.9916-0.334658 59.9822-2.02657Q60.9729-3.71849 62.6906-4.74289Q64.4083-5.76729 66.5243-5.76729Q68.6407-5.76729 70.3272-4.74289Q72.0138-3.71849 73.0356-2.02657Q74.0574-0.334658 74.0574 1.78194Q74.0574 3.83539 73.0356 5.52195Q72.0138 7.20852 70.3272 8.20191Q68.6407 9.1953 66.5243 9.1953ZM102.452-13.2151Q108.48-13.2151 113.48-16.2265Q118.48-19.2378 121.46-24.2377Q124.441-29.2376 124.441-35.2661Q124.441-41.2891 121.46-46.2605Q118.48-51.2318 113.48-54.2432Q108.48-57.2546 102.452-57.2546Q96.361-57.2546 91.3324-54.2432Q86.3038-51.2318 83.3237-46.2605Q80.3437-41.2891 80.3437-35.2661Q80.3437-29.2376 83.3237-24.2377Q86.3038-19.2378 91.3324-16.2265Q96.361-13.2151 102.452-13.2151Z"/>
  </g>
  <g id="Heavy-M" transform="matrix(1 0 0 1 2570.37 1126)">
   <path d="M30.6393-13.4063Q36.6222-13.4063 41.5806-16.3907Q46.5389-19.3752 49.5004-24.3346Q52.4618-29.2941 52.4618-35.277Q52.4618-41.2436 49.5004-46.1813Q46.5389-51.1189 41.5806-54.1033Q36.6222-57.0878 30.6393-57.0878Q24.5918-57.0878 19.6105-54.1033Q14.6292-51.1189 11.6759-46.1813Q8.72266-41.2436 8.72266-35.277Q8.72266-29.2941 11.6759-24.3346Q14.6292-19.3752 19.6105-16.3907Q24.5918-13.4063 30.6393-13.4063ZM30.5956-26.3652Q28.0712-26.3652 26.0264-27.5441Q23.9817-28.7231 22.8016-30.7378Q21.6215-32.7526 21.6215-35.2334Q21.6215-37.737 22.8016-39.7681Q23.9817-41.7992 26.0264-43.0198Q28.0712-44.2405 30.5956-44.2405Q33.1015-44.2405 35.1244-43.0198Q37.1473-41.7992 38.3493-39.7681Q39.5512-37.737 39.5512-35.2334Q39.5512-32.7526 38.3493-30.7378Q37.1473-28.7231 35.1244-27.5441Q33.1015-26.3652 30.5956-26.3652ZM66.3166-50.3614Q72.2995-50.3614 77.2567-53.3377Q82.214-56.3139 85.1766-61.2804Q88.1392-66.247 88.1392-72.2158Q88.1392-78.1987 85.1766-83.1364Q82.214-88.0741 77.2567-91.0503Q72.2995-94.0265 66.3166-94.0265Q60.2855-94.0265 55.3042-91.0503Q50.3229-88.0741 47.3614-83.1364Q44.3999-78.1987 44.3999-72.2158Q44.3999-66.247 47.3614-61.2804Q50.3229-56.3139 55.3042-53.3377Q60.2855-50.3614 66.3166-50.3614ZM66.273-63.3039Q63.7484-63.3039 61.7037-64.4911Q59.659-65.6782 58.4789-67.693Q57.2987-69.7077 57.2987-72.1722Q57.2987-74.6921 58.4789-76.7232Q59.659-78.7544 61.7037-79.975Q63.7484-81.1956 66.273-81.1956Q68.7952-81.1956 70.8088-79.975Q72.8223-78.7544 74.0336-76.7232Q75.2449-74.6921 75.2449-72.1722Q75.2449-69.7077 74.0336-67.693Q72.8223-65.6782 70.8088-64.4911Q68.7952-63.3039 66.273-63.3039ZM66.3166 23.4888Q72.2995 23.4888 77.2567 20.5126Q82.214 17.5364 85.1766 12.5687Q88.1392 7.60102 88.1392 1.63445Q88.1392-4.35077 85.1766-9.28731Q82.214-14.2238 77.2567-17.2Q72.2995-20.1762 66.3166-20.1762Q60.2855-20.1762 55.3042-17.2Q50.3229-14.2238 47.3614-9.28731Q44.3999-4.35077 44.3999 1.63445Q44.3999 7.60102 47.3614 12.5687Q50.3229 17.5364 55.3042 20.5126Q60.2855 23.4888 66.3166 23.4888ZM66.273 10.5464Q63.7484 10.5464 61.7037 9.35805Q59.659 8.16974 58.4789 6.15613Q57.2987 4.14253 57.2987 1.67807Q57.2987-0.841856 58.4789-2.873Q59.659-4.90414 61.7037-6.12475Q63.7484-7.34537 66.273-7.34537Q68.7952-7.34537 70.8088-6.12475Q72.8223-4.90414 74.0336-2.873Q75.2449-0.841856 75.2449 1.67807Q75.2449 4.14253 74.0336 6.15613Q72.8223 8.16974 70.8088 9.35805Q68.7952 10.5464 66.273 10.5464ZM102.102-13.4063Q108.085-13.4063 113.043-16.3907Q118.002-19.3752 120.955-24.3346Q123.908-29.2941 123.908-35.277Q123.908-41.2436 120.955-46.1813Q118.002-51.1189 113.043-54.1033Q108.085-57.0878 102.102-57.0878Q96.0545-57.0878 91.0744-54.1033Q86.0942-51.1189 83.1398-46.1813Q80.1854-41.2436 80.1854-35.277Q80.1854-29.2941 83.1398-24.3346Q86.0942-19.3752 91.0744-16.3907Q96.0545-13.4063 102.102-13.4063Z"/>
  </g>
  <g id="Bold-M" transform="matrix(1 0 0 1 2273.96 1126)">
   <path d="M30.4254-13.6202Q36.3574-13.6202 41.2691-16.5745Q46.1808-19.5288 49.1182-24.443Q52.0556-29.3573 52.0556-35.2892Q52.0556-41.1927 49.1182-46.0926Q46.1808-50.9926 41.2691-53.9469Q36.3574-56.9012 30.4254-56.9012Q24.4259-56.9012 19.4974-53.9469Q14.5689-50.9926 11.6458-46.0926Q8.72266-41.1927 8.72266-35.2892Q8.72266-29.3573 11.6458-24.443Q14.5689-19.5288 19.4974-16.5745Q24.4259-13.6202 30.4254-13.6202ZM30.3968-24.7649Q27.4154-24.7649 25.0049-26.1544Q22.5943-27.5439 21.2023-29.9259Q19.8102-32.3079 19.8102-35.2607Q19.8102-38.2033 21.2023-40.6139Q22.5943-43.0244 25.0049-44.4645Q27.4154-45.9046 30.3968-45.9046Q33.3445-45.9046 35.7408-44.4645Q38.1371-43.0244 39.5434-40.6139Q40.9498-38.2033 40.9498-35.2607Q40.9498-32.3079 39.5434-29.9259Q38.1371-27.5439 35.7408-26.1544Q33.3445-24.7649 30.3968-24.7649ZM66.0203-50.4713Q71.9523-50.4713 76.8614-53.4113Q81.7706-56.3513 84.7106-61.2773Q87.6506-66.2033 87.6506-72.1118Q87.6506-78.0438 84.7106-82.9438Q81.7706-87.8438 76.8614-90.7837Q71.9523-93.7237 66.0203-93.7237Q60.0495-93.7237 55.1209-90.7837Q50.1924-87.8438 47.255-82.9438Q44.3175-78.0438 44.3175-72.1118Q44.3175-66.2033 47.255-61.2773Q50.1924-56.3513 55.1209-53.4113Q60.0495-50.4713 66.0203-50.4713ZM65.9918-61.5874Q63.0103-61.5874 60.5998-62.9912Q58.1892-64.3951 56.7971-66.7771Q55.405-69.159 55.405-72.0833Q55.405-75.0544 56.7971-77.465Q58.1892-79.8756 60.5998-81.3157Q63.0103-82.7558 65.9918-82.7558Q68.968-82.7558 71.3474-81.3157Q73.7268-79.8756 75.1501-77.465Q76.5733-75.0544 76.5733-72.0833Q76.5733-69.159 75.1501-66.7771Q73.7268-64.3951 71.3474-62.9912Q68.968-61.5874 65.9918-61.5874ZM66.0203 23.1738Q71.9523 23.1738 76.8614 20.2338Q81.7706 17.2939 84.7106 12.3653Q87.6506 7.43676 87.6506 1.53332Q87.6506-4.40379 84.7106-9.30123Q81.7706-14.1987 76.8614-17.1386Q71.9523-20.0785 66.0203-20.0785Q60.0495-20.0785 55.1209-17.1386Q50.1924-14.1987 47.255-9.30123Q44.3175-4.40379 44.3175 1.53332Q44.3175 7.43676 47.255 12.3653Q50.1924 17.2939 55.1209 20.2338Q60.0495 23.1738 66.0203 23.1738ZM65.9918 12.0577Q63.0103 12.0577 60.5998 10.6514Q58.1892 9.24499 56.7971 6.86555Q55.405 4.48611 55.405 1.56187Q55.405-1.40923 56.7971-3.81984Q58.1892-6.23045 60.5998-7.67056Q63.0103-9.11067 65.9918-9.11067Q68.968-9.11067 71.3474-7.67056Q73.7268-6.23045 75.1501-3.81984Q76.5733-1.40923 76.5733 1.56187Q76.5733 4.48611 75.1501 6.86555Q73.7268 9.24499 71.3474 10.6514Q68.968 12.0577 65.9918 12.0577ZM101.711-13.6202Q107.643-13.6202 112.555-16.5745Q117.467-19.5288 120.39-24.443Q123.313-29.3573 123.313-35.2892Q123.313-41.1927 120.39-46.0926Q117.467-50.9926 112.555-53.9469Q107.643-56.9012 101.711-56.9012Q95.7117-56.9012 90.7857-53.9469Q85.8598-50.9926 82.9341-46.0926Q80.0084-41.1927 80.0084-35.2892Q80.0084-29.3573 82.9341-24.443Q85.8598-19.5288 90.7857-16.5745Q95.7117-13.6202 101.711-13.6202Z"/>
  </g>
  <g id="Semibold-M" transform="matrix(1 0 0 1 1977.45 1126)">
   <path d="M30.2779-13.7677Q36.1748-13.7677 41.0544-16.7012Q45.9339-19.6347 48.8547-24.5178Q51.7756-29.4008 51.7756-35.2976Q51.7756-41.1575 48.8547-46.0316Q45.9339-50.9056 41.0544-53.839Q36.1748-56.7725 30.2779-56.7725Q24.3116-56.7725 19.4195-53.839Q14.5273-50.9056 11.625-46.0316Q8.72266-41.1575 8.72266-35.2976Q8.72266-29.4008 11.625-24.5178Q14.5273-19.6347 19.4195-16.7012Q24.3116-13.7677 30.2779-13.7677ZM30.2597-23.6617Q26.9634-23.6617 24.3006-25.1963Q21.6379-26.7309 20.0997-29.3661Q18.5615-32.0013 18.5615-35.2795Q18.5615-38.5247 20.0997-41.1969Q21.6379-43.8691 24.3006-45.4605Q26.9634-47.0519 30.2597-47.0519Q33.5121-47.0519 36.1657-45.4605Q38.8194-43.8691 40.3667-41.1969Q41.9139-38.5247 41.9139-35.2795Q41.9139-32.0013 40.3667-29.3661Q38.8194-26.7309 36.1657-25.1963Q33.5121-23.6617 30.2597-23.6617ZM65.8161-50.5471Q71.713-50.5471 76.5889-53.4621Q81.4649-56.3771 84.3893-61.2751Q87.3137-66.1732 87.3137-72.0402Q87.3137-77.9371 84.3893-82.8111Q81.4649-87.6851 76.5889-90.6Q71.713-93.5149 65.8161-93.5149Q59.8868-93.5149 54.9946-90.6Q50.1025-87.6851 47.1816-82.8111Q44.2607-77.9371 44.2607-72.0402Q44.2607-66.1732 47.1816-61.2751Q50.1025-56.3771 54.9946-53.4621Q59.8868-50.5471 65.8161-50.5471ZM65.7979-60.4041Q62.5014-60.4041 59.8387-61.9573Q57.1759-63.5105 55.6377-66.1456Q54.0995-68.7808 54.0995-72.022Q54.0995-75.3041 55.6377-77.9764Q57.1759-80.6486 59.8387-82.24Q62.5014-83.8314 65.7979-83.8314Q69.0872-83.8314 71.7188-82.24Q74.3504-80.6486 75.9197-77.9764Q77.4891-75.3041 77.4891-72.022Q77.4891-68.7808 75.9197-66.1456Q74.3504-63.5105 71.7188-61.9573Q69.0872-60.4041 65.7979-60.4041ZM65.8161 22.9567Q71.713 22.9567 76.5889 20.0417Q81.4649 17.1267 84.3893 12.2251Q87.3137 7.32353 87.3137 1.46361Q87.3137-4.44034 84.3893-9.31082Q81.4649-14.1813 76.5889-17.0962Q71.713-20.0112 65.8161-20.0112Q59.8868-20.0112 54.9946-17.0962Q50.1025-14.1813 47.1816-9.31082Q44.2607-4.44034 44.2607 1.46361Q44.2607 7.32353 47.1816 12.2251Q50.1025 17.1267 54.9946 20.0417Q59.8868 22.9567 65.8161 22.9567ZM65.7979 13.0997Q62.5014 13.0997 59.8387 11.543Q57.1759 9.98627 55.6377 7.35462Q54.0995 4.72297 54.0995 1.48177Q54.0995-1.80038 55.6377-4.47259Q57.1759-7.1448 59.8387-8.73623Q62.5014-10.3277 65.7979-10.3277Q69.0872-10.3277 71.7188-8.73623Q74.3504-7.1448 75.9197-4.47259Q77.4891-1.80038 77.4891 1.48177Q77.4891 4.72297 75.9197 7.35462Q74.3504 9.98627 71.7188 11.543Q69.0872 13.0997 65.7979 13.0997ZM101.442-13.7677Q107.339-13.7677 112.218-16.7012Q117.098-19.6347 120-24.5178Q122.902-29.4008 122.902-35.2976Q122.902-41.1575 120-46.0316Q117.098-50.9056 112.218-53.839Q107.339-56.7725 101.442-56.7725Q95.4753-56.7725 90.5868-53.839Q85.6982-50.9056 82.7923-46.0316Q79.8864-41.1575 79.8864-35.2976Q79.8864-29.4008 82.7923-24.5178Q85.6982-19.6347 90.5868-16.7012Q95.4753-13.7677 101.442-13.7677Z"/>
  </g>
  <g id="Medium-M" transform="matrix(1 0 0 1 1680.9 1126)">
   <path d="M30.1661-13.8795Q36.0363-13.8795 40.8915-16.7973Q45.7467-19.715 48.655-24.5744Q51.5632-29.4339 51.5632-35.304Q51.5632-41.1309 48.655-45.9852Q45.7467-50.8395 40.8915-53.7573Q36.0363-56.675 30.1661-56.675Q24.225-56.675 19.3604-53.7573Q14.4958-50.8395 11.6092-45.9852Q8.72266-41.1309 8.72266-35.304Q8.72266-29.4339 11.6092-24.5744Q14.4958-19.715 19.3604-16.7973Q24.225-13.8795 30.1661-13.8795ZM30.1558-22.8252Q26.6206-22.8252 23.7667-24.4699Q20.9127-26.1145 19.2637-28.9417Q17.6147-31.7688 17.6147-35.2937Q17.6147-38.7685 19.2637-41.639Q20.9127-44.5095 23.7667-46.2157Q26.6206-47.9218 30.1558-47.9218Q33.6391-47.9218 36.4879-46.2157Q39.3367-44.5095 40.9909-41.639Q42.645-38.7685 42.645-35.2937Q42.645-31.7688 40.9909-28.9417Q39.3367-26.1145 36.4879-24.4699Q33.6391-22.8252 30.1558-22.8252ZM65.6612-50.6046Q71.5315-50.6046 76.3823-53.5006Q81.2331-56.3966 84.1457-61.2735Q87.0583-66.1504 87.0583-71.9858Q87.0583-77.8561 84.1457-82.7104Q81.2331-87.5647 76.3823-90.4607Q71.5315-93.3566 65.6612-93.3566Q59.7634-93.3566 54.8988-90.4607Q50.0343-87.5647 47.1259-82.7104Q44.2176-77.8561 44.2176-71.9858Q44.2176-66.1504 47.1259-61.2735Q50.0343-56.3966 54.8988-53.5006Q59.7634-50.6046 65.6612-50.6046ZM65.6509-59.5069Q62.1156-59.5069 59.2616-61.1733Q56.4077-62.8397 54.7587-65.6668Q53.1097-68.494 53.1097-71.9755Q53.1097-75.4935 54.7587-78.3641Q56.4077-81.2347 59.2616-82.9408Q62.1156-84.647 65.6509-84.647Q69.1776-84.647 72.0004-82.9408Q74.8232-81.2347 76.5033-78.3641Q78.1835-75.4935 78.1835-71.9755Q78.1835-68.494 76.5033-65.6668Q74.8232-62.8397 72.0004-61.1733Q69.1776-59.5069 65.6509-59.5069ZM65.6612 22.792Q71.5315 22.792 76.3823 19.896Q81.2331 16.9999 84.1457 12.1188Q87.0583 7.23767 87.0583 1.41075Q87.0583-4.46805 84.1457-9.3181Q81.2331-14.1681 76.3823-17.0641Q71.5315-19.9601 65.6612-19.9601Q59.7634-19.9601 54.8988-17.0641Q50.0343-14.1681 47.1259-9.3181Q44.2176-4.46805 44.2176 1.41075Q44.2176 7.23767 47.1259 12.1188Q50.0343 16.9999 54.8988 19.896Q59.7634 22.792 65.6612 22.792ZM65.6509 13.8897Q62.1156 13.8897 59.2616 12.219Q56.4077 10.5483 54.7587 7.72545Q53.1097 4.90257 53.1097 1.42103Q53.1097-2.09696 54.7587-4.96753Q56.4077-7.83811 59.2616-9.54427Q62.1156-11.2504 65.6509-11.2504Q69.1776-11.2504 72.0004-9.54427Q74.8232-7.83811 76.5033-4.96753Q78.1835-2.09696 78.1835 1.42103Q78.1835 4.90257 76.5033 7.72545Q74.8232 10.5483 72.0004 12.219Q69.1776 13.8897 65.6509 13.8897ZM101.237-13.8795Q107.108-13.8795 111.963-16.7973Q116.818-19.715 119.704-24.5744Q122.591-29.4339 122.591-35.304Q122.591-41.1309 119.704-45.9852Q116.818-50.8395 111.963-53.7573Q107.108-56.675 101.237-56.675Q95.2961-56.675 90.4359-53.7573Q85.5756-50.8395 82.6847-45.9852Q79.7938-41.1309 79.7938-35.304Q79.7938-29.4339 82.6847-24.5744Q85.5756-19.715 90.4359-16.7973Q95.2961-13.8795 101.237-13.8795Z"/>
  </g>
  <g id="Regular-M" transform="matrix(1 0 0 1 1384.39 1126)">
   <path d="M30.0202-14.0254Q35.8558-14.0254 40.6792-16.9226Q45.5025-19.8197 48.3944-24.6483Q51.2862-29.4769 51.2862-35.3123Q51.2862-41.0962 48.3944-45.9248Q45.5025-50.7534 40.6792-53.6506Q35.8558-56.5478 30.0202-56.5478Q24.1119-56.5478 19.2833-53.6506Q14.4547-50.7534 11.5887-45.9248Q8.72266-41.0962 8.72266-35.3123Q8.72266-29.4769 11.5887-24.6483Q14.4547-19.8197 19.2833-16.9226Q24.1119-14.0254 30.0202-14.0254ZM30.0202-21.7341Q26.1735-21.7341 23.0701-23.5223Q19.9668-25.3105 18.1733-28.3881Q16.3797-31.4656 16.3797-35.3123Q16.3797-39.0864 18.1733-42.2156Q19.9668-45.3449 23.0701-47.2007Q26.1735-49.0565 30.0202-49.0565Q33.8048-49.0565 36.9082-47.2007Q40.0116-45.3449 41.8051-42.2156Q43.5986-39.0864 43.5986-35.3123Q43.5986-31.4656 41.8051-28.3881Q40.0116-25.3105 36.9082-23.5223Q33.8048-21.7341 30.0202-21.7341ZM65.4592-50.6795Q71.2947-50.6795 76.1128-53.5508Q80.9308-56.4222 83.828-61.2714Q86.7252-66.1206 86.7252-71.9149Q86.7252-77.7505 83.828-82.5791Q80.9308-87.4077 76.1128-90.279Q71.2947-93.1502 65.4592-93.1502Q59.6025-93.1502 54.7739-90.279Q49.9453-87.4077 47.0534-82.5791Q44.1614-77.7505 44.1614-71.9149Q44.1614-66.1206 47.0534-61.2714Q49.9453-56.4222 54.7739-53.5508Q59.6025-50.6795 65.4592-50.6795ZM65.4592-58.3366Q61.6123-58.3366 58.5089-60.1507Q55.4055-61.9648 53.612-65.0424Q51.8185-68.1199 51.8185-71.9149Q51.8185-75.7405 53.612-78.8698Q55.4055-81.9991 58.5089-83.855Q61.6123-85.7108 65.4592-85.7108Q69.2954-85.7108 72.3676-83.855Q75.4399-81.9991 77.2645-78.8698Q79.0892-75.7405 79.0892-71.9149Q79.0892-68.1199 77.2645-65.0424Q75.4399-61.9648 72.3676-60.1507Q69.2954-58.3366 65.4592-58.3366ZM65.4592 22.5772Q71.2947 22.5772 76.1128 19.7059Q80.9308 16.8346 83.828 11.9801Q86.7252 7.12568 86.7252 1.3418Q86.7252-4.5042 83.828-9.32759Q80.9308-14.151 76.1128-17.0222Q71.2947-19.8935 65.4592-19.8935Q59.6025-19.8935 54.7739-17.0222Q49.9453-14.151 47.0534-9.32759Q44.1614-4.5042 44.1614 1.3418Q44.1614 7.12568 47.0534 11.9801Q49.9453 16.8346 54.7739 19.7059Q59.6025 22.5772 65.4592 22.5772ZM65.4592 14.9202Q61.6123 14.9202 58.5089 13.1008Q55.4055 11.2815 53.612 8.20915Q51.8185 5.13683 51.8185 1.3418Q51.8185-2.4838 53.612-5.61311Q55.4055-8.74241 58.5089-10.5982Q61.6123-12.454 65.4592-12.454Q69.2954-12.454 72.3676-10.5982Q75.4399-8.74241 77.2645-5.61311Q79.0892-2.4838 79.0892 1.3418Q79.0892 5.13683 77.2645 8.20915Q75.4399 11.2815 72.3676 13.1008Q69.2954 14.9202 65.4592 14.9202ZM100.971-14.0254Q106.806-14.0254 111.63-16.9226Q116.453-19.8197 119.319-24.6483Q122.185-29.4769 122.185-35.3123Q122.185-41.0962 119.319-45.9248Q116.453-50.7534 111.63-53.6506Q106.806-56.5478 100.971-56.5478Q95.0624-56.5478 90.2391-53.6506Q85.4158-50.7534 82.5445-45.9248Q79.6731-41.0962 79.6731-35.3123Q79.6731-29.4769 82.5445-24.6483Q85.4158-19.8197 90.2391-16.9226Q95.0624-14.0254 100.971-14.0254Z"/>
  </g>
  <g id="Light-M" transform="matrix(1 0 0 1 1087.93 1126)">
   <path d="M30.003-14.0426Q35.8043-14.0426 40.6192-16.9398Q45.4341-19.837 48.3173-24.6656Q51.2006-29.4942 51.2006-35.2951Q51.2006-41.062 48.3173-45.8906Q45.4341-50.7192 40.6192-53.6164Q35.8043-56.5135 30.003-56.5135Q24.1119-56.5135 19.2833-53.6164Q14.4547-50.7192 11.5887-45.8906Q8.72266-41.062 8.72266-35.2951Q8.72266-29.4942 11.5887-24.6656Q14.4547-19.837 19.2833-16.9398Q24.1119-14.0426 30.003-14.0426ZM30.003-20.0061Q25.6773-20.0061 22.189-22.0166Q18.7007-24.0272 16.6762-27.4983Q14.6517-30.9694 14.6517-35.2951Q14.6517-39.5315 16.6762-43.037Q18.7007-46.5425 22.189-48.6293Q25.6773-50.7161 30.003-50.7161Q34.2668-50.7161 37.7551-48.6293Q41.2434-46.5425 43.2679-43.037Q45.2924-39.5315 45.2924-35.2951Q45.2924-30.9694 43.2679-27.4983Q41.2434-24.0272 37.7551-22.0166Q34.2668-20.0061 30.003-20.0061ZM65.2197-50.5254Q71.021-50.5254 75.822-53.4054Q80.623-56.2853 83.5201-61.1174Q86.4173-65.9495 86.4173-71.7439Q86.4173-77.5452 83.5201-82.3738Q80.623-87.2024 75.822-90.0822Q71.021-92.9619 65.2197-92.9619Q59.3631-92.9619 54.5344-90.0822Q49.7058-87.2024 46.8224-82.3738Q43.9389-77.5452 43.9389-71.7439Q43.9389-65.9495 46.8224-61.1174Q49.7058-56.2853 54.5344-53.4054Q59.3631-50.5254 65.2197-50.5254ZM65.2197-56.4544Q60.8936-56.4544 57.4053-58.4824Q53.9169-60.5104 51.8924-63.9815Q49.8679-67.4527 49.8679-71.7439Q49.8679-76.0142 51.8924-79.52Q53.9169-83.0258 57.4053-85.1126Q60.8936-87.1994 65.2197-87.1994Q69.5179-87.1994 72.9751-85.1126Q76.4323-83.0258 78.4879-79.52Q80.5436-76.0142 80.5436-71.7439Q80.5436-67.4527 78.4879-63.9815Q76.4323-60.5104 72.9751-58.4824Q69.5179-56.4544 65.2197-56.4544ZM65.2197 22.4062Q71.021 22.4062 75.822 19.5262Q80.623 16.6463 83.5201 11.8004Q86.4173 6.95462 86.4173 1.18771Q86.4173-4.64105 83.5201-9.45595Q80.623-14.2709 75.822-17.1506Q71.021-20.0303 65.2197-20.0303Q59.3631-20.0303 54.5344-17.1506Q49.7058-14.2709 46.8224-9.45595Q43.9389-4.64105 43.9389 1.18771Q43.9389 6.95462 46.8224 11.8004Q49.7058 16.6463 54.5344 19.5262Q59.3631 22.4062 65.2197 22.4062ZM65.2197 16.4772Q60.8936 16.4772 57.4053 14.4355Q53.9169 12.3937 51.8924 8.93634Q49.8679 5.47894 49.8679 1.18771Q49.8679-3.08263 51.8924-6.5884Q53.9169-10.0942 57.4053-12.181Q60.8936-14.2678 65.2197-14.2678Q69.5179-14.2678 72.9751-12.181Q76.4323-10.0942 78.4879-6.5884Q80.5436-3.08263 80.5436 1.18771Q80.5436 5.47894 78.4879 8.93634Q76.4323 12.3937 72.9751 14.4355Q69.5179 16.4772 65.2197 16.4772ZM100.526-14.0426Q106.327-14.0426 111.142-16.9398Q115.957-19.837 118.823-24.6656Q121.689-29.4942 121.689-35.2951Q121.689-41.062 118.823-45.8906Q115.957-50.7192 111.142-53.6164Q106.327-56.5135 100.526-56.5135Q94.6346-56.5135 89.8199-53.6164Q85.0053-50.7192 82.1253-45.8906Q79.2454-41.062 79.2454-35.2951Q79.2454-29.4942 82.1253-24.6656Q85.0053-19.837 89.8199-16.9398Q94.6346-14.0426 100.526-14.0426Z"/>
  </g>
  <g id="Thin-M" transform="matrix(1 0 0 1 791.545 1126)">
   <path d="M29.9802-14.0654Q35.7362-14.0654 40.5399-16.9626Q45.3436-19.8598 48.2154-24.6884Q51.0873-29.517 51.0873-35.2723Q51.0873-41.0167 48.2154-45.8453Q45.3436-50.674 40.5399-53.5711Q35.7362-56.4683 29.9802-56.4683Q24.1119-56.4683 19.2833-53.5711Q14.4547-50.674 11.5887-45.8453Q8.72266-41.0167 8.72266-35.2723Q8.72266-29.517 11.5887-24.6884Q14.4547-19.8598 19.2833-16.9626Q24.1119-14.0654 29.9802-14.0654ZM29.9802-17.7206Q25.0211-17.7206 21.0236-20.0252Q17.0262-22.3299 14.6962-26.3215Q12.3662-30.3132 12.3662-35.2723Q12.3662-40.12 14.6962-44.1233Q17.0262-48.1265 21.0236-50.5188Q25.0211-52.9112 29.9802-52.9112Q34.8778-52.9112 38.8752-50.5188Q42.8727-48.1265 45.2027-44.1233Q47.5327-40.12 47.5327-35.2723Q47.5327-30.3132 45.2027-26.3215Q42.8727-22.3299 38.8752-20.0252Q34.8778-17.7206 29.9802-17.7206ZM64.903-50.3216Q70.6591-50.3216 75.4374-53.213Q80.2157-56.1043 83.1129-60.9138Q86.0101-65.7233 86.0101-71.5176Q86.0101-77.2737 83.1129-82.1024Q80.2157-86.931 75.4374-89.8219Q70.6591-92.7128 64.903-92.7128Q59.0463-92.7128 54.2177-89.8219Q49.3891-86.931 46.5169-82.1024Q43.6446-77.2737 43.6446-71.5176Q43.6446-65.7233 46.5169-60.9138Q49.3891-56.1043 54.2177-53.213Q59.0463-50.3216 64.903-50.3216ZM64.903-53.9651Q59.943-53.9651 55.9456-56.276Q51.9482-58.5869 49.6181-62.5785Q47.2881-66.5702 47.2881-71.5176Q47.2881-76.3762 49.6181-80.3799Q51.9482-84.3835 55.9456-86.7758Q59.943-89.1682 64.903-89.1682Q69.8122-89.1682 73.7785-86.7758Q77.7448-84.3835 80.106-80.3799Q82.4671-76.3762 82.4671-71.5176Q82.4671-66.5702 80.106-62.5785Q77.7448-58.5869 73.7785-56.276Q69.8122-53.9651 64.903-53.9651ZM64.903 22.18Q70.6591 22.18 75.4374 19.2886Q80.2157 16.3972 83.1129 11.5628Q86.0101 6.72839 86.0101 0.983909Q86.0101-4.82203 83.1129-9.62572Q80.2157-14.4294 75.4374-17.3203Q70.6591-20.2113 64.903-20.2113Q59.0463-20.2113 54.2177-17.3203Q49.3891-14.4294 46.5169-9.62572Q43.6446-4.82203 43.6446 0.983909Q43.6446 6.72839 46.5169 11.5628Q49.3891 16.3972 54.2177 19.2886Q59.0463 22.18 64.903 22.18ZM64.903 18.5364Q59.943 18.5364 55.9456 16.2006Q51.9482 13.8648 49.6181 9.89811Q47.2881 5.9314 47.2881 0.983909Q47.2881-3.87464 49.6181-7.8783Q51.9482-11.882 55.9456-14.2743Q59.943-16.6666 64.903-16.6666Q69.8122-16.6666 73.7785-14.2743Q77.7448-11.882 80.106-7.8783Q82.4671-3.87464 82.4671 0.983909Q82.4671 5.9314 80.106 9.89811Q77.7448 13.8648 73.7785 16.2006Q69.8122 18.5364 64.903 18.5364ZM99.9371-14.0654Q105.693-14.0654 110.497-16.9626Q115.301-19.8598 118.167-24.6884Q121.033-29.517 121.033-35.2723Q121.033-41.0167 118.167-45.8453Q115.301-50.674 110.497-53.5711Q105.693-56.4683 99.9371-56.4683Q94.0688-56.4683 89.2656-53.5711Q84.4623-50.674 81.571-45.8453Q78.6796-41.0167 78.6796-35.2723Q78.6796-29.517 81.571-24.6884Q84.4623-19.8598 89.2656-16.9626Q94.0688-14.0654 99.9371-14.0654Z"/>
  </g>
  <g id="Ultralight-M" transform="matrix(1 0 0 1 495.002 1126)">
   <path d="M29.9685-14.0771Q35.7014-14.0771 40.4993-16.9743Q45.2973-19.8715 48.1632-24.7001Q51.0292-29.5287 51.0292-35.2606Q51.0292-40.9936 48.1632-45.8222Q45.2973-50.6508 40.4993-53.548Q35.7014-56.4451 29.9685-56.4451Q24.1119-56.4451 19.2833-53.548Q14.4547-50.6508 11.5887-45.8222Q8.72266-40.9936 8.72266-35.2606Q8.72266-29.5287 11.5887-24.7001Q14.4547-19.8715 19.2833-16.9743Q24.1119-14.0771 29.9685-14.0771ZM29.9685-16.5499Q24.6849-16.5499 20.4267-19.0052Q16.1685-21.4605 13.682-25.7188Q11.1955-29.977 11.1955-35.2606Q11.1955-40.4215 13.682-44.6797Q16.1685-48.9378 20.4267-51.4866Q24.6849-54.0354 29.9685-54.0354Q35.1908-54.0354 39.449-51.4866Q43.7072-48.9378 46.1937-44.6797Q48.6802-40.4215 48.6802-35.2606Q48.6802-29.977 46.1937-25.7188Q43.7072-21.4605 39.449-19.0052Q35.1908-16.5499 29.9685-16.5499ZM64.7407-50.2172Q70.4737-50.2172 75.2404-53.1144Q80.0072-56.0116 82.9043-60.8095Q85.8015-65.6074 85.8015-71.4018Q85.8015-77.1347 82.9043-81.9633Q80.0072-86.7919 75.2404-89.6886Q70.4737-92.5853 64.7407-92.5853Q58.8841-92.5853 54.0555-89.6886Q49.2269-86.7919 46.3604-81.9633Q43.4939-77.1347 43.4939-71.4018Q43.4939-65.6074 46.3604-60.8095Q49.2269-56.0116 54.0555-53.1144Q58.8841-50.2172 64.7407-50.2172ZM64.7407-52.6901Q59.4562-52.6901 55.198-55.1459Q50.9397-57.6017 48.4533-61.8599Q45.9668-66.1181 45.9668-71.4018Q45.9668-76.5616 48.4533-80.8203Q50.9397-85.079 55.198-87.6278Q59.4562-90.1766 64.7407-90.1766Q69.9629-90.1766 74.19-87.6278Q78.4171-85.079 80.9347-80.8203Q83.4523-76.5616 83.4523-71.4018Q83.4523-66.1181 80.9347-61.8599Q78.4171-57.6017 74.19-55.1459Q69.9629-52.6901 64.7407-52.6901ZM64.7407 22.0641Q70.4737 22.0641 75.2404 19.1669Q80.0072 16.2697 82.9043 11.4411Q85.8015 6.61252 85.8015 0.879525Q85.8015-4.91473 82.9043-9.71267Q80.0072-14.5106 75.2404-17.4073Q70.4737-20.304 64.7407-20.304Q58.8841-20.304 54.0555-17.4073Q49.2269-14.5106 46.3604-9.71267Q43.4939-4.91473 43.4939 0.879525Q43.4939 6.61252 46.3604 11.4411Q49.2269 16.2697 54.0555 19.1669Q58.8841 22.0641 64.7407 22.0641ZM64.7407 19.5912Q59.4562 19.5912 55.198 17.1047Q50.9397 14.6183 48.4533 10.3907Q45.9668 6.16315 45.9668 0.879525Q45.9668-4.28029 48.4533-8.53898Q50.9397-12.7977 55.198-15.3465Q59.4562-17.8953 64.7407-17.8953Q69.9629-17.8953 74.19-15.3465Q78.4171-12.7977 80.9347-8.53898Q83.4523-4.28029 83.4523 0.879525Q83.4523 6.16315 80.9347 10.3907Q78.4171 14.6183 74.19 17.1047Q69.9629 19.5912 64.7407 19.5912ZM99.6356-14.0771Q105.369-14.0771 110.166-16.9743Q114.964-19.8715 117.83-24.7001Q120.696-29.5287 120.696-35.2606Q120.696-40.9936 117.83-45.8222Q114.964-50.6508 110.166-53.548Q105.369-56.4451 99.6356-56.4451Q93.7791-56.4451 88.9816-53.548Q84.1842-50.6508 81.287-45.8222Q78.3898-40.9936 78.3898-35.2606Q78.3898-29.5287 81.287-24.7001Q84.1842-19.8715 88.9816-16.9743Q93.7791-14.0771 99.6356-14.0771Z"/>
  </g>
  <g id="Black-S" transform="matrix(1 0 0 1 2881.15 696)">
   <path d="M24.2188-17.9199Q28.9551-17.9199 32.8857-20.2881Q36.8164-22.6562 39.1602-26.5869Q41.5039-30.5176 41.5039-35.2539Q41.5039-39.9902 39.1602-43.8965Q36.8164-47.8027 32.8857-50.1709Q28.9551-52.5391 24.2188-52.5391Q19.4336-52.5391 15.4785-50.1709Q11.5234-47.8027 9.17969-43.8965Q6.83594-39.9902 6.83594-35.2539Q6.83594-30.5176 9.17969-26.5869Q11.5234-22.6562 15.4785-20.2881Q19.4336-17.9199 24.2188-17.9199ZM24.1699-29.7363Q22.6074-29.7363 21.3379-30.4688Q20.0684-31.2012 19.3359-32.4463Q18.6035-33.6914 18.6035-35.2051Q18.6035-36.7676 19.3359-38.0127Q20.0684-39.2578 21.3379-40.0146Q22.6074-40.7715 24.1699-40.7715Q25.7324-40.7715 26.9775-40.0146Q28.2227-39.2578 28.9795-38.0127Q29.7363-36.7676 29.7363-35.2051Q29.7363-33.6914 28.9795-32.4463Q28.2227-31.2012 26.9775-30.4688Q25.7324-29.7363 24.1699-29.7363ZM52.2461-46.9727Q56.9824-46.9727 60.9131-49.3408Q64.8438-51.709 67.1875-55.6396Q69.5312-59.5703 69.5312-64.3066Q69.5312-69.043 67.1875-72.9492Q64.8438-76.8555 60.9131-79.2236Q56.9824-81.5918 52.2461-81.5918Q47.4609-81.5918 43.5059-79.2236Q39.5508-76.8555 37.207-72.9492Q34.8633-69.043 34.8633-64.3066Q34.8633-59.5703 37.207-55.6396Q39.5508-51.709 43.5059-49.3408Q47.4609-46.9727 52.2461-46.9727ZM52.1973-58.7891Q50.6348-58.7891 49.3652-59.5215Q48.0957-60.2539 47.3633-61.499Q46.6309-62.7441 46.6309-64.2578Q46.6309-65.8203 47.3633-67.0654Q48.0957-68.3105 49.3652-69.0674Q50.6348-69.8242 52.1973-69.8242Q53.7598-69.8242 55.0049-69.0674Q56.25-68.3105 57.0068-67.0654Q57.7637-65.8203 57.7637-64.2578Q57.7637-62.7441 57.0068-61.499Q56.25-60.2539 55.0049-59.5215Q53.7598-58.7891 52.1973-58.7891ZM52.2461 11.084Q56.9824 11.084 60.9131 8.71582Q64.8438 6.34766 67.1875 2.41699Q69.5312-1.51367 69.5312-6.25Q69.5312-10.9863 67.1875-14.8926Q64.8438-18.7988 60.9131-21.167Q56.9824-23.5352 52.2461-23.5352Q47.4609-23.5352 43.5059-21.167Q39.5508-18.7988 37.207-14.8926Q34.8633-10.9863 34.8633-6.25Q34.8633-1.51367 37.207 2.41699Q39.5508 6.34766 43.5059 8.71582Q47.4609 11.084 52.2461 11.084ZM52.1973-0.732422Q50.6348-0.732422 49.3652-1.46484Q48.0957-2.19727 47.3633-3.44238Q46.6309-4.6875 46.6309-6.20117Q46.6309-7.76367 47.3633-9.00879Q48.0957-10.2539 49.3652-11.0107Q50.6348-11.7676 52.1973-11.7676Q53.7598-11.7676 55.0049-11.0107Q56.25-10.2539 57.0068-9.00879Q57.7637-7.76367 57.7637-6.20117Q57.7637-4.6875 57.0068-3.44238Q56.25-2.19727 55.0049-1.46484Q53.7598-0.732422 52.1973-0.732422ZM80.3711-17.9199Q85.1074-17.9199 89.0381-20.2881Q92.9688-22.6562 95.3125-26.5869Q97.6562-30.5176 97.6562-35.2539Q97.6562-39.9902 95.3125-43.8965Q92.9688-47.8027 89.0381-50.1709Q85.1074-52.5391 80.3711-52.5391Q75.5859-52.5391 71.6309-50.1709Q67.6758-47.8027 65.332-43.8965Q62.9883-39.9902 62.9883-35.2539Q62.9883-30.5176 65.332-26.5869Q67.6758-22.6562 71.6309-20.2881Q75.5859-17.9199 80.3711-17.9199Z"/>
  </g>
  <g id="Heavy-S" transform="matrix(1 0 0 1 2584.64 696)">
   <path d="M24.0574-18.0813Q28.7592-18.0813 32.6553-20.4264Q36.5513-22.7715 38.8778-26.6676Q41.2043-30.5637 41.2043-35.2654Q41.2043-39.9557 38.8778-43.8331Q36.5513-47.7105 32.6553-50.0557Q28.7592-52.4008 24.0574-52.4008Q19.3068-52.4008 15.3921-50.0557Q11.4773-47.7105 9.15664-43.8331Q6.83594-39.9557 6.83594-35.2654Q6.83594-30.5637 9.15664-26.6676Q11.4773-22.7715 15.3921-20.4264Q19.3068-18.0813 24.0574-18.0813ZM24.0201-28.7337Q22.1695-28.7337 20.6695-29.5987Q19.1695-30.4636 18.3045-31.9392Q17.4395-33.4148 17.4395-35.2281Q17.4395-37.0672 18.3045-38.5543Q19.1695-40.0415 20.6695-40.9366Q22.1695-41.8317 24.0201-41.8317Q25.8592-41.8317 27.3406-40.9366Q28.8219-40.0415 29.7055-38.5543Q30.5891-37.0672 30.5891-35.2281Q30.5891-33.4148 29.7055-31.9392Q28.8219-30.4636 27.3406-29.5987Q25.8592-28.7337 24.0201-28.7337ZM52.0502-47.0764Q56.7519-47.0764 60.648-49.4157Q64.5441-51.7551 66.8706-55.6569Q69.197-59.5588 69.197-64.249Q69.197-68.9508 66.8706-72.8282Q64.5441-76.7057 60.648-79.045Q56.7519-81.3844 52.0502-81.3844Q47.3111-81.3844 43.3964-79.045Q39.4816-76.7057 37.1552-72.8282Q34.8287-68.9508 34.8287-64.249Q34.8287-59.5588 37.1552-55.6569Q39.4816-51.7551 43.3964-49.4157Q47.3111-47.0764 52.0502-47.0764ZM52.0129-57.7173Q50.1623-57.7173 48.6622-58.588Q47.1622-59.4587 46.2973-60.9343Q45.4323-62.4099 45.4323-64.2117Q45.4323-66.0623 46.2973-67.5495Q47.1622-69.0366 48.6622-69.9317Q50.1623-70.8268 52.0129-70.8268Q53.8635-70.8268 55.3391-69.9317Q56.8147-69.0366 57.7041-67.5495Q58.5934-66.0623 58.5934-64.2117Q58.5934-62.4099 57.7041-60.9343Q56.8147-59.4587 55.3391-58.588Q53.8635-57.7173 52.0129-57.7173ZM52.0502 10.865Q56.7519 10.865 60.648 8.52567Q64.5441 6.18631 66.8706 2.28446Q69.197-1.61739 69.197-6.30762Q69.197-11.0094 66.8706-14.8868Q64.5441-18.7643 60.648-21.1036Q56.7519-23.443 52.0502-23.443Q47.3111-23.443 43.3964-21.1036Q39.4816-18.7643 37.1552-14.8868Q34.8287-11.0094 34.8287-6.30762Q34.8287-1.61739 37.1552 2.28446Q39.4816 6.18631 43.3964 8.52567Q47.3111 10.865 52.0502 10.865ZM52.0129 0.224109Q50.1623 0.224109 48.6622-0.646607Q47.1622-1.51732 46.2973-2.99293Q45.4323-4.46854 45.4323-6.27032Q45.4323-8.12093 46.2973-9.60806Q47.1622-11.0952 48.6622-11.9903Q50.1623-12.8855 52.0129-12.8855Q53.8635-12.8855 55.3391-11.9903Q56.8147-11.0952 57.7041-9.60806Q58.5934-8.12093 58.5934-6.27032Q58.5934-4.46854 57.7041-2.99293Q56.8147-1.51732 55.3391-0.646607Q53.8635 0.224109 52.0129 0.224109ZM80.1291-18.0813Q84.8308-18.0813 88.7269-20.4264Q92.623-22.7715 94.9437-26.6676Q97.2644-30.5637 97.2644-35.2654Q97.2644-39.9557 94.9437-43.8331Q92.623-47.7105 88.7269-50.0557Q84.8308-52.4008 80.1291-52.4008Q75.3785-52.4008 71.4638-50.0557Q67.549-47.7105 65.2283-43.8331Q62.9076-39.9557 62.9076-35.2654Q62.9076-30.5637 65.2283-26.6676Q67.549-22.7715 71.4638-20.4264Q75.3785-18.0813 80.1291-18.0813Z"/>
  </g>
  <g id="Bold-S" transform="matrix(1 0 0 1 2288.15 696)">
   <path d="M23.877-18.2617Q28.54-18.2617 32.3975-20.5811Q36.2549-22.9004 38.562-26.7578Q40.8691-30.6152 40.8691-35.2783Q40.8691-39.917 38.562-43.7622Q36.2549-47.6074 32.3975-49.9268Q28.54-52.2461 23.877-52.2461Q19.165-52.2461 15.2954-49.9268Q11.4258-47.6074 9.13086-43.7622Q6.83594-39.917 6.83594-35.2783Q6.83594-30.6152 9.13086-26.7578Q11.4258-22.9004 15.2954-20.5811Q19.165-18.2617 23.877-18.2617ZM23.8525-27.6123Q21.6797-27.6123 19.9219-28.6255Q18.1641-29.6387 17.1509-31.3721Q16.1377-33.1055 16.1377-35.2539Q16.1377-37.4023 17.1509-39.1602Q18.1641-40.918 19.9219-41.9678Q21.6797-43.0176 23.8525-43.0176Q26.001-43.0176 27.7466-41.9678Q29.4922-40.918 30.5176-39.1602Q31.543-37.4023 31.543-35.2539Q31.543-33.1055 30.5176-31.3721Q29.4922-29.6387 27.7466-28.6255Q26.001-27.6123 23.8525-27.6123ZM51.8311-47.1924Q56.4941-47.1924 60.3516-49.4995Q64.209-51.8066 66.5161-55.6763Q68.8232-59.5459 68.8232-64.1846Q68.8232-68.8477 66.5161-72.6929Q64.209-76.5381 60.3516-78.8452Q56.4941-81.1523 51.8311-81.1523Q47.1436-81.1523 43.2739-78.8452Q39.4043-76.5381 37.0972-72.6929Q34.79-68.8477 34.79-64.1846Q34.79-59.5459 37.0972-55.6763Q39.4043-51.8066 43.2739-49.4995Q47.1436-47.1924 51.8311-47.1924ZM51.8066-56.5186Q49.6338-56.5186 47.876-57.5439Q46.1182-58.5693 45.105-60.3027Q44.0918-62.0361 44.0918-64.1602Q44.0918-66.333 45.105-68.0908Q46.1182-69.8486 47.876-70.8984Q49.6338-71.9482 51.8066-71.9482Q53.9795-71.9482 55.7129-70.8984Q57.4463-69.8486 58.4839-68.0908Q59.5215-66.333 59.5215-64.1602Q59.5215-62.0361 58.4839-60.3027Q57.4463-58.5693 55.7129-57.5439Q53.9795-56.5186 51.8066-56.5186ZM51.8311 10.6201Q56.4941 10.6201 60.3516 8.31299Q64.209 6.00586 66.5161 2.13623Q68.8232-1.7334 68.8232-6.37207Q68.8232-11.0352 66.5161-14.8804Q64.209-18.7256 60.3516-21.0327Q56.4941-23.3398 51.8311-23.3398Q47.1436-23.3398 43.2739-21.0327Q39.4043-18.7256 37.0972-14.8804Q34.79-11.0352 34.79-6.37207Q34.79-1.7334 37.0972 2.13623Q39.4043 6.00586 43.2739 8.31299Q47.1436 10.6201 51.8311 10.6201ZM51.8066 1.29395Q49.6338 1.29395 47.876 0.268555Q46.1182-0.756836 45.105-2.49023Q44.0918-4.22363 44.0918-6.34766Q44.0918-8.52051 45.105-10.2783Q46.1182-12.0361 47.876-13.0859Q49.6338-14.1357 51.8066-14.1357Q53.9795-14.1357 55.7129-13.0859Q57.4463-12.0361 58.4839-10.2783Q59.5215-8.52051 59.5215-6.34766Q59.5215-4.22363 58.4839-2.49023Q57.4463-0.756836 55.7129 0.268555Q53.9795 1.29395 51.8066 1.29395ZM79.8584-18.2617Q84.5215-18.2617 88.3789-20.5811Q92.2363-22.9004 94.5312-26.7578Q96.8262-30.6152 96.8262-35.2783Q96.8262-39.917 94.5312-43.7622Q92.2363-47.6074 88.3789-49.9268Q84.5215-52.2461 79.8584-52.2461Q75.1465-52.2461 71.2769-49.9268Q67.4072-47.6074 65.1123-43.7622Q62.8174-39.917 62.8174-35.2783Q62.8174-30.6152 65.1123-26.7578Q67.4072-22.9004 71.2769-20.5811Q75.1465-18.2617 79.8584-18.2617Z"/>
  </g>
  <g id="Semibold-S" transform="matrix(1 0 0 1 1991.59 696)">
   <path d="M23.7525-18.3861Q28.389-18.3861 32.2197-20.6877Q36.0505-22.9893 38.3443-26.82Q40.6381-30.6508 40.6381-35.2872Q40.6381-39.8903 38.3443-43.7133Q36.0505-47.5363 32.2197-49.8379Q28.389-52.1395 23.7525-52.1395Q19.0673-52.1395 15.2288-49.8379Q11.3902-47.5363 9.11309-43.7133Q6.83594-39.8903 6.83594-35.2872Q6.83594-30.6508 9.11309-26.82Q11.3902-22.9893 15.2288-20.6877Q19.0673-18.3861 23.7525-18.3861ZM23.737-26.8392Q21.342-26.8392 19.4064-27.9545Q17.4709-29.0699 16.3555-30.9811Q15.2401-32.8922 15.2401-35.2717Q15.2401-37.6334 16.3555-39.5778Q17.4709-41.5223 19.4064-42.6787Q21.342-43.8352 23.737-43.8352Q26.0987-43.8352 28.0265-42.6787Q29.9543-41.5223 31.0774-39.5778Q32.2006-37.6334 32.2006-35.2717Q32.2006-32.8922 31.0774-30.9811Q29.9543-29.0699 28.0265-27.9545Q26.0987-26.8392 23.737-26.8392ZM51.68-47.2724Q56.3164-47.2724 60.1472-49.5573Q63.9779-51.8422 66.2717-55.6896Q68.5655-59.537 68.5655-64.1401Q68.5655-68.7766 66.2717-72.5996Q63.9779-76.4226 60.1472-78.7075Q56.3164-80.9924 51.68-80.9924Q47.028-80.9924 43.1895-78.7075Q39.351-76.4226 37.0572-72.5996Q34.7634-68.7766 34.7634-64.1401Q34.7634-59.537 37.0572-55.6896Q39.351-51.8422 43.1895-49.5573Q47.028-47.2724 51.68-47.2724ZM51.6645-55.6921Q49.2694-55.6921 47.3339-56.8241Q45.3983-57.9562 44.283-59.8673Q43.1676-61.7784 43.1676-64.1246Q43.1676-66.5196 44.283-68.4641Q45.3983-70.4085 47.3339-71.5649Q49.2694-72.7214 51.6645-72.7214Q54.0595-72.7214 55.9706-71.5649Q57.8817-70.4085 59.0215-68.4641Q60.1613-66.5196 60.1613-64.1246Q60.1613-61.7784 59.0215-59.8673Q57.8817-57.9562 55.9706-56.8241Q54.0595-55.6921 51.6645-55.6921ZM51.68 10.4513Q56.3164 10.4513 60.1472 8.16636Q63.9779 5.88145 66.2717 2.03403Q68.5655-1.81338 68.5655-6.4165Q68.5655-11.0529 66.2717-14.8759Q63.9779-18.6989 60.1472-20.9838Q56.3164-23.2688 51.68-23.2688Q47.028-23.2688 43.1895-20.9838Q39.351-18.6989 37.0572-14.8759Q34.7634-11.0529 34.7634-6.4165Q34.7634-1.81338 37.0572 2.03403Q39.351 5.88145 43.1895 8.16636Q47.028 10.4513 51.68 10.4513ZM51.6645 2.03154Q49.2694 2.03154 47.3339 0.899512Q45.3983-0.23252 44.283-2.14365Q43.1676-4.05479 43.1676-6.40098Q43.1676-8.796 44.283-10.7404Q45.3983-12.6849 47.3339-13.8413Q49.2694-14.9978 51.6645-14.9978Q54.0595-14.9978 55.9706-13.8413Q57.8817-12.6849 59.0215-10.7404Q60.1613-8.796 60.1613-6.40098Q60.1613-4.05479 59.0215-2.14365Q57.8817-0.23252 55.9706 0.899512Q54.0595 2.03154 51.6645 2.03154ZM79.6718-18.3861Q84.3082-18.3861 88.139-20.6877Q91.9697-22.9893 94.2469-26.82Q96.524-30.6508 96.524-35.2872Q96.524-39.8903 94.2469-43.7133Q91.9697-47.5363 88.139-49.8379Q84.3082-52.1395 79.6718-52.1395Q74.9865-52.1395 71.148-49.8379Q67.3095-47.5363 65.0323-43.7133Q62.7552-39.8903 62.7552-35.2872Q62.7552-30.6508 65.0323-26.82Q67.3095-22.9893 71.148-20.6877Q74.9865-18.3861 79.6718-18.3861Z"/>
  </g>
  <g id="Medium-S" transform="matrix(1 0 0 1 1694.99 696)">
   <path d="M23.6582-18.4805Q28.2744-18.4805 32.085-20.7686Q35.8955-23.0566 38.1792-26.8672Q40.4629-30.6777 40.4629-35.2939Q40.4629-39.8701 38.1792-43.6763Q35.8955-47.4824 32.085-49.7705Q28.2744-52.0586 23.6582-52.0586Q18.9932-52.0586 15.1782-49.7705Q11.3633-47.4824 9.09961-43.6763Q6.83594-39.8701 6.83594-35.2939Q6.83594-30.6777 9.09961-26.8672Q11.3633-23.0566 15.1782-20.7686Q18.9932-18.4805 23.6582-18.4805ZM23.6494-26.2529Q21.0859-26.2529 19.0156-27.4458Q16.9453-28.6387 15.7524-30.6846Q14.5596-32.7305 14.5596-35.2852Q14.5596-37.8086 15.7524-39.8945Q16.9453-41.9805 19.0156-43.2178Q21.0859-44.4551 23.6494-44.4551Q26.1729-44.4551 28.2388-43.2178Q30.3047-41.9805 31.502-39.8945Q32.6992-37.8086 32.6992-35.2852Q32.6992-32.7305 31.502-30.6846Q30.3047-28.6387 28.2388-27.4458Q26.1729-26.2529 23.6494-26.2529ZM51.5654-47.333Q56.1816-47.333 59.9922-49.6011Q63.8027-51.8691 66.0864-55.6997Q68.3701-59.5303 68.3701-64.1064Q68.3701-68.7227 66.0864-72.5288Q63.8027-76.335 59.9922-78.603Q56.1816-80.8711 51.5654-80.8711Q46.9404-80.8711 43.1255-78.603Q39.3105-76.335 37.0269-72.5288Q34.7432-68.7227 34.7432-64.1064Q34.7432-59.5303 37.0269-55.6997Q39.3105-51.8691 43.1255-49.6011Q46.9404-47.333 51.5654-47.333ZM51.5566-55.0654Q48.9932-55.0654 46.9229-56.2783Q44.8525-57.4912 43.6597-59.5371Q42.4668-61.583 42.4668-64.0977Q42.4668-66.6611 43.6597-68.7471Q44.8525-70.833 46.9229-72.0703Q48.9932-73.3076 51.5566-73.3076Q54.1201-73.3076 56.166-72.0703Q58.2119-70.833 59.4292-68.7471Q60.6465-66.6611 60.6465-64.0977Q60.6465-61.583 59.4292-59.5371Q58.2119-57.4912 56.166-56.2783Q54.1201-55.0654 51.5566-55.0654ZM51.5654 10.3232Q56.1816 10.3232 59.9922 8.05518Q63.8027 5.78711 66.0864 1.95654Q68.3701-1.87402 68.3701-6.4502Q68.3701-11.0664 66.0864-14.8726Q63.8027-18.6787 59.9922-20.9468Q56.1816-23.2148 51.5654-23.2148Q46.9404-23.2148 43.1255-20.9468Q39.3105-18.6787 37.0269-14.8726Q34.7432-11.0664 34.7432-6.4502Q34.7432-1.87402 37.0269 1.95654Q39.3105 5.78711 43.1255 8.05518Q46.9404 10.3232 51.5654 10.3232ZM51.5566 2.59082Q48.9932 2.59082 46.9229 1.37793Q44.8525 0.165039 43.6597-1.88086Q42.4668-3.92676 42.4668-6.44141Q42.4668-9.00488 43.6597-11.0908Q44.8525-13.1768 46.9229-14.4141Q48.9932-15.6514 51.5566-15.6514Q54.1201-15.6514 56.166-14.4141Q58.2119-13.1768 59.4292-11.0908Q60.6465-9.00488 60.6465-6.44141Q60.6465-3.92676 59.4292-1.88086Q58.2119 0.165039 56.166 1.37793Q54.1201 2.59082 51.5566 2.59082ZM79.5303-18.4805Q84.1465-18.4805 87.957-20.7686Q91.7676-23.0566 94.0312-26.8672Q96.2949-30.6777 96.2949-35.2939Q96.2949-39.8701 94.0312-43.6763Q91.7676-47.4824 87.957-49.7705Q84.1465-52.0586 79.5303-52.0586Q74.8652-52.0586 71.0503-49.7705Q67.2354-47.4824 64.9717-43.6763Q62.708-39.8701 62.708-35.2939Q62.708-30.6777 64.9717-26.8672Q67.2354-23.0566 71.0503-20.7686Q74.8652-18.4805 79.5303-18.4805Z"/>
  </g>
  <g id="Regular-S" transform="matrix(1 0 0 1 1398.43 696)">
   <path d="M23.5352-18.6035Q28.125-18.6035 31.9092-20.874Q35.6934-23.1445 37.9639-26.9287Q40.2344-30.7129 40.2344-35.3027Q40.2344-39.8438 37.9639-43.6279Q35.6934-47.4121 31.9092-49.6826Q28.125-51.9531 23.5352-51.9531Q18.8965-51.9531 15.1123-49.6826Q11.3281-47.4121 9.08203-43.6279Q6.83594-39.8438 6.83594-35.3027Q6.83594-30.7129 9.08203-26.9287Q11.3281-23.1445 15.1123-20.874Q18.8965-18.6035 23.5352-18.6035ZM23.5352-25.4883Q20.752-25.4883 18.5059-26.7822Q16.2598-28.0762 14.9658-30.2979Q13.6719-32.5195 13.6719-35.3027Q13.6719-38.0371 14.9658-40.3076Q16.2598-42.5781 18.5059-43.9209Q20.752-45.2637 23.5352-45.2637Q26.2695-45.2637 28.5156-43.9209Q30.7617-42.5781 32.0557-40.3076Q33.3496-38.0371 33.3496-35.3027Q33.3496-32.5195 32.0557-30.2979Q30.7617-28.0762 28.5156-26.7822Q26.2695-25.4883 23.5352-25.4883ZM51.416-47.4121Q56.0059-47.4121 59.79-49.6582Q63.5742-51.9043 65.8447-55.7129Q68.1152-59.5215 68.1152-64.0625Q68.1152-68.6523 65.8447-72.4365Q63.5742-76.2207 59.79-78.4668Q56.0059-80.7129 51.416-80.7129Q46.8262-80.7129 43.042-78.4668Q39.2578-76.2207 36.9873-72.4365Q34.7168-68.6523 34.7168-64.0625Q34.7168-59.5215 36.9873-55.7129Q39.2578-51.9043 43.042-49.6582Q46.8262-47.4121 51.416-47.4121ZM51.416-54.248Q48.6328-54.248 46.3867-55.5664Q44.1406-56.8848 42.8467-59.1064Q41.5527-61.3281 41.5527-64.0625Q41.5527-66.8457 42.8467-69.1162Q44.1406-71.3867 46.3867-72.7295Q48.6328-74.0723 51.416-74.0723Q54.1992-74.0723 56.4209-72.7295Q58.6426-71.3867 59.9609-69.1162Q61.2793-66.8457 61.2793-64.0625Q61.2793-61.3281 59.9609-59.1064Q58.6426-56.8848 56.4209-55.5664Q54.1992-54.248 51.416-54.248ZM51.416 10.1562Q56.0059 10.1562 59.79 7.91016Q63.5742 5.66406 65.8447 1.85547Q68.1152-1.95312 68.1152-6.49414Q68.1152-11.084 65.8447-14.8682Q63.5742-18.6523 59.79-20.8984Q56.0059-23.1445 51.416-23.1445Q46.8262-23.1445 43.042-20.8984Q39.2578-18.6523 36.9873-14.8682Q34.7168-11.084 34.7168-6.49414Q34.7168-1.95312 36.9873 1.85547Q39.2578 5.66406 43.042 7.91016Q46.8262 10.1562 51.416 10.1562ZM51.416 3.32031Q48.6328 3.32031 46.3867 2.00195Q44.1406 0.683594 42.8467-1.53809Q41.5527-3.75977 41.5527-6.49414Q41.5527-9.27734 42.8467-11.5479Q44.1406-13.8184 46.3867-15.1611Q48.6328-16.5039 51.416-16.5039Q54.1992-16.5039 56.4209-15.1611Q58.6426-13.8184 59.9609-11.5479Q61.2793-9.27734 61.2793-6.49414Q61.2793-3.75977 59.9609-1.53809Q58.6426 0.683594 56.4209 2.00195Q54.1992 3.32031 51.416 3.32031ZM79.3457-18.6035Q83.9355-18.6035 87.7197-20.874Q91.5039-23.1445 93.75-26.9287Q95.9961-30.7129 95.9961-35.3027Q95.9961-39.8438 93.75-43.6279Q91.5039-47.4121 87.7197-49.6826Q83.9355-51.9531 79.3457-51.9531Q74.707-51.9531 70.9229-49.6826Q67.1387-47.4121 64.8926-43.6279Q62.6465-39.8438 62.6465-35.3027Q62.6465-30.7129 64.8926-26.9287Q67.1387-23.1445 70.9229-20.874Q74.707-18.6035 79.3457-18.6035Z"/>
  </g>
  <g id="Light-S" transform="matrix(1 0 0 1 1101.94 696)">
   <path d="M23.5199-18.6188Q28.0795-18.6188 31.8562-20.8893Q35.6328-23.1598 37.8957-26.944Q40.1586-30.7281 40.1586-35.2875Q40.1586-39.8135 37.8957-43.5977Q35.6328-47.3818 31.8562-49.6524Q28.0795-51.9229 23.5199-51.9229Q18.8965-51.9229 15.1123-49.6524Q11.3281-47.3818 9.08203-43.5977Q6.83594-39.8135 6.83594-35.2875Q6.83594-30.7281 9.08203-26.944Q11.3281-23.1598 15.1123-20.8893Q18.8965-18.6188 23.5199-18.6188ZM23.5199-23.9596Q20.313-23.9596 17.7264-25.4503Q15.1398-26.9409 13.6415-29.5108Q12.1432-32.0806 12.1432-35.2875Q12.1432-38.4308 13.6415-41.0342Q15.1398-43.6376 17.7264-45.1847Q20.313-46.7318 23.5199-46.7318Q26.6782-46.7318 29.2648-45.1847Q31.8515-43.6376 33.3497-41.0342Q34.848-38.4308 34.848-35.2875Q34.848-32.0806 33.3497-29.5108Q31.8515-26.9409 29.2648-25.4503Q26.6782-23.9596 23.5199-23.9596ZM51.2042-47.2758Q55.7638-47.2758 59.5328-49.5295Q63.3018-51.7832 65.5724-55.5767Q67.8429-59.3702 67.8429-63.9112Q67.8429-68.4708 65.5724-72.2549Q63.3018-76.0391 59.5328-78.2927Q55.7638-80.5463 51.2042-80.5463Q46.6143-80.5463 42.8301-78.2927Q39.046-76.0391 36.783-72.2549Q34.52-68.4708 34.52-63.9112Q34.52-59.3702 36.783-55.5767Q39.046-51.7832 42.8301-49.5295Q46.6143-47.2758 51.2042-47.2758ZM51.2042-52.5831Q47.997-52.5831 45.4104-54.0906Q42.8238-55.5982 41.3255-58.168Q39.8272-60.7379 39.8272-63.9112Q39.8272-67.0878 41.3255-69.6913Q42.8238-72.2949 45.4104-73.842Q47.997-75.3891 51.2042-75.3891Q54.3961-75.3891 56.9583-73.842Q59.5205-72.2949 61.0432-69.6913Q62.5659-67.0878 62.5659-63.9112Q62.5659-60.7379 61.0432-58.168Q59.5205-55.5982 56.9583-54.0906Q54.3961-52.5831 51.2042-52.5831ZM51.2042 10.0049Q55.7638 10.0049 59.5328 7.75121Q63.3018 5.49749 65.5724 1.69652Q67.8429-2.10444 67.8429-6.63045Q67.8429-11.205 65.5724-14.9817Q63.3018-18.7584 59.5328-21.012Q55.7638-23.2656 51.2042-23.2656Q46.6143-23.2656 42.8301-21.012Q39.046-18.7584 36.783-14.9817Q34.52-11.205 34.52-6.63045Q34.52-2.10444 36.783 1.69652Q39.046 5.49749 42.8301 7.75121Q46.6143 10.0049 51.2042 10.0049ZM51.2042 4.69767Q47.997 4.69767 45.4104 3.1826Q42.8238 1.66753 41.3255-0.894801Q39.8272-3.45713 39.8272-6.63045Q39.8272-9.80708 41.3255-12.4106Q42.8238-15.0141 45.4104-16.5613Q47.997-18.1084 51.2042-18.1084Q54.3961-18.1084 56.9583-16.5613Q59.5205-15.0141 61.0432-12.4106Q62.5659-9.80708 62.5659-6.63045Q62.5659-3.45713 61.0432-0.894801Q59.5205 1.66753 56.9583 3.1826Q54.3961 4.69767 51.2042 4.69767ZM78.952-18.6188Q83.5116-18.6188 87.2883-20.8893Q91.065-23.1598 93.3111-26.944Q95.5571-30.7281 95.5571-35.2875Q95.5571-39.8135 93.3111-43.5977Q91.065-47.3818 87.2883-49.6524Q83.5116-51.9229 78.952-51.9229Q74.3286-51.9229 70.5521-49.6524Q66.7755-47.3818 64.5218-43.5977Q62.2681-39.8135 62.2681-35.2875Q62.2681-30.7281 64.5218-26.944Q66.7755-23.1598 70.5521-20.8893Q74.3286-18.6188 78.952-18.6188Z"/>
  </g>
  <g id="Thin-S" transform="matrix(1 0 0 1 805.516 696)">
   <path d="M23.4997-18.639Q28.0193-18.639 31.786-20.9095Q35.5528-23.18 37.8056-26.9642Q40.0584-30.7483 40.0584-35.2673Q40.0584-39.7735 37.8056-43.5576Q35.5528-47.3418 31.786-49.6123Q28.0193-51.8828 23.4997-51.8828Q18.8965-51.8828 15.1123-49.6123Q11.3281-47.3418 9.08203-43.5576Q6.83594-39.7735 6.83594-35.2673Q6.83594-30.7483 9.08203-26.9642Q11.3281-23.18 15.1123-20.9095Q18.8965-18.639 23.4997-18.639ZM23.4997-21.9378Q19.7325-21.9378 16.6955-23.6886Q13.6585-25.4395 11.8899-28.4698Q10.1214-31.5 10.1214-35.2673Q10.1214-38.9515 11.8899-41.9951Q13.6585-45.0388 16.6955-46.8562Q19.7325-48.6736 23.4997-48.6736Q27.2187-48.6736 30.2557-46.8562Q33.2927-45.0388 35.0613-41.9951Q36.8298-38.9515 36.8298-35.2673Q36.8298-31.5 35.0613-28.4698Q33.2927-25.4395 30.2557-23.6886Q27.2187-21.9378 23.4997-21.9378ZM50.924-47.0955Q55.4435-47.0955 59.1926-49.3593Q62.9416-51.6231 65.2121-55.3966Q67.4826-59.17 67.4826-63.7111Q67.4826-68.2306 65.2121-72.0148Q62.9416-75.799 59.1926-78.0625Q55.4435-80.326 50.924-80.326Q46.3341-80.326 42.55-78.0625Q38.7658-75.799 36.5127-72.0148Q34.2596-68.2306 34.2596-63.7111Q34.2596-59.17 36.5127-55.3966Q38.7658-51.6231 42.55-49.3593Q46.3341-47.0955 50.924-47.0955ZM50.924-50.381Q47.1562-50.381 44.1192-52.1388Q41.0822-53.8966 39.3136-56.9269Q37.5451-59.9572 37.5451-63.7111Q37.5451-67.408 39.3136-70.452Q41.0822-73.496 44.1192-75.3133Q47.1562-77.1307 50.924-77.1307Q54.6564-77.1307 57.669-75.3133Q60.6815-73.496 62.4745-70.452Q64.2675-67.408 64.2675-63.7111Q64.2675-59.9572 62.4745-56.9269Q60.6815-53.8966 57.669-52.1388Q54.6564-50.381 50.924-50.381ZM50.924 9.80481Q55.4435 9.80481 59.1926 7.54099Q62.9416 5.27718 65.2121 1.4863Q67.4826-2.30457 67.4826-6.81074Q67.4826-11.3651 65.2121-15.1319Q62.9416-18.8987 59.1926-21.1622Q55.4435-23.4257 50.924-23.4257Q46.3341-23.4257 42.55-21.1622Q38.7658-18.8987 36.5127-15.1319Q34.2596-11.3651 34.2596-6.81074Q34.2596-2.30457 36.5127 1.4863Q38.7658 5.27718 42.55 7.54099Q46.3341 9.80481 50.924 9.80481ZM50.924 6.51934Q47.1562 6.51934 44.1192 4.74411Q41.0822 2.96887 39.3136-0.0440044Q37.5451-3.05688 37.5451-6.81074Q37.5451-10.5077 39.3136-13.5517Q41.0822-16.5957 44.1192-18.413Q47.1562-20.2304 50.924-20.2304Q54.6564-20.2304 57.669-18.413Q60.6815-16.5957 62.4745-13.5517Q64.2675-10.5077 64.2675-6.81074Q64.2675-3.05688 62.4745-0.0440044Q60.6815 2.96887 57.669 4.74411Q54.6564 6.51934 50.924 6.51934ZM78.4314-18.639Q82.9509-18.639 86.7177-20.9095Q90.4844-23.18 92.7305-26.9642Q94.9766-30.7483 94.9766-35.2673Q94.9766-39.7735 92.7305-43.5576Q90.4844-47.3418 86.7177-49.6123Q82.9509-51.8828 78.4314-51.8828Q73.8281-51.8828 70.0617-49.6123Q66.2952-47.3418 64.0314-43.5576Q61.7676-39.7735 61.7676-35.2673Q61.7676-30.7483 64.0314-26.9642Q66.2952-23.18 70.0617-20.9095Q73.8281-18.639 78.4314-18.639Z"/>
  </g>
  <g id="Ultralight-S" transform="matrix(1 0 0 1 508.954 696)">
   <path d="M23.4894-18.6493Q27.9884-18.6493 31.7501-20.9198Q35.5118-23.1903 37.7594-26.9745Q40.007-30.7587 40.007-35.257Q40.007-39.753 37.7594-43.5371Q35.5118-47.3213 31.7501-49.5918Q27.9884-51.8623 23.4894-51.8623Q18.8965-51.8623 15.1123-49.5918Q11.3281-47.3213 9.08203-43.5371Q6.83594-39.753 6.83594-35.257Q6.83594-30.7587 9.08203-26.9745Q11.3281-23.1903 15.1123-20.9198Q18.8965-18.6493 23.4894-18.6493ZM23.4894-20.9023Q19.4351-20.9023 16.1674-22.7863Q12.8998-24.6704 10.9928-27.9366Q9.08585-31.2027 9.08585-35.257Q9.08585-39.2181 10.9928-42.4873Q12.8998-45.7565 16.1674-47.7123Q19.4351-49.6681 23.4894-49.6681Q27.4956-49.6681 30.7632-47.7123Q34.0309-45.7565 35.9379-42.4873Q37.8448-39.2181 37.8448-35.257Q37.8448-31.2027 35.9379-27.9366Q34.0309-24.6704 30.7632-22.7863Q27.4956-20.9023 23.4894-20.9023ZM50.7805-47.0032Q55.2795-47.0032 59.0183-49.2722Q62.7571-51.5411 65.0276-55.3043Q67.2981-59.0675 67.2981-63.6086Q67.2981-68.1076 65.0276-71.8918Q62.7571-75.676 59.0183-77.9446Q55.2795-80.2132 50.7805-80.2132Q46.1906-80.2132 42.4065-77.9446Q38.6223-75.676 36.3743-71.8918Q34.1263-68.1076 34.1263-63.6086Q34.1263-59.0675 36.3743-55.3043Q38.6223-51.5411 42.4065-49.2722Q46.1906-47.0032 50.7805-47.0032ZM50.7805-49.2531Q46.7255-49.2531 43.4578-51.1391Q40.1901-53.0251 38.2832-56.2912Q36.3762-59.5573 36.3762-63.6086Q36.3762-67.572 38.2832-70.8416Q40.1901-74.1112 43.4578-76.067Q46.7255-78.0228 50.7805-78.0228Q54.7897-78.0228 58.033-76.067Q61.2762-74.1112 63.2076-70.8416Q65.139-67.572 65.139-63.6086Q65.139-59.5573 63.2076-56.2912Q61.2762-53.0251 58.033-51.1391Q54.7897-49.2531 50.7805-49.2531ZM50.7805 9.7023Q55.2795 9.7023 59.0183 7.43332Q62.7571 5.16434 65.0276 1.37863Q67.2981-2.40707 67.2981-6.90308Q67.2981-11.4471 65.0276-15.2088Q62.7571-18.9705 59.0183-21.2391Q55.2795-23.5077 50.7805-23.5077Q46.1906-23.5077 42.4065-21.2391Q38.6223-18.9705 36.3743-15.2088Q34.1263-11.4471 34.1263-6.90308Q34.1263-2.40707 36.3743 1.37863Q38.6223 5.16434 42.4065 7.43332Q46.1906 9.7023 50.7805 9.7023ZM50.7805 7.45239Q46.7255 7.45239 43.4578 5.5439Q40.1901 3.63541 38.2832 0.391769Q36.3762-2.85187 36.3762-6.90308Q36.3762-10.8665 38.2832-14.1361Q40.1901-17.4057 43.4578-19.3615Q46.7255-21.3173 50.7805-21.3173Q54.7897-21.3173 58.033-19.3615Q61.2762-17.4057 63.2076-14.1361Q65.139-10.8665 65.139-6.90308Q65.139-2.85187 63.2076 0.391769Q61.2762 3.63541 58.033 5.5439Q54.7897 7.45239 50.7805 7.45239ZM78.1647-18.6493Q82.6637-18.6493 86.4254-20.9198Q90.1871-23.1903 92.4332-26.9745Q94.6793-30.7587 94.6793-35.257Q94.6793-39.753 92.4332-43.5371Q90.1871-47.3213 86.4254-49.5918Q82.6637-51.8623 78.1647-51.8623Q73.5718-51.8623 69.8105-49.5918Q66.0492-47.3213 63.7802-43.5371Q61.5112-39.753 61.5112-35.257Q61.5112-30.7587 63.7802-26.9745Q66.0492-23.1903 69.8105-20.9198Q73.5718-18.6493 78.1647-18.6493Z"/>
  </g>
 </g>
</svg>
